{
copyright = "Copyright (c) 2018 by Vladimir Nikolic. All rights reserved.";
designer = "Vladimir Nikolic";
designerURL = "https://www.coroflot.com/vladimirnikolic";
familyName = "New Amsterdam";
customParameters = (
{
name = glyphOrder;
value = (
.notdef,
_1,
CR,
NULL,
space,
exclam,
quotedbl,
numbersign,
dollar,
percent,
ampersand,
quotesingle,
parenleft,
parenright,
asterisk,
plus,
comma,
hyphen,
period,
slash,
zero,
one,
two,
three,
four,
five,
six,
seven,
eight,
nine,
colon,
semicolon,
less,
equal,
greater,
question,
at,
A,
B,
C,
D,
E,
F,
G,
H,
I,
J,
K,
L,
M,
N,
O,
P,
Q,
R,
S,
T,
U,
V,
W,
X,
Y,
Z,
bracketleft,
backslash,
bracketright,
asciicircum,
underscore,
grave,
a,
b,
c,
d,
e,
f,
g,
h,
i,
j,
k,
l,
m,
n,
o,
p,
q,
r,
s,
t,
u,
v,
w,
x,
y,
z,
braceleft,
bar,
braceright,
asciitilde,
exclamdown,
cent,
sterling,
currency,
yen,
section,
dieresis,
copyright,
guillemotleft,
uni00AD,
registered,
degree,
plusminus,
acute,
middot,
cedilla,
guillemotright,
questiondown,
Agrave,
Aacute,
Acircumflex,
Atilde,
Adieresis,
Aring,
AE,
Ccedilla,
Egrave,
Eacute,
Ecircumflex,
Edieresis,
Igrave,
Iacute,
Icircumflex,
Idieresis,
Eth,
Ntilde,
Ograve,
Oacute,
Ocircumflex,
Otilde,
Odieresis,
multiply,
Oslash,
Ugrave,
Uacute,
Ucircumflex,
Udieresis,
Yacute,
Thorn,
germandbls,
agrave,
aacute,
acircumflex,
atilde,
adieresis,
aring,
ae,
ccedilla,
egrave,
eacute,
ecircumflex,
edieresis,
igrave,
iacute,
icircumflex,
idieresis,
eth,
ntilde,
ograve,
oacute,
ocircumflex,
otilde,
odieresis,
divide,
oslash,
ugrave,
uacute,
ucircumflex,
udieresis,
yacute,
thorn,
ydieresis,
Amacron,
amacron,
Abreve,
abreve,
Aogonek,
aogonek,
Cacute,
cacute,
Ccircumflex,
ccircumflex,
Cdotaccent,
cdotaccent,
Ccaron,
ccaron,
Dcaron,
dcaron,
Dcroat,
dslash,
Emacron,
emacron,
Ebreve,
ebreve,
Edotaccent,
edotaccent,
Eogonek,
eogonek,
Ecaron,
ecaron,
Gcircumflex,
gcircumflex,
Gbreve,
gbreve,
Gdotaccent,
gdotaccent,
Gcommaaccent,
gcommaaccent,
Hcircumflex,
hcircumflex,
Hbar,
hbar,
Itilde,
itilde,
Imacron,
imacron,
Ibreve,

glyphs = (
{
glyphname = exclam;
layers = (
{
hints = (
{
horizontal = 1;
place = "{0, 127}";
type = Stem;
},
{
place = "{31, 136}";
type = Stem;
}
);
layerId = "6F6D0AFA-D4D5-4829-AF83-4D7A2EC0E6ED";
paths = (
{
nodes = (
"50 127 OFFCURVE",
"31 110 OFFCURVE",
"31 63 CURVE SMOOTH",
"31 18 OFFCURVE",
"50 0 OFFCURVE",
"98 0 CURVE SMOOTH",
"149 0 OFFCURVE",
"167 18 OFFCURVE",
"167 63 CURVE SMOOTH",
"167 110 OFFCURVE",
"149 127 OFFCURVE",
"98 127 CURVE SMOOTH"
);
},
{
nodes = (
"167 781 LINE",
"31 781 LINE",
"31 192 LINE",
"167 192 LINE"
);
}
);
width = 200;
}
);
unicode = 0021;
},
{
glyphname = quotedbl;
layers = (
{
hints = (
{
horizontal = 1;
place = "{582, 200}";
type = Stem;
},
{
place = "{24, 89}";
type = Stem;
},
{
place = "{169, 87}";
type = Stem;
}
);
layerId = "6F6D0AFA-D4D5-4829-AF83-4D7A2EC0E6ED";
paths = (
{
nodes = (
"24 582 LINE",
"24 581 OFFCURVE",
"47 581 OFFCURVE",
"68 582 CURVE",
"81 582 OFFCURVE",
"96 582 OFFCURVE",
"113 583 CURVE",
"140 782 LINE",
"24 782 LINE"
);
},
{
nodes = (
"169 583 LINE",
"169 582 OFFCURVE",
"173 582 OFFCURVE",
"182 582 CURVE SMOOTH",
"212 582 LINE SMOOTH",
"225 582 OFFCURVE",
"240 582 OFFCURVE",
"256 583 CURVE",
"286 782 LINE",
"169 782 LINE"
);
}
);
width = 304;
}
);
unicode = 0022;
},
{
glyphname = numbersign;
layers = (
{
hints = (
{
horizontal = 1;
place = "{230, 75}";
type = Stem;
},
{
horizontal = 1;
place = "{478, 74}";
type = Stem;
},
{
place = "{28, 519}";
type = Stem;
}
);
layerId = "6F6D0AFA-D4D5-4829-AF83-4D7A2EC0E6ED";
paths = (
{
nodes = (
"541 552 LINE",
"466 552 LINE",
"491 694 LINE",
"402 695 LINE",
"376 552 LINE",
"262 552 LINE",
"287 691 LINE",
"198 692 LINE",
"172 552 LINE",
"28 552 LINE",
"28 478 LINE",
"158 478 LINE",
"126 305 LINE",
"28 305 LINE",
"28 230 LINE",
"113 230 LINE",
"83 71 LINE",
"176 71 LINE",
"205 230 LINE",
"316 230 LINE",
"287 73 LINE",
"380 73 LINE",
"408 230 LINE",
"547 230 LINE",
"547 305 LINE",
"421 305 LINE",
"452 478 LINE",
"541 478 LINE"
);
},
{
nodes = (
"218 305 LINE",
"248 478 LINE",
"361 478 LINE",
"330 305 LINE"
);
}
);
width = 570;
}
);
unicode = 0023;
},
{
glyphname = dollar;
layers = (
{
hints = (
{
horizontal = 1;
place = "{-68, 195}";
type = Stem;
},
{
horizontal = 1;
place = "{344, 128}";
type = Stem;
},
{
horizontal = 1;
place = "{652, 194}";
type = Stem;
},
{
place = "{28, 132}";
type = Stem;
},
{
place = "{166, 135}";
type = Stem;
},
{
place = "{313, 135}";
type = Stem;
}
);
layerId = "6F6D0AFA-D4D5-4829-AF83-4D7A2EC0E6ED";
paths = (
{
nodes = (
"226 472 OFFCURVE",
"170 473 OFFCURVE",
"167 484 CURVE",
"159 505 OFFCURVE",
"160 530 OFFCURVE",
"160 574 CURVE",
"161 595 OFFCURVE",
"161 611 OFFCURVE",
"162 620 CURVE SMOOTH",
"167 649 OFFCURVE",
"182 652 OFFCURVE",
"238 652 CURVE SMOOTH",
"315 652 OFFCURVE",
"313 645 OFFCURVE",
"313 575 CURVE",
"448 575 LINE",
"448 698 OFFCURVE",
"410 758 OFFCURVE",
"301 774 CURVE",
"301 846 LINE",
"166 846 LINE",
"166 773 LINE",
"63 756 OFFCURVE",
"28 697 OFFCURVE",
"28 581 CURVE SMOOTH",
"28 430 OFFCURVE",
"39 344 OFFCURVE",
"238 344 CURVE SMOOTH",
"242 344 LINE SMOOTH",
"267 344 OFFCURVE",
"300 341 OFFCURVE",
"310 328 CURVE",
"313 312 OFFCURVE",
"314 297 OFFCURVE",
"314 278 CURVE",
"317 261 OFFCURVE",
"314 232 OFFCURVE",
"313 185 CURVE",
"313 135 OFFCURVE",
"313 130 OFFCURVE",
"248 127 CURVE SMOOTH",
"161 124 OFFCURVE",
"155 140 OFFCURVE",
"160 198 CURVE",
"160 211 OFFCURVE",
"161 229 OFFCURVE",
"161 242 CURVE",
"28 242 LINE",
"28 111 OFFCURVE",
"37 24 OFFCURVE",
"166 5 CURVE",
"166 -68 LINE",
"301 -68 LINE",
"301 4 LINE",
"410 20 OFFCURVE",
"448 78 OFFCURVE",
"448 198 CURVE SMOOTH",
"448 224 LINE SMOOTH",
"448 368 OFFCURVE",
"449 472 OFFCURVE",
"238 472 CURVE SMOOTH"
);
}
);
width = 482;
}
);
unicode = 0024;
},
{
glyphname = percent;
layers = (
{
hints = (
{
horizontal = 1;
place = "{10, 54}";
type = Stem;
},
{
horizontal = 1;
place = "{0, 21}";
target = up;
type = BottomGhost;
},
{
horizontal = 1;
place = "{322, 52}";
type = Stem;
},
{
horizontal = 1;
place = "{407, 54}";
type = Stem;
},
{
horizontal = 1;
place = "{719, 53}";
type = Stem;
},
{
place = "{24, 55}";
type = Stem;
},
{
place = "{140, 56}";
type = Stem;
},
{
place = "{281, 55}";
type = Stem;
},
{
place = "{397, 55}";
type = Stem;
}
);
layerId = "6F6D0AFA-D4D5-4829-AF83-4D7A2EC0E6ED";
paths = (
{
nodes = (
"328 772 LINE",
"72 0 LINE",
"140 0 LINE",
"400 770 LINE"
);
},
{
nodes = (
"452 293 LINE SMOOTH",
"452 351 OFFCURVE",
"432 374 OFFCURVE",
"366 374 CURVE SMOOTH",
"303 374 OFFCURVE",
"281 351 OFFCURVE",
"281 293 CURVE SMOOTH",
"281 91 LINE SMOOTH",
"281 33 OFFCURVE",
"303 10 OFFCURVE",
"366 10 CURVE SMOOTH",
"446 10 OFFCURVE",
"452 44 OFFCURVE",
"452 107 CURVE SMOOTH"
);
},
{
nodes = (
"335 293 LINE",
"335 315 OFFCURVE",
"336 322 OFFCURVE",
"366 322 CURVE SMOOTH",
"396 322 OFFCURVE",
"397 318 OFFCURVE",
"397 293 CURVE SMOOTH",
"397 107 LINE SMOOTH",
"397 77 OFFCURVE",
"397 64 OFFCURVE",
"367 64 CURVE SMOOTH",
"338 64 OFFCURVE",
"336 72 OFFCURVE",
"336 104 CURVE"
);
},
{
nodes = (
"196 690 LINE SMOOTH",
"196 748 OFFCURVE",
"174 772 OFFCURVE",
"109 772 CURVE SMOOTH",
"46 772 OFFCURVE",
"24 748 OFFCURVE",
"24 690 CURVE SMOOTH",
"24 488 LINE SMOOTH",
"24 431 OFFCURVE",
"46 407 OFFCURVE",
"109 407 CURVE SMOOTH",
"188 407 OFFCURVE",
"196 441 OFFCURVE",
"196 504 CURVE SMOOTH"
);
},
{
nodes = (
"78 690 LINE",
"78 712 OFFCURVE",
"79 719 OFFCURVE",
"109 719 CURVE SMOOTH",
"139 719 OFFCURVE",
"140 718 OFFCURVE",
"140 690 CURVE SMOOTH",
"140 504 LINE SMOOTH",
"140 476 OFFCURVE",
"140 461 OFFCURVE",
"110 461 CURVE SMOOTH",
"83 461 OFFCURVE",
"79 469 OFFCURVE",
"79 502 CURVE"
);
}
);
width = 482;
}
);
unicode = 0025;
},
{
glyphname = ampersand;
layers = (
{
hints = (
{
horizontal = 1;
place = "{0, 133}";
type = Stem;
},
{
horizontal = 1;
place = "{340, 140}";
type = Stem;
},
{
horizontal = 1;
place = "{658, 126}";
type = Stem;
},
{
place = "{28, 135}";
type = Stem;
},
{
place = "{329, 126}";
type = Stem;
}
);
layerId = "6F6D0AFA-D4D5-4829-AF83-4D7A2EC0E6ED";
paths = (
{
nodes = (
"516 480 LINE",
"455 480 LINE",
"455 539 LINE",
"329 539 LINE",
"329 480 LINE",
"239 480 LINE",
"215 481 OFFCURVE",
"187 488 OFFCURVE",
"175 499 CURVE",
"164 511 OFFCURVE",
"162 540 OFFCURVE",
"162 569 CURVE SMOOTH",
"162 593 OFFCURVE",
"163 617 OFFCURVE",
"164 630 CURVE",
"175 649 OFFCURVE",
"206 658 OFFCURVE",
"238 658 CURVE",
"239 658 LINE",
"378 658 LINE",
"378 784 LINE",
"238 784 LINE SMOOTH",
"80 784 OFFCURVE",
"28 723 OFFCURVE",
"28 584 CURVE SMOOTH",
"28 521 OFFCURVE",
"27 460 OFFCURVE",
"78 412 CURVE",
"39 373 OFFCURVE",
"28 325 OFFCURVE",
"28 275 CURVE SMOOTH",
"28 224 LINE",
"28 199 LINE SMOOTH",
"28 55 OFFCURVE",
"94 0 OFFCURVE",
"253 0 CURVE",
"276 7 OFFCURVE",
"313 16 OFFCURVE",
"329 29 CURVE",
"329 0 LINE",
"455 0 LINE",
"455 340 LINE",
"516 340 LINE"
);
},
{
nodes = (
"329 200 LINE",
"313 138 OFFCURVE",
"243 133 OFFCURVE",
"238 133 CURVE",
"236 133 LINE",
"200 133 OFFCURVE",
"163 144 OFFCURVE",
"163 172 CURVE SMOOTH",
"163 217 LINE SMOOTH",
"163 237 OFFCURVE",
"163 258 OFFCURVE",
"164 279 CURVE SMOOTH",
"165 300 OFFCURVE",
"168 314 OFFCURVE",
"172 319 CURVE SMOOTH",
"183 334 OFFCURVE",
"214 340 OFFCURVE",
"239 343 CURVE",
"239 340 LINE",
"329 340 LINE"
);
}
);
width = 529;
}
);
unicode = 0026;
},
{
glyphname = quotesingle;
layers = (
{
hints = (
{
horizontal = 1;
place = "{577, 201}";
type = Stem;
},
{
horizontal = 1;
place = "{778, -20}";
target = down;
type = TopGhost;
},
{
place = "{20, 89}";
type = Stem;
}
);
layerId = "6F6D0AFA-D4D5-4829-AF83-4D7A2EC0E6ED";
paths = (
{
nodes = (
"20 577 LINE",
"20 576 OFFCURVE",
"42 576 OFFCURVE",
"65 577 CURVE",
"78 577 OFFCURVE",
"92 577 OFFCURVE",
"109 578 CURVE",
"137 778 LINE",
"20 778 LINE"
);
}
);
width = 152;
}
);
unicode = 0027;
},
{
glyphname = parenleft;
layers = (
{
hints = (
{
horizontal = 1;
place = "{-175, 127}";
type = Stem;
},
{
horizontal = 1;
place = "{830, 128}";
type = Stem;
},
{
place = "{31, 135}";
type = Stem;
}
);
layerId = "6F6D0AFA-D4D5-4829-AF83-4D7A2EC0E6ED";
paths = (
{
nodes = (
"31 31 LINE SMOOTH",
"31 -142 OFFCURVE",
"111 -175 OFFCURVE",
"288 -175 CURVE",
"288 -48 LINE",
"181 -48 OFFCURVE",
"166 -43 OFFCURVE",
"166 42 CURVE SMOOTH",
"166 740 LINE SMOOTH",
"166 828 OFFCURVE",
"181 830 OFFCURVE",
"288 830 CURVE",
"288 958 LINE",
"111 958 OFFCURVE",
"31 923 OFFCURVE",
"31 751 CURVE SMOOTH"
);
}
);
width = 200;
}
);
unicode = 0028;
},
{
glyphname = parenright;
layers = (
{
hints = (
{
horizontal = 1;
place = "{-176, 127}";
type = Stem;
},
{
horizontal = 1;
place = "{829, 127}";
type = Stem;
},
{
place = "{50, 135}";
type = Stem;
}
);
layerId = "6F6D0AFA-D4D5-4829-AF83-4D7A2EC0E6ED";
paths = (
{
nodes = (
"-72 829 LINE",
"35 829 OFFCURVE",
"50 827 OFFCURVE",
"50 739 CURVE SMOOTH",
"50 41 LINE SMOOTH",
"50 -47 OFFCURVE",
"35 -49 OFFCURVE",
"-72 -49 CURVE",
"-72 -176 LINE",
"105 -176 OFFCURVE",
"185 -143 OFFCURVE",
"185 30 CURVE SMOOTH",
"185 750 LINE SMOOTH",
"185 923 OFFCURVE",
"105 956 OFFCURVE",
"-72 956 CURVE"
);
}
);
width = 221;
}
);
unicode = 0029;
},
{
glyphname = asterisk;
layers = (
{
hints = (
{
horizontal = 1;
place = "{574, 70}";
type = Stem;
},
{
place = "{28, 273}";
type = Stem;
}
);
layerId = "6F6D0AFA-D4D5-4829-AF83-4D7A2EC0E6ED";
paths = (
{
nodes = (
"217 640 LINE",
"271 710 LINE",
"199 752 LINE",
"163 671 LINE",
"128 752 LINE",
"55 710 LINE",
"109 640 LINE",
"28 650 LINE",
"28 569 LINE",
"109 580 LINE",
"58 511 LINE",
"126 467 LINE",
"163 551 LINE",
"199 469 LINE",
"271 511 LINE",
"217 580 LINE",
"301 569 LINE",
"301 650 LINE"
);
}
);
width = 319;
}
);
unicode = 002A;
},
{
glyphname = plus;
layers = (
{
hints = (
{
horizontal = 1;
place = "{332, 98}";
type = Stem;
},
{
place = "{138, 97}";
type = Stem;
}
);
layerId = "6F6D0AFA-D4D5-4829-AF83-4D7A2EC0E6ED";
paths = (
{
nodes = (
"235 430 LINE",
"235 539 LINE",
"138 539 LINE",
"138 430 LINE",
"29 430 LINE",
"29 332 LINE",
"138 332 LINE",
"138 223 LINE",
"235 223 LINE",
"235 332 LINE",
"344 332 LINE",
"344 430 LINE"
);
}
);
width = 367;
}
);
unicode = 002B;
},
{
glyphname = comma;
layers = (
{
hints = (
{
horizontal = 1;
place = "{-83, 210}";
type = Stem;
},
{
place = "{10, 140}";
type = Stem;
}
);
layerId = "6F6D0AFA-D4D5-4829-AF83-4D7A2EC0E6ED";
paths = (
{
nodes = (
"59 -83 LINE",
"111 -46 OFFCURVE",
"157 7 OFFCURVE",
"150 68 CURVE SMOOTH",
"145 112 OFFCURVE",
"117 127 OFFCURVE",
"88 127 CURVE SMOOTH",
"47 127 OFFCURVE",
"1 94 OFFCURVE",
"12 53 CURVE SMOOTH",
"15 41 OFFCURVE",
"18 37 OFFCURVE",
"25 30 CURVE",
"25 31 LINE",
"31 22 LINE SMOOTH",
"39 10 OFFCURVE",
"43 -5 OFFCURVE",
"43 -23 CURVE SMOOTH",
"43 -38 OFFCURVE",
"36 -51 OFFCURVE",
"22 -60 CURVE"
);
}
);
width = 167;
}
);
unicode = 002C;
},
{
glyphname = hyphen;
layers = (
{
hints = (
{
horizontal = 1;
place = "{332, 98}";
type = Stem;
},
{
place = "{29, 258}";
type = Stem;
}
);
layerId = "6F6D0AFA-D4D5-4829-AF83-4D7A2EC0E6ED";
paths = (
{
nodes = (
"29 430 LINE",
"29 332 LINE",
"287 332 LINE",
"287 430 LINE"
);
}
);
width = 317;
}
);
unicode = 002D;
},
{
glyphname = period;
layers = (
{
hints = (
{
horizontal = 1;
place = "{0, 128}";
type = Stem;
},
{
place = "{17, 134}";
type = Stem;
}
);
layerId = "6F6D0AFA-D4D5-4829-AF83-4D7A2EC0E6ED";
paths = (
{
nodes = (
"35 128 OFFCURVE",
"17 108 OFFCURVE",
"17 64 CURVE SMOOTH",
"17 20 OFFCURVE",
"36 0 OFFCURVE",
"84 0 CURVE SMOOTH",
"129 0 OFFCURVE",
"151 21 OFFCURVE",
"151 64 CURVE SMOOTH",
"151 109 OFFCURVE",
"132 128 OFFCURVE",
"84 128 CURVE SMOOTH"
);
}
);
width = 164;
}
);
unicode = 002E;
},
{
glyphname = slash;
layers = (
{
hints = (
{
horizontal = 1;
place = "{0, 21}";
target = up;
type = BottomGhost;
},
{
place = "{17, 318}";
type = Stem;
}
);
layerId = "6F6D0AFA-D4D5-4829-AF83-4D7A2EC0E6ED";
paths = (
{
nodes = (
"246 772 LINE",
"17 0 LINE",
"110 0 LINE",
"335 770 LINE"
);
}
);
width = 348;
}
);
unicode = 002F;
},
{
glyphname = zero;
layers = (
{
hints = (
{
horizontal = 1;
place = "{0, 130}";
type = Stem;
},
{
horizontal = 1;
place = "{655, 129}";
type = Stem;
},
{
place = "{29, 135}";
type = Stem;
},
{
place = "{316, 134}";
type = Stem;
}
);
layerId = "6F6D0AFA-D4D5-4829-AF83-4D7A2EC0E6ED";
paths = (
{
nodes = (
"450 584 LINE SMOOTH",
"450 728 OFFCURVE",
"395 784 OFFCURVE",
"240 784 CURVE SMOOTH",
"83 784 OFFCURVE",
"29 728 OFFCURVE",
"29 584 CURVE SMOOTH",
"29 199 LINE SMOOTH",
"29 53 OFFCURVE",
"83 0 OFFCURVE",
"240 0 CURVE SMOOTH",
"431 0 OFFCURVE",
"450 81 OFFCURVE",
"450 238 CURVE SMOOTH"
);
},
{
nodes = (
"162 584 LINE",
"162 643 OFFCURVE",
"164 655 OFFCURVE",
"240 655 CURVE SMOOTH",
"312 655 OFFCURVE",
"316 653 OFFCURVE",
"316 584 CURVE SMOOTH",
"316 238 LINE SMOOTH",
"316 166 OFFCURVE",
"314 130 OFFCURVE",
"242 130 CURVE SMOOTH",
"173 130 OFFCURVE",
"164 151 OFFCURVE",
"164 232 CURVE"
);
}
);
width = 482;
}
);
unicode = 0030;
},
{
glyphname = one;
layers = (
{
hints = (
{
horizontal = 1;
place = "{0, 21}";
target = up;
type = BottomGhost;
},
{
horizontal = 1;
place = "{655, 127}";
type = Stem;
},
{
place = "{104, 135}";
type = Stem;
}
);
layerId = "6F6D0AFA-D4D5-4829-AF83-4D7A2EC0E6ED";
paths = (
{
nodes = (
"239 782 LINE",
"24 782 LINE",
"24 655 LINE",
"104 655 LINE",
"104 0 LINE",
"239 0 LINE"
);
}
);
width = 277;
}
);
unicode = 0031;
},
{
glyphname = two;
layers = (
{
hints = (
{
horizontal = 1;
place = "{0, 128}";
type = Stem;
},
{
horizontal = 1;
place = "{308, 129}";
type = Stem;
},
{
horizontal = 1;
place = "{656, 128}";
type = Stem;
},
{
place = "{29, 135}";
type = Stem;
},
{
place = "{317, 134}";
type = Stem;
}
);
layerId = "6F6D0AFA-D4D5-4829-AF83-4D7A2EC0E6ED";
paths = (
{
nodes = (
"451 128 LINE",
"164 128 LINE",
"164 163 LINE SMOOTH",
"164 192 OFFCURVE",
"166 222 OFFCURVE",
"166 249 CURVE",
"167 276 OFFCURVE",
"169 288 OFFCURVE",
"181 296 CURVE SMOOTH",
"200 308 OFFCURVE",
"226 308 OFFCURVE",
"239 308 CURVE SMOOTH",
"453 308 OFFCURVE",
"451 414 OFFCURVE",
"451 558 CURVE SMOOTH",
"451 586 LINE SMOOTH",
"451 725 OFFCURVE",
"402 784 OFFCURVE",
"241 784 CURVE SMOOTH",
"81 784 OFFCURVE",
"29 723 OFFCURVE",
"29 580 CURVE",
"164 580 LINE",
"161 651 OFFCURVE",
"182 656 OFFCURVE",
"241 656 CURVE SMOOTH",
"304 656 OFFCURVE",
"317 633 OFFCURVE",
"317 546 CURVE SMOOTH",
"317 539 OFFCURVE",
"318 534 OFFCURVE",
"318 526 CURVE",
"321 482 OFFCURVE",
"322 437 OFFCURVE",
"241 437 CURVE SMOOTH",
"54 437 OFFCURVE",
"29 346 OFFCURVE",
"29 217 CURVE SMOOTH",
"29 186 LINE SMOOTH",
"29 174 OFFCURVE",
"29 163 OFFCURVE",
"30 152 CURVE",
"30 108 OFFCURVE",
"32 54 OFFCURVE",
"29 0 CURVE",
"451 0 LINE"
);
}
);
width = 484;
}
);
unicode = 0032;
},
{
glyphname = three;
layers = (
{
hints = (
{
horizontal = 1;
place = "{0, 127}";
type = Stem;
},
{
horizontal = 1;
place = "{347, 128}";
type = Stem;
},
{
horizontal = 1;
place = "{656, 128}";
type = Stem;
},
{
place = "{18, 136}";
type = Stem;
},
{
place = "{307, 135}";
type = Stem;
}
);
layerId = "6F6D0AFA-D4D5-4829-AF83-4D7A2EC0E6ED";
paths = (
{
nodes = (
"143 347 LINE",
"176 347 LINE",
"208 348 OFFCURVE",
"237 350 OFFCURVE",
"272 338 CURVE",
"300 330 OFFCURVE",
"307 306 OFFCURVE",
"307 238 CURVE SMOOTH",
"307 217 LINE SMOOTH",
"307 170 OFFCURVE",
"311 127 OFFCURVE",
"223 127 CURVE SMOOTH",
"169 127 OFFCURVE",
"154 138 OFFCURVE",
"154 206 CURVE",
"18 206 LINE",
"18 59 OFFCURVE",
"71 0 OFFCURVE",
"229 0 CURVE SMOOTH",
"428 0 OFFCURVE",
"442 84 OFFCURVE",
"442 238 CURVE SMOOTH",
"442 303 OFFCURVE",
"441 359 OFFCURVE",
"391 412 CURVE",
"428 448 OFFCURVE",
"440 499 OFFCURVE",
"440 547 CURVE SMOOTH",
"440 699 OFFCURVE",
"424 784 OFFCURVE",
"229 784 CURVE SMOOTH",
"71 784 OFFCURVE",
"18 723 OFFCURVE",
"18 580 CURVE",
"154 580 LINE",
"154 649 OFFCURVE",
"153 656 OFFCURVE",
"229 656 CURVE",
"303 653 OFFCURVE",
"306 640 OFFCURVE",
"306 580 CURVE SMOOTH",
"306 534 OFFCURVE",
"310 478 OFFCURVE",
"226 475 CURVE SMOOTH",
"207 474 OFFCURVE",
"191 475 OFFCURVE",
"174 475 CURVE SMOOTH",
"143 475 LINE"
);
}
);
width = 466;
}
);
unicode = 0033;
},
{
glyphname = four;
layers = (
{
hints = (
{
horizontal = 1;
place = "{0, 21}";
target = up;
type = BottomGhost;
},
{
horizontal = 1;
place = "{232, 127}";
type = Stem;
},
{
place = "{268, 135}";
type = Stem;
}
);
layerId = "6F6D0AFA-D4D5-4829-AF83-4D7A2EC0E6ED";
paths = (
{
nodes = (
"463 359 LINE",
"403 359 LINE",
"403 784 LINE",
"270 784 LINE",
"23 355 LINE",
"22 342 OFFCURVE",
"22 329 OFFCURVE",
"22 316 CURVE SMOOTH",
"22 252 LINE",
"22 232 LINE",
"268 232 LINE",
"268 0 LINE",
"403 0 LINE",
"403 232 LINE",
"463 232 LINE"
);
},
{
nodes = (
"268 359 LINE",
"176 359 LINE",
"207 411 OFFCURVE",
"239 462 OFFCURVE",
"268 514 CURVE"
);
}
);
width = 486;
}
);
unicode = 0034;
},
{
glyphname = five;
layers = (
{
hints = (
{
horizontal = 1;
place = "{0, 132}";
type = Stem;
},
{
horizontal = 1;
place = "{0, 205}";
type = Stem;
},
{
horizontal = 1;
place = "{379, 127}";
type = Stem;
},
{
horizontal = 1;
place = "{655, 129}";
type = Stem;
},
{
place = "{31, 135}";
type = Stem;
},
{
place = "{322, 132}";
type = Stem;
}
);
layerId = "6F6D0AFA-D4D5-4829-AF83-4D7A2EC0E6ED";
paths = (
{
nodes = (
"31 205 LINE",
"31 58 OFFCURVE",
"84 0 OFFCURVE",
"242 0 CURVE SMOOTH",
"439 0 OFFCURVE",
"454 84 OFFCURVE",
"454 238 CURVE SMOOTH",
"454 277 LINE SMOOTH",
"454 415 OFFCURVE",
"458 506 OFFCURVE",
"253 506 CURVE SMOOTH",
"166 506 LINE",
"166 655 LINE",
"454 655 LINE",
"454 784 LINE",
"31 784 LINE",
"31 379 LINE",
"220 379 LINE SMOOTH",
"320 379 OFFCURVE",
"322 363 OFFCURVE",
"322 276 CURVE SMOOTH",
"322 266 LINE SMOOTH",
"322 237 OFFCURVE",
"323 185 OFFCURVE",
"304 157 CURVE SMOOTH",
"291 138 OFFCURVE",
"265 132 OFFCURVE",
"244 132 CURVE SMOOTH",
"224 132 OFFCURVE",
"206 136 OFFCURVE",
"193 143 CURVE",
"193 142 LINE",
"165 152 OFFCURVE",
"166 201 OFFCURVE",
"166 205 CURVE"
);
}
);
width = 481;
}
);
unicode = 0035;
},
{
glyphname = six;
layers = (
{
hints = (
{
horizontal = 1;
place = "{0, 131}";
type = Stem;
},
{
horizontal = 1;
place = "{349, 125}";
type = Stem;
},
{
horizontal = 1;
place = "{656, 128}";
type = Stem;
},
{
place = "{35, 135}";
type = Stem;
},
{
place = "{322, 135}";
type = Stem;
}
);
layerId = "6F6D0AFA-D4D5-4829-AF83-4D7A2EC0E6ED";
paths = (
{
nodes = (
"457 580 LINE",
"457 723 OFFCURVE",
"404 784 OFFCURVE",
"246 784 CURVE SMOOTH",
"43 784 OFFCURVE",
"35 689 OFFCURVE",
"35 554 CURVE SMOOTH",
"35 212 LINE SMOOTH",
"35 91 OFFCURVE",
"54 0 OFFCURVE",
"246 0 CURVE SMOOTH",
"405 0 OFFCURVE",
"457 56 OFFCURVE",
"457 199 CURVE SMOOTH",
"457 224 LINE SMOOTH",
"457 370 OFFCURVE",
"459 474 OFFCURVE",
"246 474 CURVE SMOOTH",
"221 474 OFFCURVE",
"193 473 OFFCURVE",
"169 468 CURVE",
"169 484 LINE SMOOTH",
"169 501 OFFCURVE",
"168 522 OFFCURVE",
"168 545 CURVE SMOOTH",
"168 586 OFFCURVE",
"171 632 OFFCURVE",
"176 644 CURVE",
"175 644 LINE",
"180 652 OFFCURVE",
"213 656 OFFCURVE",
"245 656 CURVE SMOOTH",
"273 656 OFFCURVE",
"303 654 OFFCURVE",
"307 650 CURVE",
"333 634 OFFCURVE",
"319 583 OFFCURVE",
"319 580 CURVE"
);
},
{
nodes = (
"170 250 LINE SMOOTH",
"170 322 OFFCURVE",
"171 346 OFFCURVE",
"246 349 CURVE SMOOTH",
"319 352 OFFCURVE",
"322 329 OFFCURVE",
"322 256 CURVE SMOOTH",
"322 222 LINE SMOOTH",
"322 149 OFFCURVE",
"324 131 OFFCURVE",
"245 131 CURVE SMOOTH",
"178 131 OFFCURVE",
"170 137 OFFCURVE",
"170 233 CURVE SMOOTH"
);
}
);
width = 485;
}
);
unicode = 0036;
},
{
glyphname = seven;
layers = (
{
hints = (
{
horizontal = 1;
place = "{0, 21}";
target = up;
type = BottomGhost;
},
{
horizontal = 1;
place = "{656, 128}";
type = Stem;
},
{
place = "{22, 392}";
type = Stem;
}
);
layerId = "6F6D0AFA-D4D5-4829-AF83-4D7A2EC0E6ED";
paths = (
{
nodes = (
"404 784 LINE",
"22 784 LINE",
"22 656 LINE",
"269 656 LINE",
"64 0 LINE",
"205 0 LINE",
"217 35 OFFCURVE",
"231 73 OFFCURVE",
"240 108 CURVE",
"240 107 LINE",
"308 311 OFFCURVE",
"438 693 OFFCURVE",
"410 779 CURVE"
);
}
);
width = 432;
}
);
unicode = 0037;
},
{
glyphname = eight;
layers = (
{
hints = (
{
horizontal = 1;
place = "{0, 133}";
type = Stem;
},
{
horizontal = 1;
place = "{344, 135}";
type = Stem;
},
{
horizontal = 1;
place = "{658, 126}";
type = Stem;
},
{
place = "{25, 136}";
type = Stem;
},
{
place = "{313, 135}";
type = Stem;
}
);
layerId = "6F6D0AFA-D4D5-4829-AF83-4D7A2EC0E6ED";
paths = (
{
nodes = (
"25 199 LINE SMOOTH",
"25 56 OFFCURVE",
"78 0 OFFCURVE",
"238 0 CURVE SMOOTH",
"434 0 OFFCURVE",
"448 84 OFFCURVE",
"448 238 CURVE SMOOTH",
"448 301 OFFCURVE",
"449 361 OFFCURVE",
"398 412 CURVE",
"435 448 OFFCURVE",
"448 498 OFFCURVE",
"448 546 CURVE SMOOTH",
"448 698 OFFCURVE",
"434 784 OFFCURVE",
"238 784 CURVE SMOOTH",
"78 784 OFFCURVE",
"25 725 OFFCURVE",
"25 584 CURVE SMOOTH",
"25 523 OFFCURVE",
"23 460 OFFCURVE",
"76 412 CURVE",
"36 374 OFFCURVE",
"25 324 OFFCURVE",
"25 275 CURVE SMOOTH",
"25 224 LINE"
);
},
{
nodes = (
"313 172 LINE",
"314 145 OFFCURVE",
"274 133 OFFCURVE",
"234 133 CURVE SMOOTH",
"197 133 OFFCURVE",
"161 144 OFFCURVE",
"161 172 CURVE SMOOTH",
"161 217 LINE SMOOTH",
"161 237 OFFCURVE",
"161 258 OFFCURVE",
"162 279 CURVE SMOOTH",
"163 300 OFFCURVE",
"165 314 OFFCURVE",
"169 319 CURVE SMOOTH",
"195 353 OFFCURVE",
"277 351 OFFCURVE",
"304 319 CURVE",
"313 310 OFFCURVE",
"313 257 OFFCURVE",
"313 217 CURVE SMOOTH"
);
},
{
nodes = (
"171 649 OFFCURVE",
"203 658 OFFCURVE",
"235 658 CURVE SMOOTH",
"272 658 OFFCURVE",
"312 646 OFFCURVE",
"312 622 CURVE SMOOTH",
"312 610 OFFCURVE",
"313 601 OFFCURVE",
"313 589 CURVE",
"314 564 OFFCURVE",
"316 541 OFFCURVE",
"308 514 CURVE",
"303 491 OFFCURVE",
"270 479 OFFCURVE",
"238 479 CURVE SMOOTH",
"210 479 OFFCURVE",
"185 487 OFFCURVE",
"173 499 CURVE SMOOTH",
"161 511 OFFCURVE",
"160 540 OFFCURVE",
"160 569 CURVE SMOOTH",
"160 593 OFFCURVE",
"161 617 OFFCURVE",
"162 630 CURVE"
);
}
);
width = 480;
}
);
unicode = 0038;
},
{
glyphname = nine;
layers = (
{
hints = (
{
horizontal = 1;
place = "{0, 128}";
type = Stem;
},
{
horizontal = 1;
place = "{308, 129}";
type = Stem;
},
{
horizontal = 1;
place = "{659, 125}";
type = Stem;
},
{
place = "{23, 131}";
type = Stem;
},
{
place = "{23, 135}";
type = Stem;
},
{
place = "{312, 133}";
type = Stem;
}
);
layerId = "6F6D0AFA-D4D5-4829-AF83-4D7A2EC0E6ED";
paths = (
{
nodes = (
"166 646 LINE",
"174 654 OFFCURVE",
"207 659 OFFCURVE",
"239 659 CURVE SMOOTH",
"267 659 OFFCURVE",
"297 655 OFFCURVE",
"302 646 CURVE",
"310 636 OFFCURVE",
"312 592 OFFCURVE",
"312 565 CURVE SMOOTH",
"312 546 LINE",
"312 523 LINE SMOOTH",
"312 497 OFFCURVE",
"310 457 OFFCURVE",
"305 448 CURVE",
"297 440 OFFCURVE",
"263 437 OFFCURVE",
"234 437 CURVE SMOOTH",
"202 437 OFFCURVE",
"170 440 OFFCURVE",
"163 448 CURVE",
"157 457 OFFCURVE",
"154 537 OFFCURVE",
"154 546 CURVE SMOOTH",
"154 558 LINE SMOOTH",
"154 591 OFFCURVE",
"152 634 OFFCURVE",
"164 646 CURVE"
);
},
{
nodes = (
"23 206 LINE",
"23 59 OFFCURVE",
"75 0 OFFCURVE",
"234 0 CURVE SMOOTH",
"445 0 OFFCURVE",
"444 101 OFFCURVE",
"444 241 CURVE SMOOTH",
"444 274 LINE",
"445 486 LINE",
"445 568 LINE SMOOTH",
"445 692 OFFCURVE",
"426 784 OFFCURVE",
"234 784 CURVE SMOOTH",
"75 784 OFFCURVE",
"23 725 OFFCURVE",
"23 586 CURVE SMOOTH",
"23 558 LINE SMOOTH",
"23 414 OFFCURVE",
"21 308 OFFCURVE",
"234 308 CURVE SMOOTH",
"259 308 OFFCURVE",
"283 309 OFFCURVE",
"311 314 CURVE",
"311 304 LINE SMOOTH",
"311 253 OFFCURVE",
"312 152 OFFCURVE",
"305 138 CURVE",
"298 131 OFFCURVE",
"272 128 OFFCURVE",
"244 128 CURVE SMOOTH",
"209 128 OFFCURVE",
"166 132 OFFCURVE",
"163 138 CURVE SMOOTH",
"161 142 OFFCURVE",
"160 152 OFFCURVE",
"159 167 CURVE SMOOTH",
"158 182 OFFCURVE",
"158 194 OFFCURVE",
"158 203 CURVE"
);
}
);
width = 472;
}
);
unicode = 0039;
},
{
glyphname = colon;
layers = (
{
hints = (
{
horizontal = 1;
place = "{0, 128}";
type = Stem;
},
{
horizontal = 1;
place = "{643, 130}";
type = Stem;
},
{
place = "{14, 135}";
type = Stem;
},
{
place = "{17, 134}";
type = Stem;
}
);
layerId = "6F6D0AFA-D4D5-4829-AF83-4D7A2EC0E6ED";
paths = (
{
nodes = (
"35 128 OFFCURVE",
"17 108 OFFCURVE",
"17 64 CURVE SMOOTH",
"17 20 OFFCURVE",
"36 0 OFFCURVE",
"83 0 CURVE SMOOTH",
"128 0 OFFCURVE",
"151 21 OFFCURVE",
"151 64 CURVE SMOOTH",
"151 109 OFFCURVE",
"132 128 OFFCURVE",
"83 128 CURVE SMOOTH"
);
},
{
nodes = (
"31 773 OFFCURVE",
"14 751 OFFCURVE",
"14 708 CURVE SMOOTH",
"14 663 OFFCURVE",
"34 643 OFFCURVE",
"82 643 CURVE SMOOTH",
"127 643 OFFCURVE",
"149 665 OFFCURVE",
"149 708 CURVE SMOOTH",
"149 753 OFFCURVE",
"130 773 OFFCURVE",
"82 773 CURVE SMOOTH"
);
}
);
width = 164;
}
);
unicode = 003A;
},
{
glyphname = semicolon;
layers = (
{
hints = (
{
horizontal = 1;
place = "{643, 130}";
type = Stem;
},
{
place = "{14, 135}";
type = Stem;
}
);
layerId = "6F6D0AFA-D4D5-4829-AF83-4D7A2EC0E6ED";
paths = (
{
nodes = (
"31 773 OFFCURVE",
"14 751 OFFCURVE",
"14 708 CURVE SMOOTH",
"14 663 OFFCURVE",
"34 643 OFFCURVE",
"82 643 CURVE SMOOTH",
"127 643 OFFCURVE",
"149 665 OFFCURVE",
"149 708 CURVE SMOOTH",
"149 753 OFFCURVE",
"130 773 OFFCURVE",
"82 773 CURVE SMOOTH"
);
},
{
nodes = (
"59 -83 LINE",
"111 -46 OFFCURVE",
"157 7 OFFCURVE",
"150 68 CURVE SMOOTH",
"145 112 OFFCURVE",
"117 127 OFFCURVE",
"88 127 CURVE SMOOTH",
"47 127 OFFCURVE",
"1 94 OFFCURVE",
"12 53 CURVE SMOOTH",
"15 41 OFFCURVE",
"18 37 OFFCURVE",
"25 30 CURVE",
"25 31 LINE",
"31 22 LINE SMOOTH",
"39 10 OFFCURVE",
"43 -5 OFFCURVE",
"43 -23 CURVE SMOOTH",
"43 -38 OFFCURVE",
"36 -51 OFFCURVE",
"22 -60 CURVE"
);
}
);
width = 164;
}
);
unicode = 003B;
},
{
glyphname = less;
layers = (
{
hints = (
{
horizontal = 1;
place = "{140, 464}";
type = Stem;
},
{
place = "{29, 315}";
type = Stem;
}
);
layerId = "6F6D0AFA-D4D5-4829-AF83-4D7A2EC0E6ED";
paths = (
{
nodes = (
"29 428 LINE",
"29 318 LINE",
"341 140 LINE",
"340 258 LINE",
"124 373 LINE",
"343 488 LINE",
"344 604 LINE"
);
}
);
width = 377;
}
);
unicode = 003C;
},
{
glyphname = equal;
layers = (
{
hints = (
{
horizontal = 1;
place = "{242, 98}";
type = Stem;
},
{
horizontal = 1;
place = "{408, 97}";
type = Stem;
},
{
place = "{29, 351}";
type = Stem;
}
);
layerId = "6F6D0AFA-D4D5-4829-AF83-4D7A2EC0E6ED";
paths = (
{
nodes = (
"29 505 LINE",
"29 408 LINE",
"379 408 LINE",
"379 505 LINE"
);
},
{
nodes = (
"380 340 LINE",
"30 340 LINE",
"30 242 LINE",
"380 242 LINE"
);
}
);
width = 404;
}
);
unicode = 003D;
},
{
glyphname = greater;
layers = (
{
hints = (
{
horizontal = 1;
place = "{134, 474}";
type = Stem;
},
{
place = "{30, 317}";
type = Stem;
}
);
layerId = "6F6D0AFA-D4D5-4829-AF83-4D7A2EC0E6ED";
paths = (
{
nodes = (
"30 608 LINE",
"31 491 LINE",
"252 372 LINE",
"35 254 LINE",
"34 134 LINE",
"347 316 LINE",
"347 430 LINE"
);
}
);
width = 377;
}
);
unicode = 003E;
},
{
glyphname = question;
layers = (
{
hints = (
{
horizontal = 1;
place = "{0, 127}";
type = Stem;
},
{
horizontal = 1;
place = "{653, 128}";
type = Stem;
},
{
place = "{13, 136}";
type = Stem;
},
{
place = "{126, 134}";
type = Stem;
},
{
place = "{302, 134}";
type = Stem;
}
);
layerId = "6F6D0AFA-D4D5-4829-AF83-4D7A2EC0E6ED";
paths = (
{
nodes = (
"260 106 OFFCURVE",
"238 127 OFFCURVE",
"193 127 CURVE SMOOTH",
"148 127 OFFCURVE",
"126 106 OFFCURVE",
"126 64 CURVE SMOOTH",
"126 17 OFFCURVE",
"145 0 OFFCURVE",
"193 0 CURVE SMOOTH",
"241 0 OFFCURVE",
"260 17 OFFCURVE",
"260 64 CURVE SMOOTH"
);
},
{
nodes = (
"260 192 LINE",
"260 305 OFFCURVE",
"293 313 OFFCURVE",
"328 323 CURVE SMOOTH",
"378 336 OFFCURVE",
"436 358 OFFCURVE",
"436 583 CURVE SMOOTH",
"436 722 OFFCURVE",
"385 781 OFFCURVE",
"226 781 CURVE SMOOTH",
"66 781 OFFCURVE",
"13 721 OFFCURVE",
"13 577 CURVE",
"149 577 LINE",
"149 590 LINE SMOOTH",
"149 610 OFFCURVE",
"150 639 OFFCURVE",
"155 643 CURVE",
"158 650 OFFCURVE",
"196 653 OFFCURVE",
"233 653 CURVE SMOOTH",
"264 653 OFFCURVE",
"291 651 OFFCURVE",
"295 644 CURVE SMOOTH",
"300 633 OFFCURVE",
"302 593 OFFCURVE",
"302 553 CURVE SMOOTH",
"302 525 OFFCURVE",
"301 490 OFFCURVE",
"300 478 CURVE SMOOTH",
"297 450 OFFCURVE",
"276 441 OFFCURVE",
"248 428 CURVE SMOOTH",
"197 404 OFFCURVE",
"126 371 OFFCURVE",
"126 192 CURVE"
);
}
);
width = 456;
}
);
unicode = 003F;
},
{
glyphname = at;
layers = (
{
hints = (
{
horizontal = 1;
place = "{17, 87}";
type = Stem;
},
{
horizontal = 1;
place = "{175, 89}";
type = Stem;
},
{
horizontal = 1;
place = "{508, 88}";
type = Stem;
},
{
horizontal = 1;
place = "{658, 86}";
type = Stem;
},
{
place = "{23, 91}";
type = Stem;
},
{
place = "{166, 118}";
type = Stem;
},
{
place = "{665, 89}";
type = Stem;
}
);
layerId = "6F6D0AFA-D4D5-4829-AF83-4D7A2EC0E6ED";
paths = (
{
nodes = (
"676 203 LINE",
"672 199 LINE",
"649 168 OFFCURVE",
"616 145 OFFCURVE",
"574 130 CURVE SMOOTH",
"531 114 OFFCURVE",
"482 104 OFFCURVE",
"422 104 CURVE SMOOTH",
"363 104 OFFCURVE",
"309 114 OFFCURVE",
"260 134 CURVE SMOOTH",
"215 153 OFFCURVE",
"179 182 OFFCURVE",
"152 221 CURVE",
"101 304 OFFCURVE",
"102 409 OFFCURVE",
"149 508 CURVE SMOOTH",
"193 600 OFFCURVE",
"290 657 OFFCURVE",
"419 658 CURVE",
"495 658 OFFCURVE",
"556 638 OFFCURVE",
"601 599 CURVE",
"644 559 OFFCURVE",
"665 511 OFFCURVE",
"665 455 CURVE SMOOTH",
"665 422 OFFCURVE",
"657 391 OFFCURVE",
"640 362 CURVE",
"625 332 OFFCURVE",
"606 308 OFFCURVE",
"582 290 CURVE SMOOTH",
"559 273 OFFCURVE",
"549 271 OFFCURVE",
"542 271 CURVE",
"540 272 LINE",
"539 272 OFFCURVE",
"539 275 OFFCURVE",
"539 280 CURVE",
"539 281 OFFCURVE",
"539 287 OFFCURVE",
"544 310 CURVE SMOOTH",
"602 584 LINE",
"481 584 LINE",
"475 558 LINE",
"451 582 OFFCURVE",
"423 596 OFFCURVE",
"380 596 CURVE SMOOTH",
"315 596 OFFCURVE",
"260 565 OFFCURVE",
"217 504 CURVE",
"185 453 OFFCURVE",
"166 399 OFFCURVE",
"166 338 CURVE SMOOTH",
"166 289 OFFCURVE",
"181 249 OFFCURVE",
"210 220 CURVE SMOOTH",
"241 190 OFFCURVE",
"279 175 OFFCURVE",
"322 175 CURVE SMOOTH",
"357 175 OFFCURVE",
"389 186 OFFCURVE",
"419 209 CURVE",
"438 187 LINE",
"453 179 OFFCURVE",
"471 175 OFFCURVE",
"493 175 CURVE SMOOTH",
"574 175 OFFCURVE",
"639 208 OFFCURVE",
"690 274 CURVE SMOOTH",
"731 326 OFFCURVE",
"754 386 OFFCURVE",
"754 450 CURVE SMOOTH",
"754 503 OFFCURVE",
"740 554 OFFCURVE",
"713 601 CURVE",
"685 646 OFFCURVE",
"648 683 OFFCURVE",
"596 707 CURVE",
"546 732 OFFCURVE",
"488 744 OFFCURVE",
"421 744 CURVE SMOOTH",
"346 744 OFFCURVE",
"278 729 OFFCURVE",
"217 698 CURVE",
"157 670 OFFCURVE",
"110 621 OFFCURVE",
"77 560 CURVE",
"41 500 OFFCURVE",
"23 435 OFFCURVE",
"23 364 CURVE SMOOTH",
"23 300 OFFCURVE",
"40 240 OFFCURVE",
"68 184 CURVE",
"99 129 OFFCURVE",
"145 86 OFFCURVE",
"209 59 CURVE",
"269 30 OFFCURVE",
"343 17 OFFCURVE",
"428 17 CURVE SMOOTH",
"516 17 OFFCURVE",
"591 33 OFFCURVE",
"652 66 CURVE SMOOTH",
"707 95 OFFCURVE",
"747 136 OFFCURVE",
"772 188 CURVE",
"781 203 LINE"
);
},
{
nodes = (
"394 285 OFFCURVE",
"386 277 OFFCURVE",
"377 272 CURVE",
"376 272 LINE",
"364 264 OFFCURVE",
"355 264 OFFCURVE",
"342 264 CURVE SMOOTH",
"327 264 OFFCURVE",
"313 270 OFFCURVE",
"302 281 CURVE SMOOTH",
"290 293 OFFCURVE",
"284 314 OFFCURVE",
"284 344 CURVE SMOOTH",
"284 365 OFFCURVE",
"289 391 OFFCURVE",
"299 422 CURVE SMOOTH",
"307 449 OFFCURVE",
"319 470 OFFCURVE",
"336 485 CURVE SMOOTH",
"353 501 OFFCURVE",
"372 508 OFFCURVE",
"389 508 CURVE SMOOTH",
"406 508 OFFCURVE",
"421 501 OFFCURVE",
"432 488 CURVE SMOOTH",
"443 476 OFFCURVE",
"448 456 OFFCURVE",
"448 432 CURVE SMOOTH",
"448 407 OFFCURVE",
"443 381 OFFCURVE",
"434 355 CURVE",
"426 327 OFFCURVE",
"415 309 OFFCURVE",
"402 294 CURVE SMOOTH"
);
}
);
width = 791;
}
);
unicode = 0040;
},
{
glyphname = A;
layers = (
{
hints = (
{
horizontal = 1;
place = "{0, 21}";
target = up;
type = BottomGhost;
},
{
horizontal = 1;
place = "{154, 126}";
type = Stem;
},
{
horizontal = 1;
place = "{779, -20}";
target = down;
type = TopGhost;
},
{
place = "{10, 133}";
type = Stem;
},
{
place = "{295, 135}";
type = Stem;
}
);
layerId = "6F6D0AFA-D4D5-4829-AF83-4D7A2EC0E6ED";
paths = (
{
nodes = (
"430 0 LINE",
"430 167 LINE SMOOTH",
"430 384 OFFCURVE",
"413 580 OFFCURVE",
"262 779 CURVE",
"175 779 LINE",
"26 580 OFFCURVE",
"10 385 OFFCURVE",
"10 167 CURVE SMOOTH",
"10 0 LINE",
"143 0 LINE",
"143 154 LINE",
"295 154 LINE",
"295 0 LINE"
);
},
{
nodes = (
"143 280 LINE",
"147 392 OFFCURVE",
"170 504 OFFCURVE",
"218 605 CURVE",
"264 508 OFFCURVE",
"289 385 OFFCURVE",
"294 280 CURVE"
);
}
);
width = 444;
}
);
unicode = 0041;
},
{
glyphname = B;
layers = (
{
hints = (
{
horizontal = 1;
place = "{-1, 127}";
type = Stem;
},
{
horizontal = 1;
place = "{346, 124}";
type = Stem;
},
{
horizontal = 1;
place = "{652, 128}";
type = Stem;
},
{
place = "{34, 135}";
type = Stem;
},
{
place = "{319, 136}";
type = Stem;
},
{
place = "{323, 131}";
type = Stem;
}
);
layerId = "6F6D0AFA-D4D5-4829-AF83-4D7A2EC0E6ED";
paths = (
{
nodes = (
"441 745 OFFCURVE",
"312 780 OFFCURVE",
"162 780 CURVE SMOOTH",
"104 780 LINE SMOOTH",
"84 780 OFFCURVE",
"55 779 OFFCURVE",
"34 779 CURVE",
"34 0 LINE",
"62 0 OFFCURVE",
"94 -1 OFFCURVE",
"121 -1 CURVE SMOOTH",
"180 -1 LINE SMOOTH",
"363 -1 OFFCURVE",
"455 19 OFFCURVE",
"455 236 CURVE SMOOTH",
"455 297 OFFCURVE",
"453 361 OFFCURVE",
"403 409 CURVE",
"446 452 OFFCURVE",
"454 528 OFFCURVE",
"454 581 CURVE"
);
},
{
nodes = (
"168 344 LINE",
"182 344 LINE SMOOTH",
"194 344 OFFCURVE",
"205 346 OFFCURVE",
"217 346 CURVE SMOOTH",
"260 346 OFFCURVE",
"311 340 OFFCURVE",
"313 313 CURVE",
"317 290 OFFCURVE",
"319 264 OFFCURVE",
"319 239 CURVE SMOOTH",
"319 202 OFFCURVE",
"315 167 OFFCURVE",
"299 150 CURVE SMOOTH",
"279 130 OFFCURVE",
"234 126 OFFCURVE",
"199 126 CURVE SMOOTH",
"187 126 OFFCURVE",
"177 127 OFFCURVE",
"170 127 CURVE"
);
},
{
nodes = (
"295 635 LINE",
"312 628 OFFCURVE",
"323 597 OFFCURVE",
"323 564 CURVE SMOOTH",
"323 525 OFFCURVE",
"309 487 OFFCURVE",
"280 479 CURVE SMOOTH",
"248 470 OFFCURVE",
"221 469 OFFCURVE",
"193 470 CURVE",
"185 470 OFFCURVE",
"177 472 OFFCURVE",
"168 472 CURVE",
"168 652 LINE",
"179 652 LINE SMOOTH",
"218 652 OFFCURVE",
"269 653 OFFCURVE",
"294 636 CURVE"
);
}
);
width = 491;
}
);
unicode = 0042;
},
{
glyphname = C;
layers = (
{
hints = (
{
horizontal = 1;
place = "{0, 132}";
type = Stem;
},
{
horizontal = 1;
place = "{652, 127}";
type = Stem;
},
{
place = "{32, 135}";
type = Stem;
},
{
place = "{319, 133}";
type = Stem;
}
);
layerId = "6F6D0AFA-D4D5-4829-AF83-4D7A2EC0E6ED";
paths = (
{
nodes = (
"319 242 LINE",
"319 226 LINE",
"320 215 OFFCURVE",
"322 203 OFFCURVE",
"322 191 CURVE SMOOTH",
"322 168 OFFCURVE",
"319 144 OFFCURVE",
"306 140 CURVE SMOOTH",
"291 135 OFFCURVE",
"273 132 OFFCURVE",
"252 132 CURVE SMOOTH",
"212 132 OFFCURVE",
"171 144 OFFCURVE",
"168 172 CURVE",
"167 208 OFFCURVE",
"167 240 OFFCURVE",
"167 269 CURVE SMOOTH",
"167 349 LINE",
"167 581 LINE SMOOTH",
"167 649 OFFCURVE",
"165 652 OFFCURVE",
"242 652 CURVE SMOOTH",
"319 652 OFFCURVE",
"319 645 OFFCURVE",
"319 575 CURVE",
"452 575 LINE",
"452 719 OFFCURVE",
"402 779 OFFCURVE",
"242 779 CURVE SMOOTH",
"84 779 OFFCURVE",
"32 720 OFFCURVE",
"32 581 CURVE SMOOTH",
"32 198 LINE SMOOTH",
"32 57 OFFCURVE",
"84 0 OFFCURVE",
"242 0 CURVE SMOOTH",
"440 0 OFFCURVE",
"452 88 OFFCURVE",
"452 242 CURVE"
);
}
);
width = 487;
}
);
unicode = 0043;
},
{
glyphname = D;
layers = (
{
hints = (
{
horizontal = 1;
place = "{0, 127}";
type = Stem;
},
{
horizontal = 1;
place = "{653, 126}";
type = Stem;
},
{
place = "{34, 134}";
type = Stem;
},
{
place = "{320, 134}";
type = Stem;
}
);
layerId = "6F6D0AFA-D4D5-4829-AF83-4D7A2EC0E6ED";
paths = (
{
nodes = (
"34 0 LINE",
"152 0 LINE SMOOTH",
"316 0 OFFCURVE",
"454 18 OFFCURVE",
"454 218 CURVE SMOOTH",
"454 577 LINE SMOOTH",
"454 717 OFFCURVE",
"401 779 OFFCURVE",
"244 779 CURVE SMOOTH",
"34 779 LINE"
);
},
{
nodes = (
"168 653 LINE",
"193 653 LINE SMOOTH",
"281 653 OFFCURVE",
"320 655 OFFCURVE",
"320 565 CURVE SMOOTH",
"320 223 LINE SMOOTH",
"320 131 OFFCURVE",
"277 127 OFFCURVE",
"168 127 CURVE"
);
}
);
width = 487;
}
);
unicode = 0044;
},
{
glyphname = E;
layers = (
{
hints = (
{
horizontal = 1;
place = "{0, 127}";
type = Stem;
},
{
horizontal = 1;
place = "{344, 128}";
type = Stem;
},
{
horizontal = 1;
place = "{653, 126}";
type = Stem;
},
{
place = "{35, 134}";
type = Stem;
}
);
layerId = "6F6D0AFA-D4D5-4829-AF83-4D7A2EC0E6ED";
paths = (
{
nodes = (
"414 127 LINE",
"169 127 LINE",
"169 344 LINE",
"342 344 LINE",
"342 472 LINE",
"169 472 LINE",
"169 653 LINE",
"414 653 LINE",
"414 779 LINE",
"35 779 LINE",
"35 0 LINE",
"414 0 LINE"
);
}
);
width = 449;
}
);
unicode = 0045;
},
{
glyphname = F;
layers = (
{
hints = (
{
horizontal = 1;
place = "{0, 21}";
target = up;
type = BottomGhost;
},
{
horizontal = 1;
place = "{344, 128}";
type = Stem;
},
{
horizontal = 1;
place = "{653, 126}";
type = Stem;
},
{
place = "{36, 134}";
type = Stem;
}
);
layerId = "6F6D0AFA-D4D5-4829-AF83-4D7A2EC0E6ED";
paths = (
{
nodes = (
"415 779 LINE",
"36 779 LINE",
"36 0 LINE",
"170 0 LINE",
"170 344 LINE",
"343 344 LINE",
"343 472 LINE",
"170 472 LINE",
"170 653 LINE",
"415 653 LINE"
);
}
);
width = 444;
}
);
unicode = 0046;
},
{
glyphname = G;
layers = (
{
hints = (
{
horizontal = 1;
place = "{0, 127}";
type = Stem;
},
{
horizontal = 1;
place = "{307, 127}";
type = Stem;
},
{
horizontal = 1;
place = "{653, 126}";
type = Stem;
},
{
place = "{29, 133}";
type = Stem;
},
{
place = "{309, 139}";
type = Stem;
},
{
place = "{314, 135}";
type = Stem;
}
);
layerId = "6F6D0AFA-D4D5-4829-AF83-4D7A2EC0E6ED";
paths = (
{
nodes = (
"449 576 LINE",
"449 720 OFFCURVE",
"395 779 OFFCURVE",
"239 779 CURVE SMOOTH",
"79 779 OFFCURVE",
"29 722 OFFCURVE",
"29 582 CURVE SMOOTH",
"29 198 LINE SMOOTH",
"29 57 OFFCURVE",
"79 0 OFFCURVE",
"239 0 CURVE SMOOTH",
"435 0 OFFCURVE",
"449 108 OFFCURVE",
"449 294 CURVE SMOOTH",
"449 434 LINE",
"204 434 LINE",
"204 307 LINE",
"314 307 LINE",
"314 240 LINE SMOOTH",
"314 165 OFFCURVE",
"309 124 OFFCURVE",
"250 127 CURVE SMOOTH",
"188 130 OFFCURVE",
"162 131 OFFCURVE",
"162 198 CURVE SMOOTH",
"162 582 LINE SMOOTH",
"162 650 OFFCURVE",
"184 653 OFFCURVE",
"239 653 CURVE SMOOTH",
"276 653 LINE SMOOTH",
"303 653 OFFCURVE",
"304 641 OFFCURVE",
"308 608 CURVE",
"311 576 LINE"
);
}
);
width = 482;
}
);
unicode = 0047;
},
{
glyphname = H;
layers = (
{
hints = (
{
horizontal = 1;
place = "{0, 21}";
target = up;
type = BottomGhost;
},
{
horizontal = 1;
place = "{344, 129}";
type = Stem;
},
{
horizontal = 1;
place = "{779, -20}";
target = down;
type = TopGhost;
},
{
place = "{34, 134}";
type = Stem;
},
{
place = "{320, 132}";
type = Stem;
}
);
layerId = "6F6D0AFA-D4D5-4829-AF83-4D7A2EC0E6ED";
paths = (
{
nodes = (
"452 779 LINE",
"320 779 LINE",
"320 473 LINE",
"168 473 LINE",
"168 779 LINE",
"34 779 LINE",
"34 0 LINE",
"168 0 LINE",
"168 344 LINE",
"320 344 LINE",
"320 0 LINE",
"452 0 LINE"
);
}
);
width = 496;
}
);
unicode = 0048;
},
{
glyphname = I;
layers = (
{
hints = (
{
horizontal = 1;
place = "{0, 21}";
target = up;
type = BottomGhost;
},
{
place = "{34, 135}";
type = Stem;
}
);
layerId = "6F6D0AFA-D4D5-4829-AF83-4D7A2EC0E6ED";
paths = (
{
nodes = (
"34 0 LINE",
"169 0 LINE",
"169 776 LINE",
"34 776 LINE"
);
}
);
width = 203;
}
);
unicode = 0049;
},
{
glyphname = J;
layers = (
{
hints = (
{
horizontal = 1;
place = "{0, 127}";
type = Stem;
},
{
horizontal = 1;
place = "{778, -20}";
target = down;
type = TopGhost;
},
{
place = "{143, 134}";
type = Stem;
}
);
layerId = "6F6D0AFA-D4D5-4829-AF83-4D7A2EC0E6ED";
paths = (
{
nodes = (
"20 0 LINE",
"198 0 OFFCURVE",
"277 34 OFFCURVE",
"277 206 CURVE SMOOTH",
"277 778 LINE",
"143 778 LINE",
"143 217 LINE SMOOTH",
"143 132 OFFCURVE",
"126 127 OFFCURVE",
"20 127 CURVE"
);
}
);
width = 322;
}
);
unicode = 004A;
},
{
glyphname = K;
layers = (
{
hints = (
{
horizontal = 1;
place = "{0, 21}";
target = up;
type = BottomGhost;
},
{
horizontal = 1;
place = "{779, -20}";
target = down;
type = TopGhost;
},
{
place = "{37, 135}";
type = Stem;
}
);
layerId = "6F6D0AFA-D4D5-4829-AF83-4D7A2EC0E6ED";
paths = (
{
nodes = (
"325 779 LINE",
"306 672 OFFCURVE",
"267 544 OFFCURVE",
"172 478 CURVE",
"172 779 LINE",
"37 779 LINE",
"37 0 LINE",
"172 0 LINE",
"172 302 LINE",
"266 237 OFFCURVE",
"306 106 OFFCURVE",
"325 0 CURVE",
"458 0 LINE",
"437 144 OFFCURVE",
"389 293 OFFCURVE",
"271 390 CURVE",
"391 486 OFFCURVE",
"437 638 OFFCURVE",
"458 779 CURVE"
);
}
);
width = 484;
}
);
unicode = 004B;
},
{
glyphname = L;
layers = (
{
hints = (
{
horizontal = 1;
place = "{0, 127}";
type = Stem;
},
{
horizontal = 1;
place = "{779, -20}";
target = down;
type = TopGhost;
},
{
place = "{38, 136}";
type = Stem;
}
);
layerId = "6F6D0AFA-D4D5-4829-AF83-4D7A2EC0E6ED";
paths = (
{
nodes = (
"368 127 LINE",
"174 127 LINE",
"174 779 LINE",
"38 779 LINE",
"38 0 LINE",
"368 0 LINE"
);
}
);
width = 380;
}
);
unicode = 004C;
},
{
glyphname = M;
layers = (
{
hints = (
{
horizontal = 1;
place = "{0, 21}";
target = up;
type = BottomGhost;
},
{
place = "{37, 135}";
type = Stem;
},
{
place = "{488, 135}";
type = Stem;
}
);
layerId = "6F6D0AFA-D4D5-4829-AF83-4D7A2EC0E6ED";
paths = (
{
nodes = (
"623 784 LINE",
"490 784 LINE",
"329 408 LINE",
"170 784 LINE",
"37 784 LINE",
"37 0 LINE",
"172 0 LINE",
"172 436 LINE",
"282 176 LINE",
"377 176 LINE",
"488 436 LINE",
"488 0 LINE",
"623 0 LINE"
);
}
);
width = 659;
}
);
unicode = 004D;
},
{
glyphname = N;
layers = (
{
hints = (
{
horizontal = 1;
place = "{0, 21}";
target = up;
type = BottomGhost;
},
{
horizontal = 1;
place = "{779, -20}";
target = down;
type = TopGhost;
},
{
place = "{35, 133}";
type = Stem;
},
{
place = "{360, 136}";
type = Stem;
}
);
layerId = "6F6D0AFA-D4D5-4829-AF83-4D7A2EC0E6ED";
paths = (
{
nodes = (
"496 779 LINE",
"360 779 LINE",
"360 337 LINE",
"167 779 LINE",
"35 779 LINE",
"35 0 LINE",
"168 0 LINE",
"168 442 LINE",
"361 0 LINE",
"496 0 LINE"
);
}
);
width = 535;
}
);
unicode = 004E;
},
{
glyphname = O;
layers = (
{
hints = (
{
horizontal = 1;
place = "{0, 130}";
type = Stem;
},
{
horizontal = 1;
place = "{652, 127}";
type = Stem;
},
{
place = "{30, 134}";
type = Stem;
},
{
place = "{314, 135}";
type = Stem;
}
);
layerId = "6F6D0AFA-D4D5-4829-AF83-4D7A2EC0E6ED";
paths = (
{
nodes = (
"449 581 LINE SMOOTH",
"449 724 OFFCURVE",
"393 779 OFFCURVE",
"238 779 CURVE SMOOTH",
"86 779 OFFCURVE",
"30 724 OFFCURVE",
"30 581 CURVE SMOOTH",
"30 198 LINE SMOOTH",
"30 54 OFFCURVE",
"85 0 OFFCURVE",
"239 0 CURVE SMOOTH",
"430 0 OFFCURVE",
"449 80 OFFCURVE",
"449 236 CURVE SMOOTH"
);
},
{
nodes = (
"162 581 LINE",
"162 638 OFFCURVE",
"165 652 OFFCURVE",
"239 652 CURVE SMOOTH",
"310 652 OFFCURVE",
"314 649 OFFCURVE",
"314 581 CURVE SMOOTH",
"314 236 LINE SMOOTH",
"314 166 OFFCURVE",
"314 130 OFFCURVE",
"241 130 CURVE SMOOTH",
"173 130 OFFCURVE",
"164 149 OFFCURVE",
"164 230 CURVE"
);
}
);
width = 482;
}
);
unicode = 004F;
},
{
glyphname = P;
layers = (
{
hints = (
{
horizontal = 1;
place = "{0, 21}";
target = up;
type = BottomGhost;
},
{
horizontal = 1;
place = "{269, 126}";
type = Stem;
},
{
horizontal = 1;
place = "{652, 126}";
type = Stem;
},
{
place = "{32, 136}";
type = Stem;
},
{
place = "{323, 135}";
type = Stem;
}
);
layerId = "6F6D0AFA-D4D5-4829-AF83-4D7A2EC0E6ED";
paths = (
{
nodes = (
"168 269 LINE",
"346 269 OFFCURVE",
"456 269 OFFCURVE",
"456 466 CURVE SMOOTH",
"456 482 OFFCURVE",
"457 496 OFFCURVE",
"457 511 CURVE SMOOTH",
"457 528 OFFCURVE",
"458 547 OFFCURVE",
"458 564 CURVE SMOOTH",
"458 686 OFFCURVE",
"436 778 OFFCURVE",
"244 778 CURVE SMOOTH",
"32 778 LINE",
"32 0 LINE",
"168 0 LINE"
);
},
{
nodes = (
"168 652 LINE",
"202 652 LINE SMOOTH",
"263 652 OFFCURVE",
"326 656 OFFCURVE",
"323 570 CURVE",
"323 497 LINE",
"326 392 OFFCURVE",
"327 395 OFFCURVE",
"168 395 CURVE"
);
}
);
width = 486;
}
);
unicode = 0050;
},
{
glyphname = Q;
layers = (
{
hints = (
{
horizontal = 1;
place = "{-78, 21}";
target = up;
type = BottomGhost;
},
{
horizontal = 1;
place = "{0, 128}";
type = Stem;
},
{
horizontal = 1;
place = "{655, 124}";
type = Stem;
},
{
place = "{34, 134}";
type = Stem;
},
{
place = "{319, 135}";
type = Stem;
}
);
layerId = "6F6D0AFA-D4D5-4829-AF83-4D7A2EC0E6ED";
paths = (
{
nodes = (
"454 581 LINE SMOOTH",
"454 720 OFFCURVE",
"401 779 OFFCURVE",
"244 779 CURVE SMOOTH",
"84 779 OFFCURVE",
"34 720 OFFCURVE",
"34 581 CURVE SMOOTH",
"34 198 LINE SMOOTH",
"34 123 OFFCURVE",
"50 72 OFFCURVE",
"83 43 CURVE SMOOTH",
"116 14 OFFCURVE",
"167 0 OFFCURVE",
"234 0 CURVE SMOOTH",
"250 0 OFFCURVE",
"271 1 OFFCURVE",
"288 2 CURVE",
"347 -78 LINE",
"382 -55 OFFCURVE",
"426 -28 OFFCURVE",
"458 -5 CURVE",
"440 20 LINE SMOOTH",
"432 32 OFFCURVE",
"423 46 OFFCURVE",
"415 54 CURVE",
"455 101 OFFCURVE",
"454 161 OFFCURVE",
"454 217 CURVE SMOOTH"
);
},
{
nodes = (
"165 128 OFFCURVE",
"168 163 OFFCURVE",
"168 196 CURVE SMOOTH",
"168 606 LINE SMOOTH",
"168 639 OFFCURVE",
"203 655 OFFCURVE",
"240 655 CURVE SMOOTH",
"279 655 OFFCURVE",
"319 638 OFFCURVE",
"319 606 CURVE SMOOTH",
"319 226 LINE SMOOTH",
"319 165 OFFCURVE",
"319 133 OFFCURVE",
"256 128 CURVE"
);
}
);
width = 492;
}
);
unicode = 0051;
},
{
glyphname = R;
layers = (
{
hints = (
{
horizontal = 1;
place = "{0, 21}";
target = up;
type = BottomGhost;
},
{
horizontal = 1;
place = "{269, 126}";
type = Stem;
},
{
horizontal = 1;
place = "{653, 126}";
type = Stem;
},
{
place = "{37, 135}";
type = Stem;
},
{
place = "{325, 134}";
type = Stem;
}
);
layerId = "6F6D0AFA-D4D5-4829-AF83-4D7A2EC0E6ED";
paths = (
{
nodes = (
"461 0 LINE",
"350 282 LINE",
"402 297 OFFCURVE",
"429 327 OFFCURVE",
"444 364 CURVE SMOOTH",
"451 383 OFFCURVE",
"456 403 OFFCURVE",
"458 425 CURVE SMOOTH",
"460 447 OFFCURVE",
"460 487 OFFCURVE",
"459 546 CURVE SMOOTH",
"458 605 OFFCURVE",
"454 646 OFFCURVE",
"447 671 CURVE SMOOTH",
"440 696 OFFCURVE",
"429 716 OFFCURVE",
"413 732 CURVE SMOOTH",
"381 764 OFFCURVE",
"327 779 OFFCURVE",
"248 779 CURVE SMOOTH",
"37 779 LINE",
"37 0 LINE",
"172 0 LINE",
"172 269 LINE",
"211 269 LINE",
"317 0 LINE"
);
},
{
nodes = (
"172 653 LINE",
"248 653 LINE SMOOTH",
"275 653 OFFCURVE",
"294 646 OFFCURVE",
"306 633 CURVE SMOOTH",
"319 620 OFFCURVE",
"325 588 OFFCURVE",
"325 538 CURVE",
"326 489 OFFCURVE",
"325 457 OFFCURVE",
"324 444 CURVE SMOOTH",
"322 403 OFFCURVE",
"286 395 OFFCURVE",
"172 395 CURVE"
);
}
);
width = 492;
}
);
unicode = 0052;
},
{
glyphname = S;
layers = (
{
hints = (
{
horizontal = 1;
place = "{0, 127}";
type = Stem;
},
{
horizontal = 1;
place = "{344, 128}";
type = Stem;
},
{
horizontal = 1;
place = "{652, 126}";
type = Stem;
},
{
place = "{30, 133}";
type = Stem;
},
{
place = "{316, 134}";
type = Stem;
}
);
layerId = "6F6D0AFA-D4D5-4829-AF83-4D7A2EC0E6ED";
paths = (
{
nodes = (
"30 242 LINE",
"30 88 OFFCURVE",
"43 0 OFFCURVE",
"240 0 CURVE SMOOTH",
"398 0 OFFCURVE",
"450 57 OFFCURVE",
"450 198 CURVE SMOOTH",
"450 224 LINE SMOOTH",
"450 368 OFFCURVE",
"451 472 OFFCURVE",
"240 472 CURVE SMOOTH",
"230 472 OFFCURVE",
"172 473 OFFCURVE",
"169 484 CURVE",
"161 505 OFFCURVE",
"162 534 OFFCURVE",
"163 562 CURVE",
"163 581 LINE SMOOTH",
"163 648 OFFCURVE",
"165 652 OFFCURVE",
"240 652 CURVE SMOOTH",
"317 652 OFFCURVE",
"316 645 OFFCURVE",
"316 575 CURVE",
"450 575 LINE",
"450 719 OFFCURVE",
"396 778 OFFCURVE",
"240 778 CURVE SMOOTH",
"82 778 OFFCURVE",
"30 721 OFFCURVE",
"30 581 CURVE SMOOTH",
"30 430 OFFCURVE",
"43 344 OFFCURVE",
"240 344 CURVE SMOOTH",
"245 344 LINE SMOOTH",
"267 344 OFFCURVE",
"307 343 OFFCURVE",
"312 328 CURVE",
"319 296 OFFCURVE",
"318 261 OFFCURVE",
"317 230 CURVE",
"317 218 OFFCURVE",
"316 209 OFFCURVE",
"316 198 CURVE SMOOTH",
"316 185 LINE SMOOTH",
"316 135 OFFCURVE",
"314 130 OFFCURVE",
"251 127 CURVE",
"160 124 OFFCURVE",
"159 140 OFFCURVE",
"162 198 CURVE",
"162 211 OFFCURVE",
"163 229 OFFCURVE",
"163 242 CURVE"
);
}
);
width = 482;
}
);
unicode = 0053;
},
{
glyphname = T;
layers = (
{
hints = (
{
horizontal = 1;
place = "{0, 21}";
target = up;
type = BottomGhost;
},
{
horizontal = 1;
place = "{653, 126}";
type = Stem;
},
{
place = "{109, 133}";
type = Stem;
}
);
layerId = "6F6D0AFA-D4D5-4829-AF83-4D7A2EC0E6ED";
paths = (
{
nodes = (
"367 779 LINE",
"-16 779 LINE",
"-16 653 LINE",
"109 653 LINE",
"109 0 LINE",
"242 0 LINE",
"242 653 LINE",
"367 653 LINE"
);
}
);
width = 356;
}
);
unicode = 0054;
},
{
glyphname = U;
layers = (
{
hints = (
{
horizontal = 1;
place = "{0, 128}";
type = Stem;
},
{
horizontal = 1;
place = "{778, -20}";
target = down;
type = TopGhost;
},
{
place = "{30, 138}";
type = Stem;
},
{
place = "{317, 133}";
type = Stem;
}
);
layerId = "6F6D0AFA-D4D5-4829-AF83-4D7A2EC0E6ED";
paths = (
{
nodes = (
"30 778 LINE",
"30 198 LINE SMOOTH",
"30 57 OFFCURVE",
"82 0 OFFCURVE",
"240 0 CURVE SMOOTH",
"436 0 OFFCURVE",
"450 85 OFFCURVE",
"450 236 CURVE SMOOTH",
"450 778 LINE",
"317 778 LINE",
"317 759 OFFCURVE",
"316 552 OFFCURVE",
"314 157 CURVE",
"311 140 OFFCURVE",
"277 128 OFFCURVE",
"242 128 CURVE SMOOTH",
"210 128 OFFCURVE",
"180 137 OFFCURVE",
"172 150 CURVE",
"173 150 LINE",
"168 161 OFFCURVE",
"168 179 OFFCURVE",
"168 192 CURVE SMOOTH",
"168 198 LINE",
"164 778 LINE"
);
}
);
width = 481;
}
);
unicode = 0055;
},
{
glyphname = V;
layers = (
{
hints = (
{
horizontal = 1;
place = "{0, 21}";
target = up;
type = BottomGhost;
},
{
horizontal = 1;
place = "{778, -20}";
target = down;
type = TopGhost;
},
{
place = "{16, 130}";
type = Stem;
},
{
place = "{304, 132}";
type = Stem;
}
);
layerId = "6F6D0AFA-D4D5-4829-AF83-4D7A2EC0E6ED";
paths = (
{
nodes = (
"436 778 LINE",
"301 778 LINE",
"301 714 OFFCURVE",
"304 657 OFFCURVE",
"304 604 CURVE SMOOTH",
"304 455 OFFCURVE",
"293 313 OFFCURVE",
"226 174 CURVE",
"155 303 OFFCURVE",
"146 452 OFFCURVE",
"146 601 CURVE SMOOTH",
"146 630 OFFCURVE",
"148 659 OFFCURVE",
"148 688 CURVE SMOOTH",
"148 715 OFFCURVE",
"149 750 OFFCURVE",
"149 778 CURVE",
"16 778 LINE",
"16 605 LINE SMOOTH",
"16 391 OFFCURVE",
"29 193 OFFCURVE",
"182 0 CURVE",
"268 0 LINE",
"420 192 OFFCURVE",
"436 392 OFFCURVE",
"436 605 CURVE SMOOTH"
);
}
);
width = 460;
}
);
unicode = 0056;
},
{
glyphname = W;
layers = (
{
hints = (
{
horizontal = 1;
place = "{0, 21}";
target = up;
type = BottomGhost;
},
{
horizontal = 1;
place = "{779, -20}";
target = down;
type = TopGhost;
},
{
place = "{23, 132}";
type = Stem;
},
{
place = "{310, 129}";
type = Stem;
},
{
place = "{595, 132}";
type = Stem;
}
);
layerId = "6F6D0AFA-D4D5-4829-AF83-4D7A2EC0E6ED";
paths = (
{
nodes = (
"727 779 LINE",
"593 779 LINE",
"593 715 OFFCURVE",
"595 658 OFFCURVE",
"595 599 CURVE SMOOTH",
"595 451 OFFCURVE",
"585 305 OFFCURVE",
"518 174 CURVE",
"451 308 OFFCURVE",
"439 462 OFFCURVE",
"439 608 CURVE SMOOTH",
"439 664 OFFCURVE",
"442 715 OFFCURVE",
"442 779 CURVE",
"307 779 LINE",
"307 715 OFFCURVE",
"310 658 OFFCURVE",
"310 599 CURVE SMOOTH",
"310 450 OFFCURVE",
"301 310 OFFCURVE",
"232 175 CURVE",
"160 318 OFFCURVE",
"155 452 OFFCURVE",
"155 601 CURVE SMOOTH",
"155 653 OFFCURVE",
"157 713 OFFCURVE",
"157 779 CURVE",
"23 779 LINE",
"23 608 LINE SMOOTH",
"23 392 OFFCURVE",
"37 196 OFFCURVE",
"190 0 CURVE",
"276 0 LINE",
"317 55 OFFCURVE",
"350 112 OFFCURVE",
"374 168 CURVE",
"401 111 OFFCURVE",
"434 53 OFFCURVE",
"473 0 CURVE",
"562 0 LINE",
"712 198 OFFCURVE",
"727 393 OFFCURVE",
"727 612 CURVE SMOOTH"
);
}
);
width = 756;
}
);
unicode = 0057;
},
{
glyphname = X;
layers = (
{
hints = (
{
horizontal = 1;
place = "{0, 21}";
target = up;
type = BottomGhost;
},
{
horizontal = 1;
place = "{779, -20}";
target = down;
type = TopGhost;
},
{
place = "{29, 131}";
type = Stem;
},
{
place = "{316, 133}";
type = Stem;
}
);
layerId = "6F6D0AFA-D4D5-4829-AF83-4D7A2EC0E6ED";
paths = (
{
nodes = (
"449 0 LINE",
"449 90 LINE SMOOTH",
"449 204 OFFCURVE",
"441 293 OFFCURVE",
"336 390 CURVE",
"441 485 OFFCURVE",
"449 577 OFFCURVE",
"449 690 CURVE SMOOTH",
"449 779 LINE",
"314 779 LINE",
"314 762 OFFCURVE",
"316 741 OFFCURVE",
"316 722 CURVE SMOOTH",
"316 706 OFFCURVE",
"317 692 OFFCURVE",
"317 679 CURVE SMOOTH",
"317 604 OFFCURVE",
"307 537 OFFCURVE",
"238 478 CURVE",
"168 535 OFFCURVE",
"160 601 OFFCURVE",
"160 674 CURVE SMOOTH",
"160 690 OFFCURVE",
"161 704 OFFCURVE",
"161 720 CURVE SMOOTH",
"161 737 OFFCURVE",
"162 762 OFFCURVE",
"162 779 CURVE",
"29 779 LINE",
"29 690 LINE SMOOTH",
"29 576 OFFCURVE",
"36 486 OFFCURVE",
"140 390 CURVE",
"36 291 OFFCURVE",
"29 205 OFFCURVE",
"29 90 CURVE SMOOTH",
"29 0 LINE",
"162 0 LINE",
"162 19 OFFCURVE",
"161 43 OFFCURVE",
"161 60 CURVE SMOOTH",
"161 76 OFFCURVE",
"160 90 OFFCURVE",
"160 106 CURVE SMOOTH",
"160 181 OFFCURVE",
"168 239 OFFCURVE",
"238 301 CURVE",
"307 237 OFFCURVE",
"317 177 OFFCURVE",
"317 102 CURVE SMOOTH",
"317 89 OFFCURVE",
"316 75 OFFCURVE",
"316 59 CURVE SMOOTH",
"316 42 OFFCURVE",
"314 19 OFFCURVE",
"314 0 CURVE"
);
}
);
width = 480;
}
);
unicode = 0058;
},
{
glyphname = Y;
layers = (
{
hints = (
{
horizontal = 1;
place = "{0, 21}";
target = up;
type = BottomGhost;
},
{
horizontal = 1;
place = "{779, -20}";
target = down;
type = TopGhost;
},
{
place = "{20, 131}";
type = Stem;
},
{
place = "{162, 134}";
type = Stem;
},
{
place = "{308, 132}";
type = Stem;
}
);
layerId = "6F6D0AFA-D4D5-4829-AF83-4D7A2EC0E6ED";
paths = (
{
nodes = (
"440 779 LINE",
"306 779 LINE",
"306 738 OFFCURVE",
"308 701 OFFCURVE",
"308 672 CURVE SMOOTH",
"308 585 OFFCURVE",
"297 509 OFFCURVE",
"228 437 CURVE",
"164 506 OFFCURVE",
"151 584 OFFCURVE",
"151 664 CURVE SMOOTH",
"151 681 OFFCURVE",
"152 697 OFFCURVE",
"152 714 CURVE SMOOTH",
"152 733 OFFCURVE",
"154 758 OFFCURVE",
"154 779 CURVE",
"20 779 LINE",
"20 688 LINE SMOOTH",
"20 544 OFFCURVE",
"29 436 OFFCURVE",
"162 322 CURVE",
"162 0 LINE",
"296 0 LINE",
"296 322 LINE",
"428 436 OFFCURVE",
"440 544 OFFCURVE",
"440 688 CURVE SMOOTH"
);
}
);
width = 466;
}
);
unicode = 0059;
},
{
glyphname = Z;
layers = (
{
hints = (
{
horizontal = 1;
place = "{0, 127}";
type = Stem;
},
{
horizontal = 1;
place = "{653, 126}";
type = Stem;
},
{
place = "{26, 380}";
type = Stem;
}
);
layerId = "6F6D0AFA-D4D5-4829-AF83-4D7A2EC0E6ED";
paths = (
{
nodes = (
"406 127 LINE",
"174 127 LINE",
"404 650 LINE",
"406 779 LINE",
"26 779 LINE",
"26 653 LINE",
"259 653 LINE",
"26 128 LINE",
"26 0 LINE",
"406 0 LINE"
);
}
);
width = 439;
}
);
unicode = 005A;
},
{
glyphname = bracketleft;
layers = (
{
hints = (
{
horizontal = 1;
place = "{-167, 121}";
type = Stem;
},
{
horizontal = 1;
place = "{826, 111}";
type = Stem;
},
{
place = "{42, 133}";
type = Stem;
}
);
layerId = "6F6D0AFA-D4D5-4829-AF83-4D7A2EC0E6ED";
paths = (
{
nodes = (
"320 -167 LINE",
"320 -46 LINE",
"175 -46 LINE",
"176 826 LINE",
"322 826 LINE",
"322 937 LINE",
"43 937 LINE",
"42 -167 LINE"
);
}
);
width = 223;
}
);
unicode = 005B;
},
{
glyphname = backslash;
layers = (
{
hints = (
{
horizontal = 1;
place = "{0, 21}";
target = up;
type = BottomGhost;
},
{
place = "{23, 318}";
type = Stem;
}
);
layerId = "6F6D0AFA-D4D5-4829-AF83-4D7A2EC0E6ED";
paths = (
{
nodes = (
"247 0 LINE",
"341 0 LINE",
"112 772 LINE",
"23 770 LINE"
);
}
);
width = 348;
}
);
unicode = 005C;
},
{
glyphname = bracketright;
layers = (
{
hints = (
{
horizontal = 1;
place = "{-169, 121}";
type = Stem;
},
{
horizontal = 1;
place = "{823, 112}";
type = Stem;
},
{
place = "{49, 133}";
type = Stem;
}
);
layerId = "6F6D0AFA-D4D5-4829-AF83-4D7A2EC0E6ED";
paths = (
{
nodes = (
"-96 935 LINE",
"-96 823 LINE",
"49 823 LINE",
"50 -48 LINE",
"-95 -48 LINE",
"-95 -169 LINE",
"184 -169 LINE",
"182 935 LINE"
);
}
);
width = 226;
}
);
unicode = 005D;
},
{
glyphname = asciicircum;
layers = (
{
hints = (
{
horizontal = 1;
place = "{448, 315}";
type = Stem;
},
{
place = "{19, 463}";
type = Stem;
}
);
layerId = "6F6D0AFA-D4D5-4829-AF83-4D7A2EC0E6ED";
paths = (
{
nodes = (
"134 449 LINE",
"250 668 LINE",
"365 452 LINE",
"482 451 LINE",
"305 763 LINE",
"194 763 LINE",
"19 448 LINE"
);
}
);
width = 508;
}
);
unicode = 005E;
},
{
glyphname = underscore;
layers = (
{
hints = (
{
horizontal = 1;
place = "{-97, 97}";
type = Stem;
},
{
place = "{26, 328}";
type = Stem;
}
);
layerId = "6F6D0AFA-D4D5-4829-AF83-4D7A2EC0E6ED";
paths = (
{
nodes = (
"26 0 LINE",
"26 -97 LINE",
"354 -97 LINE",
"354 0 LINE"
);
}
);
width = 385;
}
);
unicode = 005F;
},
{
glyphname = grave;
layers = (
{
hints = (
{
horizontal = 1;
place = "{659, 98}";
type = Stem;
},
{
place = "{19, 189}";
type = Stem;
}
);
layerId = "6F6D0AFA-D4D5-4829-AF83-4D7A2EC0E6ED";
paths = (
{
nodes = (
"75 685 OFFCURVE",
"94 660 OFFCURVE",
"94 659 CURVE",
"94 658 OFFCURVE",
"121 658 OFFCURVE",
"150 659 CURVE",
"167 659 OFFCURVE",
"186 659 OFFCURVE",
"208 660 CURVE",
"136 757 LINE",
"19 757 LINE",
"33 740 OFFCURVE",
"45 724 OFFCURVE",
"56 709 CURVE SMOOTH"
);
}
);
width = 224;
}
);
unicode = 0060;
},
{
glyphname = a;
layers = (
{
hints = (
{
horizontal = 1;
place = "{0, 21}";
target = up;
type = BottomGhost;
},
{
horizontal = 1;
place = "{154, 126}";
type = Stem;
},
{
horizontal = 1;
place = "{779, -20}";
target = down;
type = TopGhost;
},
{
place = "{10, 133}";
type = Stem;
},
{
place = "{295, 135}";
type = Stem;
}
);
layerId = "6F6D0AFA-D4D5-4829-AF83-4D7A2EC0E6ED";
paths = (
{
nodes = (
"430 0 LINE",
"430 167 LINE SMOOTH",
"430 384 OFFCURVE",
"413 580 OFFCURVE",
"262 779 CURVE",
"175 779 LINE",
"26 580 OFFCURVE",
"10 385 OFFCURVE",
"10 167 CURVE SMOOTH",
"10 0 LINE",
"143 0 LINE",
"143 154 LINE",
"295 154 LINE",
"295 0 LINE"
);
},
{
nodes = (
"143 280 LINE",
"147 392 OFFCURVE",
"170 504 OFFCURVE",
"218 605 CURVE",
"264 508 OFFCURVE",
"289 385 OFFCURVE",
"294 280 CURVE"
);
}
);
width = 444;
}
);
unicode = 0061;
},
{
glyphname = b;
layers = (
{
hints = (
{
horizontal = 1;
place = "{-1, 127}";
type = Stem;
},
{
horizontal = 1;
place = "{346, 124}";
type = Stem;
},
{
horizontal = 1;
place = "{652, 128}";
type = Stem;
},
{
place = "{34, 135}";
type = Stem;
},
{
place = "{319, 136}";
type = Stem;
},
{
place = "{323, 131}";
type = Stem;
}
);
layerId = "6F6D0AFA-D4D5-4829-AF83-4D7A2EC0E6ED";
paths = (
{
nodes = (
"441 745 OFFCURVE",
"312 780 OFFCURVE",
"162 780 CURVE SMOOTH",
"104 780 LINE SMOOTH",
"84 780 OFFCURVE",
"55 779 OFFCURVE",
"34 779 CURVE",
"34 0 LINE",
"62 0 OFFCURVE",
"94 -1 OFFCURVE",
"121 -1 CURVE SMOOTH",
"180 -1 LINE SMOOTH",
"363 -1 OFFCURVE",
"455 19 OFFCURVE",
"455 236 CURVE SMOOTH",
"455 297 OFFCURVE",
"453 361 OFFCURVE",
"403 409 CURVE",
"446 452 OFFCURVE",
"454 528 OFFCURVE",
"454 581 CURVE"
);
},
{
nodes = (
"168 344 LINE",
"182 344 LINE SMOOTH",
"194 344 OFFCURVE",
"205 346 OFFCURVE",
"217 346 CURVE SMOOTH",
"260 346 OFFCURVE",
"311 340 OFFCURVE",
"313 313 CURVE",
"317 290 OFFCURVE",
"319 264 OFFCURVE",
"319 239 CURVE SMOOTH",
"319 202 OFFCURVE",
"315 167 OFFCURVE",
"299 150 CURVE SMOOTH",
"279 130 OFFCURVE",
"234 126 OFFCURVE",
"199 126 CURVE SMOOTH",
"187 126 OFFCURVE",
"177 127 OFFCURVE",
"170 127 CURVE"
);
},
{
nodes = (
"295 635 LINE",
"312 628 OFFCURVE",
"323 597 OFFCURVE",
"323 564 CURVE SMOOTH",
"323 525 OFFCURVE",
"309 487 OFFCURVE",
"280 479 CURVE SMOOTH",
"248 470 OFFCURVE",
"221 469 OFFCURVE",
"193 470 CURVE",
"185 470 OFFCURVE",
"177 472 OFFCURVE",
"168 472 CURVE",
"168 652 LINE",
"179 652 LINE SMOOTH",
"218 652 OFFCURVE",
"269 653 OFFCURVE",
"294 636 CURVE"
);
}
);
width = 491;
}
);
unicode = 0062;
},
{
glyphname = c;
layers = (
{
hints = (
{
horizontal = 1;
place = "{0, 132}";
type = Stem;
},
{
horizontal = 1;
place = "{652, 127}";
type = Stem;
},
{
place = "{32, 135}";
type = Stem;
},
{
place = "{319, 133}";
type = Stem;
}
);
layerId = "6F6D0AFA-D4D5-4829-AF83-4D7A2EC0E6ED";
paths = (
{
nodes = (
"319 242 LINE",
"319 226 LINE",
"320 215 OFFCURVE",
"322 203 OFFCURVE",
"322 191 CURVE SMOOTH",
"322 168 OFFCURVE",
"319 144 OFFCURVE",
"306 140 CURVE SMOOTH",
"291 135 OFFCURVE",
"273 132 OFFCURVE",
"252 132 CURVE SMOOTH",
"212 132 OFFCURVE",
"171 144 OFFCURVE",
"168 172 CURVE",
"167 208 OFFCURVE",
"167 240 OFFCURVE",
"167 269 CURVE SMOOTH",
"167 349 LINE",
"167 581 LINE SMOOTH",
"167 649 OFFCURVE",
"165 652 OFFCURVE",
"242 652 CURVE SMOOTH",
"319 652 OFFCURVE",
"319 645 OFFCURVE",
"319 575 CURVE",
"452 575 LINE",
"452 719 OFFCURVE",
"402 779 OFFCURVE",
"242 779 CURVE SMOOTH",
"84 779 OFFCURVE",
"32 720 OFFCURVE",
"32 581 CURVE SMOOTH",
"32 198 LINE SMOOTH",
"32 57 OFFCURVE",
"84 0 OFFCURVE",
"242 0 CURVE SMOOTH",
"440 0 OFFCURVE",
"452 88 OFFCURVE",
"452 242 CURVE"
);
}
);
width = 487;
}
);
unicode = 0063;
},
{
glyphname = d;
layers = (
{
hints = (
{
horizontal = 1;
place = "{0, 127}";
type = Stem;
},
{
horizontal = 1;
place = "{653, 126}";
type = Stem;
},
{
place = "{34, 134}";
type = Stem;
},
{
place = "{320, 134}";
type = Stem;
}
);
layerId = "6F6D0AFA-D4D5-4829-AF83-4D7A2EC0E6ED";
paths = (
{
nodes = (
"34 0 LINE",
"152 0 LINE SMOOTH",
"316 0 OFFCURVE",
"454 18 OFFCURVE",
"454 218 CURVE SMOOTH",
"454 577 LINE SMOOTH",
"454 717 OFFCURVE",
"401 779 OFFCURVE",
"244 779 CURVE SMOOTH",
"34 779 LINE"
);
},
{
nodes = (
"168 653 LINE",
"193 653 LINE SMOOTH",
"281 653 OFFCURVE",
"320 655 OFFCURVE",
"320 565 CURVE SMOOTH",
"320 223 LINE SMOOTH",
"320 131 OFFCURVE",
"277 127 OFFCURVE",
"168 127 CURVE"
);
}
);
width = 487;
}
);
unicode = 0064;
},
{
glyphname = e;
layers = (
{
hints = (
{
horizontal = 1;
place = "{0, 127}";
type = Stem;
},
{
horizontal = 1;
place = "{344, 128}";
type = Stem;
},
{
horizontal = 1;
place = "{653, 126}";
type = Stem;
},
{
place = "{35, 134}";
type = Stem;
}
);
layerId = "6F6D0AFA-D4D5-4829-AF83-4D7A2EC0E6ED";
paths = (
{
nodes = (
"414 127 LINE",
"169 127 LINE",
"169 344 LINE",
"342 344 LINE",
"342 472 LINE",
"169 472 LINE",
"169 653 LINE",
"414 653 LINE",
"414 779 LINE",
"35 779 LINE",
"35 0 LINE",
"414 0 LINE"
);
}
);
width = 449;
}
);
unicode = 0065;
},
{
glyphname = f;
layers = (
{
hints = (
{
horizontal = 1;
place = "{0, 21}";
target = up;
type = BottomGhost;
},
{
horizontal = 1;
place = "{344, 128}";
type = Stem;
},
{
horizontal = 1;
place = "{653, 126}";
type = Stem;
},
{
place = "{36, 134}";
type = Stem;
}
);
layerId = "6F6D0AFA-D4D5-4829-AF83-4D7A2EC0E6ED";
paths = (
{
nodes = (
"415 779 LINE",
"36 779 LINE",
"36 0 LINE",
"170 0 LINE",
"170 344 LINE",
"343 344 LINE",
"343 472 LINE",
"170 472 LINE",
"170 653 LINE",
"415 653 LINE"
);
}
);
width = 444;
}
);
unicode = 0066;
},
{
glyphname = g;
layers = (
{
hints = (
{
horizontal = 1;
place = "{0, 127}";
type = Stem;
},
{
horizontal = 1;
place = "{307, 127}";
type = Stem;
},
{
horizontal = 1;
place = "{653, 126}";
type = Stem;
},
{
place = "{29, 133}";
type = Stem;
},
{
place = "{309, 139}";
type = Stem;
},
{
place = "{314, 135}";
type = Stem;
}
);
layerId = "6F6D0AFA-D4D5-4829-AF83-4D7A2EC0E6ED";
paths = (
{
nodes = (
"449 576 LINE",
"449 720 OFFCURVE",
"395 779 OFFCURVE",
"239 779 CURVE SMOOTH",
"79 779 OFFCURVE",
"29 722 OFFCURVE",
"29 582 CURVE SMOOTH",
"29 198 LINE SMOOTH",
"29 57 OFFCURVE",
"79 0 OFFCURVE",
"239 0 CURVE SMOOTH",
"435 0 OFFCURVE",
"449 108 OFFCURVE",
"449 294 CURVE SMOOTH",
"449 434 LINE",
"204 434 LINE",
"204 307 LINE",
"314 307 LINE",
"314 240 LINE SMOOTH",
"314 165 OFFCURVE",
"309 124 OFFCURVE",
"250 127 CURVE SMOOTH",
"188 130 OFFCURVE",
"162 131 OFFCURVE",
"162 198 CURVE SMOOTH",
"162 582 LINE SMOOTH",
"162 650 OFFCURVE",
"184 653 OFFCURVE",
"239 653 CURVE SMOOTH",
"276 653 LINE SMOOTH",
"303 653 OFFCURVE",
"304 641 OFFCURVE",
"308 608 CURVE",
"311 576 LINE"
);
}
);
width = 482;
}
);
unicode = 0067;
},
{
glyphname = h;
layers = (
{
hints = (
{
horizontal = 1;
place = "{0, 21}";
target = up;
type = BottomGhost;
},
{
horizontal = 1;
place = "{344, 129}";
type = Stem;
},
{
horizontal = 1;
place = "{779, -20}";
target = down;
type = TopGhost;
},
{
place = "{34, 134}";
type = Stem;
},
{
place = "{320, 132}";
type = Stem;
}
);
layerId = "6F6D0AFA-D4D5-4829-AF83-4D7A2EC0E6ED";
paths = (
{
nodes = (
"452 779 LINE",
"320 779 LINE",
"320 473 LINE",
"168 473 LINE",
"168 779 LINE",
"34 779 LINE",
"34 0 LINE",
"168 0 LINE",
"168 344 LINE",
"320 344 LINE",
"320 0 LINE",
"452 0 LINE"
);
}
);
width = 496;
}
);
unicode = 0068;
},
{
glyphname = i;
layers = (
{
hints = (
{
horizontal = 1;
place = "{0, 21}";
target = up;
type = BottomGhost;
},
{
place = "{34, 135}";
type = Stem;
}
);
layerId = "6F6D0AFA-D4D5-4829-AF83-4D7A2EC0E6ED";
paths = (
{
nodes = (
"34 0 LINE",
"169 0 LINE",
"169 776 LINE",
"34 776 LINE"
);
}
);
width = 203;
}
);
unicode = 0069;
},
{
glyphname = j;
layers = (
{
hints = (
{
horizontal = 1;
place = "{0, 127}";
type = Stem;
},
{
horizontal = 1;
place = "{778, -20}";
target = down;
type = TopGhost;
},
{
place = "{143, 134}";
type = Stem;
}
);
layerId = "6F6D0AFA-D4D5-4829-AF83-4D7A2EC0E6ED";
paths = (
{
nodes = (
"20 0 LINE",
"198 0 OFFCURVE",
"277 34 OFFCURVE",
"277 206 CURVE SMOOTH",
"277 778 LINE",
"143 778 LINE",
"143 217 LINE SMOOTH",
"143 132 OFFCURVE",
"126 127 OFFCURVE",
"20 127 CURVE"
);
}
);
width = 322;
}
);
unicode = 006A;
},
{
glyphname = k;
layers = (
{
hints = (
{
horizontal = 1;
place = "{0, 21}";
target = up;
type = BottomGhost;
},
{
horizontal = 1;
place = "{779, -20}";
target = down;
type = TopGhost;
},
{
place = "{37, 135}";
type = Stem;
}
);
layerId = "6F6D0AFA-D4D5-4829-AF83-4D7A2EC0E6ED";
paths = (
{
nodes = (
"325 779 LINE",
"306 672 OFFCURVE",
"267 544 OFFCURVE",
"172 478 CURVE",
"172 779 LINE",
"37 779 LINE",
"37 0 LINE",
"172 0 LINE",
"172 302 LINE",
"266 237 OFFCURVE",
"306 106 OFFCURVE",
"325 0 CURVE",
"458 0 LINE",
"437 144 OFFCURVE",
"389 293 OFFCURVE",
"271 390 CURVE",
"391 486 OFFCURVE",
"437 638 OFFCURVE",
"458 779 CURVE"
);
}
);
width = 484;
}
);
unicode = 006B;
},
{
glyphname = l;
layers = (
{
hints = (
{
horizontal = 1;
place = "{0, 127}";
type = Stem;
},
{
horizontal = 1;
place = "{779, -20}";
target = down;
type = TopGhost;
},
{
place = "{38, 136}";
type = Stem;
}
);
layerId = "6F6D0AFA-D4D5-4829-AF83-4D7A2EC0E6ED";
paths = (
{
nodes = (
"368 127 LINE",
"174 127 LINE",
"174 779 LINE",
"38 779 LINE",
"38 0 LINE",
"368 0 LINE"
);
}
);
width = 380;
}
);
unicode = 006C;
},
{
glyphname = m;
layers = (
{
hints = (
{
horizontal = 1;
place = "{0, 21}";
target = up;
type = BottomGhost;
},
{
place = "{37, 135}";
type = Stem;
},
{
place = "{488, 135}";
type = Stem;
}
);
layerId = "6F6D0AFA-D4D5-4829-AF83-4D7A2EC0E6ED";
paths = (
{
nodes = (
"623 784 LINE",
"490 784 LINE",
"329 408 LINE",
"170 784 LINE",
"37 784 LINE",
"37 0 LINE",
"172 0 LINE",
"172 436 LINE",
"282 176 LINE",
"377 176 LINE",
"488 436 LINE",
"488 0 LINE",
"623 0 LINE"
);
}
);
width = 659;
}
);
unicode = 006D;
},
{
glyphname = n;
layers = (
{
hints = (
{
horizontal = 1;
place = "{0, 21}";
target = up;
type = BottomGhost;
},
{
horizontal = 1;
place = "{779, -20}";
target = down;
type = TopGhost;
},
{
place = "{35, 133}";
type = Stem;
},
{
place = "{360, 136}";
type = Stem;
}
);
layerId = "6F6D0AFA-D4D5-4829-AF83-4D7A2EC0E6ED";
paths = (
{
nodes = (
"496 779 LINE",
"360 779 LINE",
"360 337 LINE",
"167 779 LINE",
"35 779 LINE",
"35 0 LINE",
"168 0 LINE",
"168 442 LINE",
"361 0 LINE",
"496 0 LINE"
);
}
);
width = 535;
}
);
unicode = 006E;
},
{
glyphname = o;
layers = (
{
hints = (
{
horizontal = 1;
place = "{0, 130}";
type = Stem;
},
{
horizontal = 1;
place = "{652, 127}";
type = Stem;
},
{
place = "{30, 134}";
type = Stem;
},
{
place = "{314, 135}";
type = Stem;
}
);
layerId = "6F6D0AFA-D4D5-4829-AF83-4D7A2EC0E6ED";
paths = (
{
nodes = (
"449 581 LINE SMOOTH",
"449 724 OFFCURVE",
"393 779 OFFCURVE",
"238 779 CURVE SMOOTH",
"86 779 OFFCURVE",
"30 724 OFFCURVE",
"30 581 CURVE SMOOTH",
"30 198 LINE SMOOTH",
"30 54 OFFCURVE",
"85 0 OFFCURVE",
"239 0 CURVE SMOOTH",
"430 0 OFFCURVE",
"449 80 OFFCURVE",
"449 236 CURVE SMOOTH"
);
},
{
nodes = (
"162 581 LINE",
"162 638 OFFCURVE",
"165 652 OFFCURVE",
"239 652 CURVE SMOOTH",
"310 652 OFFCURVE",
"314 649 OFFCURVE",
"314 581 CURVE SMOOTH",
"314 236 LINE SMOOTH",
"314 166 OFFCURVE",
"314 130 OFFCURVE",
"241 130 CURVE SMOOTH",
"173 130 OFFCURVE",
"164 149 OFFCURVE",
"164 230 CURVE"
);
}
);
width = 482;
}
);
unicode = 006F;
},
{
glyphname = p;
layers = (
{
hints = (
{
horizontal = 1;
place = "{0, 21}";
target = up;
type = BottomGhost;
},
{
horizontal = 1;
place = "{269, 126}";
type = Stem;
},
{
horizontal = 1;
place = "{652, 126}";
type = Stem;
},
{
place = "{32, 136}";
type = Stem;
},
{
place = "{323, 135}";
type = Stem;
}
);
layerId = "6F6D0AFA-D4D5-4829-AF83-4D7A2EC0E6ED";
paths = (
{
nodes = (
"168 269 LINE",
"346 269 OFFCURVE",
"456 269 OFFCURVE",
"456 466 CURVE SMOOTH",
"456 482 OFFCURVE",
"457 496 OFFCURVE",
"457 511 CURVE SMOOTH",
"457 528 OFFCURVE",
"458 547 OFFCURVE",
"458 564 CURVE SMOOTH",
"458 686 OFFCURVE",
"436 778 OFFCURVE",
"244 778 CURVE SMOOTH",
"32 778 LINE",
"32 0 LINE",
"168 0 LINE"
);
},
{
nodes = (
"168 652 LINE",
"202 652 LINE SMOOTH",
"263 652 OFFCURVE",
"326 656 OFFCURVE",
"323 570 CURVE",
"323 497 LINE",
"326 392 OFFCURVE",
"327 395 OFFCURVE",
"168 395 CURVE"
);
}
);
width = 486;
}
);
unicode = 0070;
},
{
glyphname = q;
layers = (
{
hints = (
{
horizontal = 1;
place = "{-78, 21}";
target = up;
type = BottomGhost;
},
{
horizontal = 1;
place = "{0, 128}";
type = Stem;
},
{
horizontal = 1;
place = "{655, 124}";
type = Stem;
},
{
place = "{34, 134}";
type = Stem;
},
{
place = "{319, 135}";
type = Stem;
}
);
layerId = "6F6D0AFA-D4D5-4829-AF83-4D7A2EC0E6ED";
paths = (
{
nodes = (
"454 581 LINE SMOOTH",
"454 720 OFFCURVE",
"401 779 OFFCURVE",
"244 779 CURVE SMOOTH",
"84 779 OFFCURVE",
"34 720 OFFCURVE",
"34 581 CURVE SMOOTH",
"34 198 LINE SMOOTH",
"34 123 OFFCURVE",
"50 72 OFFCURVE",
"83 43 CURVE SMOOTH",
"116 14 OFFCURVE",
"167 0 OFFCURVE",
"234 0 CURVE SMOOTH",
"250 0 OFFCURVE",
"271 1 OFFCURVE",
"288 2 CURVE",
"347 -78 LINE",
"382 -55 OFFCURVE",
"426 -28 OFFCURVE",
"458 -5 CURVE",
"440 20 LINE SMOOTH",
"432 32 OFFCURVE",
"423 46 OFFCURVE",
"415 54 CURVE",
"455 101 OFFCURVE",
"454 161 OFFCURVE",
"454 217 CURVE SMOOTH"
);
},
{
nodes = (
"165 128 OFFCURVE",
"168 163 OFFCURVE",
"168 196 CURVE SMOOTH",
"168 606 LINE SMOOTH",
"168 639 OFFCURVE",
"203 655 OFFCURVE",
"240 655 CURVE SMOOTH",
"279 655 OFFCURVE",
"319 638 OFFCURVE",
"319 606 CURVE SMOOTH",
"319 226 LINE SMOOTH",
"319 165 OFFCURVE",
"319 133 OFFCURVE",
"256 128 CURVE"
);
}
);
width = 492;
}
);
unicode = 0071;
},
{
glyphname = r;
layers = (
{
hints = (
{
horizontal = 1;
place = "{0, 21}";
target = up;
type = BottomGhost;
},
{
horizontal = 1;
place = "{269, 126}";
type = Stem;
},
{
horizontal = 1;
place = "{653, 126}";
type = Stem;
},
{
place = "{37, 135}";
type = Stem;
},
{
place = "{325, 134}";
type = Stem;
}
);
layerId = "6F6D0AFA-D4D5-4829-AF83-4D7A2EC0E6ED";
paths = (
{
nodes = (
"461 0 LINE",
"350 282 LINE",
"402 297 OFFCURVE",
"429 327 OFFCURVE",
"444 364 CURVE SMOOTH",
"451 383 OFFCURVE",
"456 403 OFFCURVE",
"458 425 CURVE SMOOTH",
"460 447 OFFCURVE",
"460 487 OFFCURVE",
"459 546 CURVE SMOOTH",
"458 605 OFFCURVE",
"454 646 OFFCURVE",
"447 671 CURVE SMOOTH",
"440 696 OFFCURVE",
"429 716 OFFCURVE",
"413 732 CURVE SMOOTH",
"381 764 OFFCURVE",
"327 779 OFFCURVE",
"248 779 CURVE SMOOTH",
"37 779 LINE",
"37 0 LINE",
"172 0 LINE",
"172 269 LINE",
"211 269 LINE",
"317 0 LINE"
);
},
{
nodes = (
"172 653 LINE",
"248 653 LINE SMOOTH",
"275 653 OFFCURVE",
"294 646 OFFCURVE",
"306 633 CURVE SMOOTH",
"319 620 OFFCURVE",
"325 588 OFFCURVE",
"325 538 CURVE",
"326 489 OFFCURVE",
"325 457 OFFCURVE",
"324 444 CURVE SMOOTH",
"322 403 OFFCURVE",
"286 395 OFFCURVE",
"172 395 CURVE"
);
}
);
width = 492;
}
);
unicode = 0072;
},
{
glyphname = s;
layers = (
{
hints = (
{
horizontal = 1;
place = "{0, 127}";
type = Stem;
},
{
horizontal = 1;
place = "{344, 128}";
type = Stem;
},
{
horizontal = 1;
place = "{652, 126}";
type = Stem;
},
{
place = "{30, 133}";
type = Stem;
},
{
place = "{316, 134}";
type = Stem;
}
);
layerId = "6F6D0AFA-D4D5-4829-AF83-4D7A2EC0E6ED";
paths = (
{
nodes = (
"30 242 LINE",
"30 88 OFFCURVE",
"43 0 OFFCURVE",
"240 0 CURVE SMOOTH",
"398 0 OFFCURVE",
"450 57 OFFCURVE",
"450 198 CURVE SMOOTH",
"450 224 LINE SMOOTH",
"450 368 OFFCURVE",
"451 472 OFFCURVE",
"240 472 CURVE SMOOTH",
"230 472 OFFCURVE",
"172 473 OFFCURVE",
"169 484 CURVE",
"161 505 OFFCURVE",
"162 534 OFFCURVE",
"163 562 CURVE",
"163 581 LINE SMOOTH",
"163 648 OFFCURVE",
"165 652 OFFCURVE",
"240 652 CURVE SMOOTH",
"317 652 OFFCURVE",
"316 645 OFFCURVE",
"316 575 CURVE",
"450 575 LINE",
"450 719 OFFCURVE",
"396 778 OFFCURVE",
"240 778 CURVE SMOOTH",
"82 778 OFFCURVE",
"30 721 OFFCURVE",
"30 581 CURVE SMOOTH",
"30 430 OFFCURVE",
"43 344 OFFCURVE",
"240 344 CURVE SMOOTH",
"245 344 LINE SMOOTH",
"267 344 OFFCURVE",
"307 343 OFFCURVE",
"312 328 CURVE",
"319 296 OFFCURVE",
"318 261 OFFCURVE",
"317 230 CURVE",
"317 218 OFFCURVE",
"316 209 OFFCURVE",
"316 198 CURVE SMOOTH",
"316 185 LINE SMOOTH",
"316 135 OFFCURVE",
"314 130 OFFCURVE",
"251 127 CURVE",
"160 124 OFFCURVE",
"159 140 OFFCURVE",
"162 198 CURVE",
"162 211 OFFCURVE",
"163 229 OFFCURVE",
"163 242 CURVE"
);
}
);
width = 482;
}
);
unicode = 0073;
},
{
glyphname = t;
layers = (
{
hints = (
{
horizontal = 1;
place = "{0, 21}";
target = up;
type = BottomGhost;
},
{
horizontal = 1;
place = "{653, 126}";
type = Stem;
},
{
place = "{109, 133}";
type = Stem;
}
);
layerId = "6F6D0AFA-D4D5-4829-AF83-4D7A2EC0E6ED";
paths = (
{
nodes = (
"367 779 LINE",
"-16 779 LINE",
"-16 653 LINE",
"109 653 LINE",
"109 0 LINE",
"242 0 LINE",
"242 653 LINE",
"367 653 LINE"
);
}
);
width = 356;
}
);
unicode = 0074;
},
{
glyphname = u;
layers = (
{
hints = (
{
horizontal = 1;
place = "{0, 128}";
type = Stem;
},
{
horizontal = 1;
place = "{778, -20}";
target = down;
type = TopGhost;
},
{
place = "{30, 138}";
type = Stem;
},
{
place = "{317, 133}";
type = Stem;
}
);
layerId = "6F6D0AFA-D4D5-4829-AF83-4D7A2EC0E6ED";
paths = (
{
nodes = (
"30 778 LINE",
"30 198 LINE SMOOTH",
"30 57 OFFCURVE",
"82 0 OFFCURVE",
"240 0 CURVE SMOOTH",
"436 0 OFFCURVE",
"450 85 OFFCURVE",
"450 236 CURVE SMOOTH",
"450 778 LINE",
"317 778 LINE",
"317 759 OFFCURVE",
"316 552 OFFCURVE",
"314 157 CURVE",
"311 140 OFFCURVE",
"277 128 OFFCURVE",
"242 128 CURVE SMOOTH",
"210 128 OFFCURVE",
"180 137 OFFCURVE",
"172 150 CURVE",
"173 150 LINE",
"168 161 OFFCURVE",
"168 179 OFFCURVE",
"168 192 CURVE SMOOTH",
"168 198 LINE",
"164 778 LINE"
);
}
);
width = 481;
}
);
unicode = 0075;
},
{
glyphname = v;
layers = (
{
hints = (
{
horizontal = 1;
place = "{0, 21}";
target = up;
type = BottomGhost;
},
{
horizontal = 1;
place = "{778, -20}";
target = down;
type = TopGhost;
},
{
place = "{16, 130}";
type = Stem;
},
{
place = "{304, 132}";
type = Stem;
}
);
layerId = "6F6D0AFA-D4D5-4829-AF83-4D7A2EC0E6ED";
paths = (
{
nodes = (
"436 778 LINE",
"301 778 LINE",
"301 714 OFFCURVE",
"304 657 OFFCURVE",
"304 604 CURVE SMOOTH",
"304 455 OFFCURVE",
"293 313 OFFCURVE",
"226 174 CURVE",
"155 303 OFFCURVE",
"146 452 OFFCURVE",
"146 601 CURVE SMOOTH",
"146 630 OFFCURVE",
"148 659 OFFCURVE",
"148 688 CURVE SMOOTH",
"148 715 OFFCURVE",
"149 750 OFFCURVE",
"149 778 CURVE",
"16 778 LINE",
"16 605 LINE SMOOTH",
"16 391 OFFCURVE",
"29 193 OFFCURVE",
"182 0 CURVE",
"268 0 LINE",
"420 192 OFFCURVE",
"436 392 OFFCURVE",
"436 605 CURVE SMOOTH"
);
}
);
width = 460;
}
);
unicode = 0076;
},
{
glyphname = w;
layers = (
{
hints = (
{
horizontal = 1;
place = "{0, 21}";
target = up;
type = BottomGhost;
},
{
horizontal = 1;
place = "{779, -20}";
target = down;
type = TopGhost;
},
{
place = "{23, 132}";
type = Stem;
},
{
place = "{310, 129}";
type = Stem;
},
{
place = "{595, 132}";
type = Stem;
}
);
layerId = "6F6D0AFA-D4D5-4829-AF83-4D7A2EC0E6ED";
paths = (
{
nodes = (
"727 779 LINE",
"593 779 LINE",
"593 715 OFFCURVE",
"595 658 OFFCURVE",
"595 599 CURVE SMOOTH",
"595 451 OFFCURVE",
"585 305 OFFCURVE",
"518 174 CURVE",
"451 308 OFFCURVE",
"439 462 OFFCURVE",
"439 608 CURVE SMOOTH",
"439 664 OFFCURVE",
"442 715 OFFCURVE",
"442 779 CURVE",
"307 779 LINE",
"307 715 OFFCURVE",
"310 658 OFFCURVE",
"310 599 CURVE SMOOTH",
"310 450 OFFCURVE",
"301 310 OFFCURVE",
"232 175 CURVE",
"160 318 OFFCURVE",
"155 452 OFFCURVE",
"155 601 CURVE SMOOTH",
"155 653 OFFCURVE",
"157 713 OFFCURVE",
"157 779 CURVE",
"23 779 LINE",
"23 608 LINE SMOOTH",
"23 392 OFFCURVE",
"37 196 OFFCURVE",
"190 0 CURVE",
"276 0 LINE",
"317 55 OFFCURVE",
"350 112 OFFCURVE",
"374 168 CURVE",
"401 111 OFFCURVE",
"434 53 OFFCURVE",
"473 0 CURVE",
"562 0 LINE",
"712 198 OFFCURVE",
"727 393 OFFCURVE",
"727 612 CURVE SMOOTH"
);
}
);
width = 756;
}
);
unicode = 0077;
},
{
glyphname = x;
layers = (
{
hints = (
{
horizontal = 1;
place = "{0, 21}";
target = up;
type = BottomGhost;
},
{
horizontal = 1;
place = "{779, -20}";
target = down;
type = TopGhost;
},
{
place = "{29, 131}";
type = Stem;
},
{
place = "{316, 133}";
type = Stem;
}
);
layerId = "6F6D0AFA-D4D5-4829-AF83-4D7A2EC0E6ED";
paths = (
{
nodes = (
"449 0 LINE",
"449 90 LINE SMOOTH",
"449 204 OFFCURVE",
"441 293 OFFCURVE",
"336 390 CURVE",
"441 485 OFFCURVE",
"449 577 OFFCURVE",
"449 690 CURVE SMOOTH",
"449 779 LINE",
"314 779 LINE",
"314 762 OFFCURVE",
"316 741 OFFCURVE",
"316 722 CURVE SMOOTH",
"316 706 OFFCURVE",
"317 692 OFFCURVE",
"317 679 CURVE SMOOTH",
"317 604 OFFCURVE",
"307 537 OFFCURVE",
"238 478 CURVE",
"168 535 OFFCURVE",
"160 601 OFFCURVE",
"160 674 CURVE SMOOTH",
"160 690 OFFCURVE",
"161 704 OFFCURVE",
"161 720 CURVE SMOOTH",
"161 737 OFFCURVE",
"162 762 OFFCURVE",
"162 779 CURVE",
"29 779 LINE",
"29 690 LINE SMOOTH",
"29 576 OFFCURVE",
"36 486 OFFCURVE",
"140 390 CURVE",
"36 291 OFFCURVE",
"29 205 OFFCURVE",
"29 90 CURVE SMOOTH",
"29 0 LINE",
"162 0 LINE",
"162 19 OFFCURVE",
"161 43 OFFCURVE",
"161 60 CURVE SMOOTH",
"161 76 OFFCURVE",
"160 90 OFFCURVE",
"160 106 CURVE SMOOTH",
"160 181 OFFCURVE",
"168 239 OFFCURVE",
"238 301 CURVE",
"307 237 OFFCURVE",
"317 177 OFFCURVE",
"317 102 CURVE SMOOTH",
"317 89 OFFCURVE",
"316 75 OFFCURVE",
"316 59 CURVE SMOOTH",
"316 42 OFFCURVE",
"314 19 OFFCURVE",
"314 0 CURVE"
);
}
);
width = 480;
}
);
unicode = 0078;
},
{
glyphname = y;
layers = (
{
hints = (
{
horizontal = 1;
place = "{0, 21}";
target = up;
type = BottomGhost;
},
{
horizontal = 1;
place = "{779, -20}";
target = down;
type = TopGhost;
},
{
place = "{20, 131}";
type = Stem;
},
{
place = "{162, 134}";
type = Stem;
},
{
place = "{308, 132}";
type = Stem;
}
);
layerId = "6F6D0AFA-D4D5-4829-AF83-4D7A2EC0E6ED";
paths = (
{
nodes = (
"440 779 LINE",
"306 779 LINE",
"306 738 OFFCURVE",
"308 701 OFFCURVE",
"308 672 CURVE SMOOTH",
"308 585 OFFCURVE",
"297 509 OFFCURVE",
"228 437 CURVE",
"164 506 OFFCURVE",
"151 584 OFFCURVE",
"151 664 CURVE SMOOTH",
"151 681 OFFCURVE",
"152 697 OFFCURVE",
"152 714 CURVE SMOOTH",
"152 733 OFFCURVE",
"154 758 OFFCURVE",
"154 779 CURVE",
"20 779 LINE",
"20 688 LINE SMOOTH",
"20 544 OFFCURVE",
"29 436 OFFCURVE",
"162 322 CURVE",
"162 0 LINE",
"296 0 LINE",
"296 322 LINE",
"428 436 OFFCURVE",
"440 544 OFFCURVE",
"440 688 CURVE SMOOTH"
);
}
);
width = 466;
}
);
unicode = 0079;
},
{
glyphname = z;
layers = (
{
hints = (
{
horizontal = 1;
place = "{0, 127}";
type = Stem;
},
{
horizontal = 1;
place = "{653, 126}";
type = Stem;
},
{
place = "{26, 380}";
type = Stem;
}
);
layerId = "6F6D0AFA-D4D5-4829-AF83-4D7A2EC0E6ED";
paths = (
{
nodes = (
"406 127 LINE",
"174 127 LINE",
"404 650 LINE",
"406 779 LINE",
"26 779 LINE",
"26 653 LINE",
"259 653 LINE",
"26 128 LINE",
"26 0 LINE",
"406 0 LINE"
);
}
);
width = 439;
}
);
unicode = 007A;
},
{
glyphname = braceleft;
layers = (
{
hints = (
{
horizontal = 1;
place = "{-181, 127}";
type = Stem;
},
{
horizontal = 1;
place = "{824, 128}";
type = Stem;
},
{
place = "{113, 134}";
type = Stem;
}
);
layerId = "6F6D0AFA-D4D5-4829-AF83-4D7A2EC0E6ED";
paths = (
{
nodes = (
"247 734 LINE SMOOTH",
"247 822 OFFCURVE",
"264 824 OFFCURVE",
"370 824 CURVE",
"370 952 LINE",
"191 952 OFFCURVE",
"113 917 OFFCURVE",
"113 745 CURVE SMOOTH",
"113 571 LINE",
"111 548 OFFCURVE",
"107 526 OFFCURVE",
"101 506 CURVE",
"88 473 OFFCURVE",
"67 435 OFFCURVE",
"24 422 CURVE",
"24 383 LINE",
"24 361 LINE",
"24 324 LINE",
"67 311 OFFCURVE",
"88 274 OFFCURVE",
"101 241 CURVE",
"107 221 OFFCURVE",
"111 200 OFFCURVE",
"113 178 CURVE",
"113 25 LINE SMOOTH",
"113 -148 OFFCURVE",
"191 -181 OFFCURVE",
"370 -181 CURVE",
"370 -54 LINE",
"264 -54 OFFCURVE",
"247 -49 OFFCURVE",
"247 36 CURVE SMOOTH",
"247 202 LINE",
"242 290 OFFCURVE",
"202 350 OFFCURVE",
"182 373 CURVE",
"201 396 OFFCURVE",
"238 449 OFFCURVE",
"247 530 CURVE"
);
}
);
width = 301;
}
);
unicode = 007B;
},
{
glyphname = bar;
layers = (
{
hints = (
{
horizontal = 1;
place = "{-126, 1032}";
type = Stem;
},
{
place = "{34, 106}";
type = Stem;
}
);
layerId = "6F6D0AFA-D4D5-4829-AF83-4D7A2EC0E6ED";
paths = (
{
nodes = (
"34 -126 LINE",
"140 -126 LINE",
"140 906 LINE",
"34 906 LINE"
);
}
);
width = 179;
}
);
unicode = 007C;
},
{
glyphname = braceright;
layers = (
{
hints = (
{
horizontal = 1;
place = "{-174, 127}";
type = Stem;
},
{
horizontal = 1;
place = "{832, 127}";
type = Stem;
},
{
place = "{62, 135}";
type = Stem;
}
);
layerId = "6F6D0AFA-D4D5-4829-AF83-4D7A2EC0E6ED";
paths = (
{
nodes = (
"109 357 OFFCURVE",
"67 298 OFFCURVE",
"62 209 CURVE",
"62 43 LINE SMOOTH",
"62 -42 OFFCURVE",
"47 -47 OFFCURVE",
"-60 -47 CURVE",
"-60 -174 LINE",
"117 -174 OFFCURVE",
"197 -140 OFFCURVE",
"197 32 CURVE SMOOTH",
"197 185 LINE",
"198 207 OFFCURVE",
"202 228 OFFCURVE",
"209 248 CURVE SMOOTH",
"220 283 OFFCURVE",
"242 319 OFFCURVE",
"286 331 CURVE",
"286 368 LINE",
"286 390 LINE",
"286 430 LINE",
"242 442 OFFCURVE",
"220 479 OFFCURVE",
"209 514 CURVE SMOOTH",
"202 534 OFFCURVE",
"198 555 OFFCURVE",
"197 578 CURVE",
"197 752 LINE SMOOTH",
"197 925 OFFCURVE",
"117 959 OFFCURVE",
"-60 959 CURVE",
"-60 832 LINE",
"47 832 OFFCURVE",
"62 827 OFFCURVE",
"62 742 CURVE SMOOTH",
"62 538 LINE",
"73 455 OFFCURVE",
"110 403 OFFCURVE",
"127 380 CURVE"
);
}
);
width = 311;
}
);
unicode = 007D;
},
{
glyphname = asciitilde;
layers = (
{
hints = (
{
horizontal = 1;
place = "{296, 171}";
type = Stem;
},
{
horizontal = 1;
place = "{300, 108}";
type = Stem;
},
{
horizontal = 1;
place = "{360, 107}";
type = Stem;
},
{
place = "{13, 521}";
type = Stem;
}
);
layerId = "6F6D0AFA-D4D5-4829-AF83-4D7A2EC0E6ED";
paths = (
{
nodes = (
"454 456 LINE",
"448 448 LINE",
"432 425 OFFCURVE",
"413 411 OFFCURVE",
"390 408 CURVE",
"365 401 OFFCURVE",
"333 410 OFFCURVE",
"293 437 CURVE",
"259 457 OFFCURVE",
"227 467 OFFCURVE",
"197 467 CURVE SMOOTH",
"163 467 OFFCURVE",
"129 457 OFFCURVE",
"96 437 CURVE SMOOTH",
"52 411 OFFCURVE",
"21 375 OFFCURVE",
"18 372 CURVE",
"13 361 LINE",
"84 301 LINE",
"91 296 LINE",
"97 305 LINE",
"102 309 OFFCURVE",
"107 313 OFFCURVE",
"112 318 CURVE SMOOTH",
"119 325 OFFCURVE",
"130 335 OFFCURVE",
"146 347 CURVE",
"162 355 OFFCURVE",
"180 360 OFFCURVE",
"197 360 CURVE SMOOTH",
"209 360 OFFCURVE",
"222 355 OFFCURVE",
"238 347 CURVE",
"289 315 OFFCURVE",
"333 300 OFFCURVE",
"377 300 CURVE SMOOTH",
"392 300 LINE SMOOTH",
"397 300 OFFCURVE",
"403 300 OFFCURVE",
"409 301 CURVE SMOOTH",
"453 310 OFFCURVE",
"488 333 OFFCURVE",
"527 376 CURVE SMOOTH",
"534 384 LINE"
);
}
);
width = 548;
}
);
unicode = 007E;
},
{
glyphname = exclamdown;
layers = (
{
hints = (
{
horizontal = 1;
place = "{0, 21}";
target = up;
type = BottomGhost;
},
{
horizontal = 1;
place = "{654, 127}";
type = Stem;
},
{
place = "{32, 136}";
type = Stem;
}
);
layerId = "6F6D0AFA-D4D5-4829-AF83-4D7A2EC0E6ED";
paths = (
{
nodes = (
"149 654 OFFCURVE",
"168 672 OFFCURVE",
"168 717 CURVE SMOOTH",
"168 764 OFFCURVE",
"149 781 OFFCURVE",
"101 781 CURVE SMOOTH",
"52 781 OFFCURVE",
"32 764 OFFCURVE",
"32 717 CURVE SMOOTH",
"32 672 OFFCURVE",
"52 654 OFFCURVE",
"101 654 CURVE SMOOTH"
);
},
{
nodes = (
"32 0 LINE",
"168 0 LINE",
"168 589 LINE",
"32 589 LINE"
);
}
);
width = 200;
}
);
unicode = 00A1;
},
{
glyphname = cent;
layers = (
{
hints = (
{
horizontal = 1;
place = "{11, 197}";
type = Stem;
},
{
horizontal = 1;
place = "{571, 199}";
type = Stem;
},
{
place = "{34, 134}";
type = Stem;
},
{
place = "{196, 80}";
type = Stem;
},
{
place = "{200, 80}";
type = Stem;
},
{
place = "{323, 131}";
type = Stem;
}
);
layerId = "6F6D0AFA-D4D5-4829-AF83-4D7A2EC0E6ED";
paths = (
{
nodes = (
"320 301 LINE",
"323 292 OFFCURVE",
"323 279 OFFCURVE",
"323 266 CURVE SMOOTH",
"323 245 OFFCURVE",
"320 219 OFFCURVE",
"307 216 CURVE",
"294 211 OFFCURVE",
"276 208 OFFCURVE",
"253 208 CURVE SMOOTH",
"213 208 OFFCURVE",
"173 220 OFFCURVE",
"169 247 CURVE",
"168 283 OFFCURVE",
"168 315 OFFCURVE",
"168 344 CURVE SMOOTH",
"168 425 LINE",
"168 500 LINE SMOOTH",
"168 569 OFFCURVE",
"167 571 OFFCURVE",
"243 571 CURVE SMOOTH",
"321 571 OFFCURVE",
"320 567 OFFCURVE",
"320 494 CURVE",
"454 494 LINE",
"454 631 OFFCURVE",
"418 693 OFFCURVE",
"280 698 CURVE",
"280 770 LINE",
"200 770 LINE",
"200 698 LINE",
"68 690 OFFCURVE",
"34 630 OFFCURVE",
"34 500 CURVE SMOOTH",
"34 274 LINE SMOOTH",
"34 142 OFFCURVE",
"81 85 OFFCURVE",
"196 77 CURVE",
"196 11 LINE",
"276 11 LINE",
"276 77 LINE",
"450 82 OFFCURVE",
"454 171 OFFCURVE",
"454 318 CURVE",
"320 318 LINE"
);
}
);
width = 487;
}
);
unicode = 00A2;
},
{
glyphname = sterling;
layers = (
{
hints = (
{
horizontal = 1;
place = "{0, 127}";
type = Stem;
},
{
horizontal = 1;
place = "{250, 52}";
type = Stem;
},
{
horizontal = 1;
place = "{656, 128}";
type = Stem;
},
{
place = "{28, 134}";
type = Stem;
},
{
place = "{314, 136}";
type = Stem;
}
);
layerId = "6F6D0AFA-D4D5-4829-AF83-4D7A2EC0E6ED";
paths = (
{
nodes = (
"220 128 LINE",
"233 142 LINE",
"249 158 OFFCURVE",
"278 197 OFFCURVE",
"284 250 CURVE",
"409 250 LINE",
"409 302 LINE",
"286 302 LINE",
"286 304 LINE",
"272 411 OFFCURVE",
"215 421 OFFCURVE",
"180 451 CURVE",
"157 468 OFFCURVE",
"160 498 OFFCURVE",
"161 526 CURVE",
"161 534 OFFCURVE",
"162 539 OFFCURVE",
"162 546 CURVE SMOOTH",
"162 633 OFFCURVE",
"175 656 OFFCURVE",
"238 656 CURVE SMOOTH",
"294 656 OFFCURVE",
"319 651 OFFCURVE",
"314 580 CURVE",
"450 580 LINE",
"450 723 OFFCURVE",
"397 784 OFFCURVE",
"238 784 CURVE SMOOTH",
"77 784 OFFCURVE",
"28 724 OFFCURVE",
"28 586 CURVE SMOOTH",
"28 558 LINE SMOOTH",
"28 447 OFFCURVE",
"26 359 OFFCURVE",
"121 325 CURVE SMOOTH",
"124 324 OFFCURVE",
"127 323 OFFCURVE",
"130 320 CURVE SMOOTH",
"134 317 OFFCURVE",
"142 313 OFFCURVE",
"146 302 CURVE",
"74 302 LINE",
"74 250 LINE",
"150 250 LINE",
"149 245 OFFCURVE",
"149 241 OFFCURVE",
"146 236 CURVE",
"138 209 OFFCURVE",
"109 183 OFFCURVE",
"82 162 CURVE SMOOTH",
"66 150 OFFCURVE",
"48 139 OFFCURVE",
"28 128 CURVE",
"28 0 LINE",
"450 0 LINE",
"449 25 OFFCURVE",
"448 55 OFFCURVE",
"448 80 CURVE SMOOTH",
"448 99 OFFCURVE",
"449 111 OFFCURVE",
"449 127 CURVE"
);
}
);
width = 476;
}
);
unicode = 00A3;
},
{
glyphname = currency;
layers = (
{
hints = (
{
horizontal = 1;
place = "{215, 78}";
type = Stem;
},
{
horizontal = 1;
place = "{454, 76}";
type = Stem;
},
{
place = "{48, 80}";
type = Stem;
},
{
place = "{289, 78}";
type = Stem;
}
);
layerId = "6F6D0AFA-D4D5-4829-AF83-4D7A2EC0E6ED";
paths = (
{
nodes = (
"367 404 OFFCURVE",
"358 433 OFFCURVE",
"343 456 CURVE",
"391 504 LINE",
"336 559 LINE",
"288 510 LINE",
"261 523 OFFCURVE",
"237 530 OFFCURVE",
"205 530 CURVE SMOOTH",
"172 530 OFFCURVE",
"144 522 OFFCURVE",
"120 505 CURVE",
"68 553 LINE",
"14 500 LINE",
"67 451 LINE",
"54 426 OFFCURVE",
"48 400 OFFCURVE",
"48 372 CURVE SMOOTH",
"48 343 OFFCURVE",
"54 317 OFFCURVE",
"67 294 CURVE",
"18 242 LINE",
"72 188 LINE",
"122 240 LINE",
"145 224 OFFCURVE",
"173 215 OFFCURVE",
"205 215 CURVE SMOOTH",
"234 215 OFFCURVE",
"262 224 OFFCURVE",
"286 236 CURVE",
"341 186 LINE",
"391 236 LINE",
"341 288 LINE",
"358 312 OFFCURVE",
"367 340 OFFCURVE",
"367 372 CURVE SMOOTH"
);
},
{
nodes = (
"128 418 OFFCURVE",
"164 454 OFFCURVE",
"208 454 CURVE SMOOTH",
"253 454 OFFCURVE",
"289 418 OFFCURVE",
"289 373 CURVE SMOOTH",
"289 330 OFFCURVE",
"253 293 OFFCURVE",
"208 293 CURVE SMOOTH",
"164 293 OFFCURVE",
"128 330 OFFCURVE",
"128 373 CURVE SMOOTH"
);
}
);
width = 404;
}
);
unicode = 00A4;
},
{
glyphname = yen;
layers = (
{
hints = (
{
horizontal = 1;
place = "{0, 170}";
type = Stem;
},
{
horizontal = 1;
place = "{118, 52}";
type = Stem;
},
{
horizontal = 1;
place = "{265, 53}";
type = Stem;
},
{
horizontal = 1;
place = "{779, -20}";
target = down;
type = TopGhost;
},
{
place = "{24, 131}";
type = Stem;
},
{
place = "{166, 134}";
type = Stem;
},
{
place = "{312, 132}";
type = Stem;
}
);
layerId = "6F6D0AFA-D4D5-4829-AF83-4D7A2EC0E6ED";
paths = (
{
nodes = (
"444 779 LINE",
"310 779 LINE",
"310 738 OFFCURVE",
"312 701 OFFCURVE",
"312 672 CURVE SMOOTH",
"312 585 OFFCURVE",
"300 509 OFFCURVE",
"232 437 CURVE",
"168 509 OFFCURVE",
"155 581 OFFCURVE",
"155 664 CURVE SMOOTH",
"155 681 OFFCURVE",
"156 697 OFFCURVE",
"156 714 CURVE SMOOTH",
"156 733 OFFCURVE",
"157 758 OFFCURVE",
"157 779 CURVE",
"24 779 LINE",
"24 688 LINE SMOOTH",
"24 544 OFFCURVE",
"32 435 OFFCURVE",
"166 322 CURVE",
"166 318 LINE",
"79 318 LINE",
"79 265 LINE",
"166 265 LINE",
"166 170 LINE",
"79 170 LINE",
"79 118 LINE",
"166 118 LINE",
"166 0 LINE",
"300 0 LINE",
"300 118 LINE",
"389 118 LINE",
"389 170 LINE",
"300 170 LINE",
"300 265 LINE",
"389 265 LINE",
"389 318 LINE",
"300 318 LINE",
"300 322 LINE",
"431 437 OFFCURVE",
"444 543 OFFCURVE",
"444 688 CURVE SMOOTH"
);
}
);
width = 466;
}
);
unicode = 00A5;
},
{
glyphname = section;
layers = (
{
hints = (
{
horizontal = 1;
place = "{-160, 128}";
type = Stem;
},
{
horizontal = 1;
place = "{185, 127}";
type = Stem;
},
{
horizontal = 1;
place = "{492, 127}";
type = Stem;
},
{
horizontal = 1;
place = "{799, 126}";
type = Stem;
},
{
place = "{22, 134}";
type = Stem;
},
{
place = "{307, 135}";
type = Stem;
}
);
layerId = "6F6D0AFA-D4D5-4829-AF83-4D7A2EC0E6ED";
paths = (
{
nodes = (
"442 372 LINE",
"442 394 LINE SMOOTH",
"442 401 OFFCURVE",
"441 408 OFFCURVE",
"440 415 CURVE",
"442 415 LINE",
"442 432 OFFCURVE",
"440 447 OFFCURVE",
"439 462 CURVE SMOOTH",
"431 557 OFFCURVE",
"395 619 OFFCURVE",
"232 619 CURVE SMOOTH",
"219 619 OFFCURVE",
"164 622 OFFCURVE",
"161 631 CURVE SMOOTH",
"153 654 OFFCURVE",
"154 678 OFFCURVE",
"154 721 CURVE",
"155 744 OFFCURVE",
"155 759 OFFCURVE",
"156 768 CURVE SMOOTH",
"161 797 OFFCURVE",
"176 799 OFFCURVE",
"232 799 CURVE SMOOTH",
"309 799 OFFCURVE",
"307 795 OFFCURVE",
"307 722 CURVE",
"442 722 LINE",
"442 866 OFFCURVE",
"388 925 OFFCURVE",
"232 925 CURVE SMOOTH",
"72 925 OFFCURVE",
"22 870 OFFCURVE",
"22 728 CURVE SMOOTH",
"22 652 OFFCURVE",
"24 594 OFFCURVE",
"52 554 CURVE",
"29 522 OFFCURVE",
"22 478 OFFCURVE",
"22 421 CURVE SMOOTH",
"22 270 OFFCURVE",
"33 185 OFFCURVE",
"232 185 CURVE SMOOTH",
"236 185 LINE SMOOTH",
"260 185 OFFCURVE",
"296 182 OFFCURVE",
"304 168 CURVE",
"307 152 OFFCURVE",
"308 136 OFFCURVE",
"308 119 CURVE",
"311 102 OFFCURVE",
"308 72 OFFCURVE",
"307 25 CURVE",
"307 -25 OFFCURVE",
"307 -29 OFFCURVE",
"242 -32 CURVE SMOOTH",
"155 -37 OFFCURVE",
"149 -19 OFFCURVE",
"154 38 CURVE",
"154 51 OFFCURVE",
"155 68 OFFCURVE",
"155 83 CURVE",
"22 83 LINE",
"22 -72 OFFCURVE",
"33 -160 OFFCURVE",
"232 -160 CURVE SMOOTH",
"389 -160 OFFCURVE",
"442 -103 OFFCURVE",
"442 38 CURVE SMOOTH",
"442 65 LINE SMOOTH",
"442 132 OFFCURVE",
"442 187 OFFCURVE",
"421 230 CURVE",
"435 258 OFFCURVE",
"442 297 OFFCURVE",
"442 346 CURVE SMOOTH"
);
},
{
nodes = (
"220 312 OFFCURVE",
"158 314 OFFCURVE",
"156 324 CURVE",
"148 411 OFFCURVE",
"155 448 OFFCURVE",
"156 461 CURVE",
"161 489 OFFCURVE",
"176 492 OFFCURVE",
"232 492 CURVE SMOOTH",
"240 492 LINE SMOOTH",
"257 492 OFFCURVE",
"281 490 OFFCURVE",
"294 482 CURVE",
"308 437 OFFCURVE",
"306 348 OFFCURVE",
"298 306 CURVE",
"275 309 OFFCURVE",
"260 312 OFFCURVE",
"232 312 CURVE SMOOTH"
);
}
);
width = 482;
}
);
unicode = 00A7;
},
{
glyphname = dieresis;
layers = (
{
hints = (
{
horizontal = 1;
place = "{818, 99}";
type = Stem;
},
{
horizontal = 1;
place = "{821, 98}";
type = Stem;
},
{
place = "{62, 113}";
type = Stem;
},
{
place = "{246, 115}";
type = Stem;
}
);
layerId = "6F6D0AFA-D4D5-4829-AF83-4D7A2EC0E6ED";
paths = (
{
nodes = (
"62 820 LINE",
"62 819 OFFCURVE",
"68 818 OFFCURVE",
"79 818 CURVE SMOOTH",
"119 818 LINE SMOOTH",
"136 818 OFFCURVE",
"155 819 OFFCURVE",
"176 820 CURVE",
"175 918 LINE",
"62 917 LINE"
);
},
{
nodes = (
"246 822 LINE",
"246 821 OFFCURVE",
"252 821 OFFCURVE",
"264 821 CURVE SMOOTH",
"304 821 LINE SMOOTH",
"321 821 OFFCURVE",
"340 821 OFFCURVE",
"361 822 CURVE",
"361 919 LINE",
"246 919 LINE"
);
}
);
width = 425;
}
);
unicode = 00A8;
},
{
glyphname = copyright;
layers = (
{
hints = (
{
horizontal = 1;
place = "{317, 42}";
type = Stem;
},
{
horizontal = 1;
place = "{396, 47}";
type = Stem;
},
{
horizontal = 1;
place = "{628, 44}";
type = Stem;
},
{
horizontal = 1;
place = "{710, 44}";
type = Stem;
},
{
place = "{19, 43}";
type = Stem;
},
{
place = "{160, 49}";
type = Stem;
},
{
place = "{262, 48}";
type = Stem;
},
{
place = "{413, 43}";
type = Stem;
}
);
layerId = "6F6D0AFA-D4D5-4829-AF83-4D7A2EC0E6ED";
paths = (
{
nodes = (
"262 482 LINE",
"262 476 LINE SMOOTH",
"262 472 OFFCURVE",
"264 469 OFFCURVE",
"264 464 CURVE SMOOTH",
"264 454 OFFCURVE",
"262 448 OFFCURVE",
"258 446 CURVE",
"253 445 OFFCURVE",
"247 443 OFFCURVE",
"238 443 CURVE SMOOTH",
"225 443 OFFCURVE",
"210 448 OFFCURVE",
"209 457 CURVE",
"209 520 LINE",
"209 602 LINE SMOOTH",
"209 626 OFFCURVE",
"208 628 OFFCURVE",
"235 628 CURVE SMOOTH",
"263 628 OFFCURVE",
"262 627 OFFCURVE",
"262 600 CURVE",
"310 600 LINE",
"310 651 OFFCURVE",
"291 672 OFFCURVE",
"235 672 CURVE SMOOTH",
"178 672 OFFCURVE",
"160 654 OFFCURVE",
"160 602 CURVE SMOOTH",
"160 466 LINE SMOOTH",
"160 414 OFFCURVE",
"178 396 OFFCURVE",
"235 396 CURVE SMOOTH",
"306 396 OFFCURVE",
"310 429 OFFCURVE",
"310 482 CURVE"
);
},
{
nodes = (
"19 413 OFFCURVE",
"118 317 OFFCURVE",
"237 317 CURVE SMOOTH",
"359 317 OFFCURVE",
"456 413 OFFCURVE",
"456 535 CURVE SMOOTH",
"456 654 OFFCURVE",
"359 754 OFFCURVE",
"237 754 CURVE SMOOTH",
"118 754 OFFCURVE",
"19 654 OFFCURVE",
"19 535 CURVE SMOOTH"
);
},
{
nodes = (
"62 632 OFFCURVE",
"142 710 OFFCURVE",
"238 710 CURVE SMOOTH",
"333 710 OFFCURVE",
"413 632 OFFCURVE",
"413 535 CURVE SMOOTH",
"413 436 OFFCURVE",
"333 359 OFFCURVE",
"238 359 CURVE SMOOTH",
"142 359 OFFCURVE",
"62 436 OFFCURVE",
"62 535 CURVE SMOOTH"
);
}
);
width = 475;
}
);
unicode = 00A9;
},
{
glyphname = guillemotleft;
layers = (
{
hints = (
{
horizontal = 1;
place = "{265, 307}";
type = Stem;
},
{
place = "{28, 356}";
type = Stem;
}
);
layerId = "6F6D0AFA-D4D5-4829-AF83-4D7A2EC0E6ED";
paths = (
{
nodes = (
"288 572 LINE",
"196 418 LINE",
"288 265 LINE",
"384 265 LINE",
"306 418 LINE",
"384 572 LINE"
);
},
{
nodes = (
"120 572 LINE",
"28 418 LINE",
"120 265 LINE",
"216 265 LINE",
"138 418 LINE",
"216 572 LINE"
);
}
);
width = 414;
}
);
unicode = 00AB;
},
{
glyphname = uni00AD;
layers = (
{
hints = (
{
horizontal = 1;
place = "{332, 98}";
type = Stem;
},
{
place = "{29, 285}";
type = Stem;
}
);
layerId = "6F6D0AFA-D4D5-4829-AF83-4D7A2EC0E6ED";
paths = (
{
nodes = (
"29 430 LINE",
"29 332 LINE",
"314 332 LINE",
"314 430 LINE"
);
}
);
width = 343;
}
);
unicode = 00AD;
},
{
glyphname = registered;
layers = (
{
hints = (
{
horizontal = 1;
place = "{317, 42}";
type = Stem;
},
{
horizontal = 1;
place = "{494, 42}";
type = Stem;
},
{
horizontal = 1;
place = "{625, 42}";
type = Stem;
},
{
horizontal = 1;
place = "{710, 44}";
type = Stem;
},
{
place = "{19, 43}";
type = Stem;
},
{
place = "{168, 47}";
type = Stem;
},
{
place = "{268, 45}";
type = Stem;
},
{
place = "{413, 43}";
type = Stem;
}
);
layerId = "6F6D0AFA-D4D5-4829-AF83-4D7A2EC0E6ED";
paths = (
{
nodes = (
"19 413 OFFCURVE",
"118 317 OFFCURVE",
"237 317 CURVE SMOOTH",
"359 317 OFFCURVE",
"456 413 OFFCURVE",
"456 535 CURVE SMOOTH",
"456 654 OFFCURVE",
"359 754 OFFCURVE",
"237 754 CURVE SMOOTH",
"118 754 OFFCURVE",
"19 654 OFFCURVE",
"19 535 CURVE SMOOTH"
);
},
{
nodes = (
"62 632 OFFCURVE",
"142 710 OFFCURVE",
"238 710 CURVE SMOOTH",
"333 710 OFFCURVE",
"413 632 OFFCURVE",
"413 535 CURVE SMOOTH",
"413 436 OFFCURVE",
"333 359 OFFCURVE",
"238 359 CURVE SMOOTH",
"142 359 OFFCURVE",
"62 436 OFFCURVE",
"62 535 CURVE SMOOTH"
);
},
{
nodes = (
"314 403 LINE",
"276 499 LINE",
"292 504 OFFCURVE",
"304 514 OFFCURVE",
"308 526 CURVE SMOOTH",
"313 538 OFFCURVE",
"314 548 OFFCURVE",
"313 588 CURVE",
"313 628 OFFCURVE",
"309 640 OFFCURVE",
"297 651 CURVE SMOOTH",
"285 662 OFFCURVE",
"266 667 OFFCURVE",
"241 667 CURVE SMOOTH",
"168 667 LINE",
"168 403 LINE",
"215 403 LINE",
"215 494 LINE",
"228 494 LINE",
"264 403 LINE"
);
},
{
nodes = (
"215 625 LINE",
"241 625 LINE SMOOTH",
"258 625 OFFCURVE",
"268 620 OFFCURVE",
"268 585 CURVE SMOOTH",
"268 568 OFFCURVE",
"268 558 OFFCURVE",
"267 553 CURVE SMOOTH",
"265 540 OFFCURVE",
"253 536 OFFCURVE",
"215 536 CURVE"
);
}
);
width = 475;
}
);
unicode = 00AE;
},
{
glyphname = degree;
layers = (
{
hints = (
{
horizontal = 1;
place = "{626, 62}";
type = Stem;
},
{
horizontal = 1;
place = "{739, 66}";
type = Stem;
},
{
place = "{29, 62}";
type = Stem;
},
{
place = "{146, 62}";
type = Stem;
}
);
layerId = "6F6D0AFA-D4D5-4829-AF83-4D7A2EC0E6ED";
paths = (
{
nodes = (
"29 667 OFFCURVE",
"67 626 OFFCURVE",
"118 626 CURVE SMOOTH",
"170 626 OFFCURVE",
"208 667 OFFCURVE",
"208 714 CURVE SMOOTH",
"208 765 OFFCURVE",
"170 805 OFFCURVE",
"118 805 CURVE SMOOTH",
"67 805 OFFCURVE",
"29 765 OFFCURVE",
"29 714 CURVE SMOOTH"
);
},
{
nodes = (
"131 739 OFFCURVE",
"146 728 OFFCURVE",
"146 713 CURVE SMOOTH",
"146 698 OFFCURVE",
"131 688 OFFCURVE",
"119 688 CURVE SMOOTH",
"81 688 OFFCURVE",
"81 739 OFFCURVE",
"119 739 CURVE SMOOTH"
);
}
);
width = 234;
}
);
unicode = 00B0;
},
{
glyphname = plusminus;
layers = (
{
hints = (
{
horizontal = 1;
place = "{156, 97}";
type = Stem;
},
{
horizontal = 1;
place = "{422, 98}";
type = Stem;
},
{
place = "{138, 97}";
type = Stem;
}
);
layerId = "6F6D0AFA-D4D5-4829-AF83-4D7A2EC0E6ED";
paths = (
{
nodes = (
"235 520 LINE",
"235 629 LINE",
"138 629 LINE",
"138 520 LINE",
"29 520 LINE",
"29 422 LINE",
"138 422 LINE",
"138 313 LINE",
"235 313 LINE",
"235 422 LINE",
"344 422 LINE",
"344 520 LINE"
);
},
{
nodes = (
"346 253 LINE",
"34 253 LINE",
"34 156 LINE",
"346 156 LINE"
);
}
);
width = 367;
}
);
unicode = 00B1;
},
{
glyphname = acute;
layers = (
{
hints = (
{
horizontal = 1;
place = "{817, 100}";
type = Stem;
},
{
place = "{114, 179}";
type = Stem;
}
);
layerId = "6F6D0AFA-D4D5-4829-AF83-4D7A2EC0E6ED";
paths = (
{
nodes = (
"145 869 LINE",
"123 827 OFFCURVE",
"95 811 OFFCURVE",
"132 817 CURVE",
"170 817 LINE SMOOTH",
"187 817 OFFCURVE",
"207 817 OFFCURVE",
"228 818 CURVE",
"293 917 LINE",
"176 917 LINE"
);
}
);
width = 392;
}
);
unicode = 00B4;
},
{
glyphname = middot;
layers = (
{
hints = (
{
horizontal = 1;
place = "{377, 128}";
type = Stem;
},
{
place = "{30, 134}";
type = Stem;
}
);
layerId = "6F6D0AFA-D4D5-4829-AF83-4D7A2EC0E6ED";
paths = (
{
nodes = (
"48 505 OFFCURVE",
"30 485 OFFCURVE",
"30 440 CURVE SMOOTH",
"30 397 OFFCURVE",
"49 377 OFFCURVE",
"97 377 CURVE SMOOTH",
"142 377 OFFCURVE",
"164 398 OFFCURVE",
"164 440 CURVE SMOOTH",
"164 487 OFFCURVE",
"145 505 OFFCURVE",
"97 505 CURVE SMOOTH"
);
}
);
width = 194;
}
);
unicode = 00B7;
},
{
glyphname = cedilla;
layers = (
{
hints = (
{
horizontal = 1;
place = "{-160, 27}";
type = Stem;
},
{
horizontal = 1;
place = "{-44, 44}";
type = Stem;
},
{
place = "{89, 159}";
type = Stem;
},
{
place = "{167, 81}";
type = Stem;
}
);
layerId = "6F6D0AFA-D4D5-4829-AF83-4D7A2EC0E6ED";
paths = (
{
nodes = (
"225 -13 OFFCURVE",
"213 -5 OFFCURVE",
"196 0 CURVE",
"145 0 LINE",
"119 -46 LINE",
"122 -46 OFFCURVE",
"126 -44 OFFCURVE",
"130 -44 CURVE SMOOTH",
"140 -44 OFFCURVE",
"149 -48 OFFCURVE",
"156 -55 CURVE",
"163 -64 OFFCURVE",
"167 -72 OFFCURVE",
"167 -80 CURVE SMOOTH",
"167 -92 OFFCURVE",
"162 -104 OFFCURVE",
"151 -116 CURVE SMOOTH",
"139 -128 OFFCURVE",
"129 -133 OFFCURVE",
"110 -133 CURVE SMOOTH",
"105 -133 OFFCURVE",
"97 -132 OFFCURVE",
"89 -131 CURVE",
"97 -160 LINE",
"149 -164 OFFCURVE",
"188 -168 OFFCURVE",
"221 -136 CURVE",
"238 -117 OFFCURVE",
"248 -91 OFFCURVE",
"248 -68 CURVE SMOOTH",
"248 -51 OFFCURVE",
"243 -36 OFFCURVE",
"234 -24 CURVE SMOOTH"
);
}
);
width = 336;
}
);
unicode = 00B8;
},
{
glyphname = guillemotright;
layers = (
{
hints = (
{
horizontal = 1;
place = "{260, 308}";
type = Stem;
},
{
place = "{32, 357}";
type = Stem;
}
);
layerId = "6F6D0AFA-D4D5-4829-AF83-4D7A2EC0E6ED";
paths = (
{
nodes = (
"128 260 LINE",
"221 415 LINE",
"128 568 LINE",
"32 568 LINE",
"110 415 LINE",
"32 260 LINE"
);
},
{
nodes = (
"296 260 LINE",
"389 415 LINE",
"296 568 LINE",
"200 568 LINE",
"278 415 LINE",
"200 260 LINE"
);
}
);
width = 414;
}
);
unicode = 00BB;
},
{
glyphname = questiondown;
layers = (
{
hints = (
{
horizontal = 1;
place = "{0, 128}";
type = Stem;
},
{
horizontal = 1;
place = "{654, 127}";
type = Stem;
},
{
place = "{17, 133}";
type = Stem;
},
{
place = "{192, 134}";
type = Stem;
},
{
place = "{304, 135}";
type = Stem;
}
);
layerId = "6F6D0AFA-D4D5-4829-AF83-4D7A2EC0E6ED";
paths = (
{
nodes = (
"192 675 OFFCURVE",
"214 654 OFFCURVE",
"259 654 CURVE SMOOTH",
"304 654 OFFCURVE",
"326 675 OFFCURVE",
"326 718 CURVE SMOOTH",
"326 763 OFFCURVE",
"307 781 OFFCURVE",
"259 781 CURVE SMOOTH",
"211 781 OFFCURVE",
"192 763 OFFCURVE",
"192 718 CURVE SMOOTH"
);
},
{
nodes = (
"192 589 LINE",
"192 476 OFFCURVE",
"158 469 OFFCURVE",
"125 458 CURVE",
"73 447 OFFCURVE",
"17 422 OFFCURVE",
"17 198 CURVE SMOOTH",
"17 59 OFFCURVE",
"66 0 OFFCURVE",
"227 0 CURVE SMOOTH",
"387 0 OFFCURVE",
"439 60 OFFCURVE",
"439 204 CURVE",
"304 204 LINE",
"304 190 LINE SMOOTH",
"304 172 OFFCURVE",
"301 141 OFFCURVE",
"298 138 CURVE",
"294 131 OFFCURVE",
"256 128 OFFCURVE",
"220 128 CURVE SMOOTH",
"189 128 OFFCURVE",
"162 130 OFFCURVE",
"157 137 CURVE",
"153 148 OFFCURVE",
"150 188 OFFCURVE",
"150 228 CURVE SMOOTH",
"150 257 OFFCURVE",
"151 291 OFFCURVE",
"152 304 CURVE",
"156 331 OFFCURVE",
"177 340 OFFCURVE",
"204 353 CURVE SMOOTH",
"255 377 OFFCURVE",
"326 410 OFFCURVE",
"326 589 CURVE"
);
}
);
width = 456;
}
);
unicode = 00BF;
},
{
glyphname = Agrave;
layers = (
{
hints = (
{
horizontal = 1;
place = "{0, 21}";
target = up;
type = BottomGhost;
},
{
horizontal = 1;
place = "{154, 126}";
type = Stem;
},
{
horizontal = 1;
place = "{779, -20}";
target = down;
type = TopGhost;
},
{
horizontal = 1;
place = "{818, 99}";
type = Stem;
},
{
place = "{10, 133}";
type = Stem;
},
{
place = "{295, 135}";
type = Stem;
}
);
layerId = "6F6D0AFA-D4D5-4829-AF83-4D7A2EC0E6ED";
paths = (
{
nodes = (
"430 0 LINE",
"430 167 LINE SMOOTH",
"430 384 OFFCURVE",
"413 580 OFFCURVE",
"262 779 CURVE",
"175 779 LINE",
"26 580 OFFCURVE",
"10 385 OFFCURVE",
"10 167 CURVE SMOOTH",
"10 0 LINE",
"143 0 LINE",
"143 154 LINE",
"295 154 LINE",
"295 0 LINE"
);
},
{
nodes = (
"143 280 LINE",
"147 392 OFFCURVE",
"170 504 OFFCURVE",
"218 605 CURVE",
"264 508 OFFCURVE",
"289 385 OFFCURVE",
"294 280 CURVE"
);
},
{
nodes = (
"142 869 LINE",
"159 845 OFFCURVE",
"179 821 OFFCURVE",
"179 818 CURVE",
"179 817 OFFCURVE",
"207 817 OFFCURVE",
"235 818 CURVE",
"252 818 OFFCURVE",
"271 819 OFFCURVE",
"293 820 CURVE",
"221 917 LINE",
"104 917 LINE"
);
}
);
width = 444;
}
);
unicode = 00C0;
},
{
glyphname = Aacute;
layers = (
{
hints = (
{
horizontal = 1;
place = "{0, 21}";
target = up;
type = BottomGhost;
},
{
horizontal = 1;
place = "{154, 126}";
type = Stem;
},
{
horizontal = 1;
place = "{779, -20}";
target = down;
type = TopGhost;
},
{
horizontal = 1;
place = "{817, 100}";
type = Stem;
},
{
place = "{10, 133}";
type = Stem;
},
{
place = "{295, 135}";
type = Stem;
}
);
layerId = "6F6D0AFA-D4D5-4829-AF83-4D7A2EC0E6ED";
paths = (
{
nodes = (
"430 0 LINE",
"430 167 LINE SMOOTH",
"430 384 OFFCURVE",
"413 580 OFFCURVE",
"262 779 CURVE",
"175 779 LINE",
"26 580 OFFCURVE",
"10 385 OFFCURVE",
"10 167 CURVE SMOOTH",
"10 0 LINE",
"143 0 LINE",
"143 154 LINE",
"295 154 LINE",
"295 0 LINE"
);
},
{
nodes = (
"143 280 LINE",
"147 392 OFFCURVE",
"170 504 OFFCURVE",
"218 605 CURVE",
"264 508 OFFCURVE",
"289 385 OFFCURVE",
"294 280 CURVE"
);
},
{
nodes = (
"188 869 LINE",
"165 827 OFFCURVE",
"139 811 OFFCURVE",
"174 817 CURVE",
"214 817 LINE SMOOTH",
"231 817 OFFCURVE",
"250 817 OFFCURVE",
"271 818 CURVE",
"336 917 LINE",
"220 917 LINE"
);
}
);
width = 444;
}
);
unicode = 00C1;
},
{
glyphname = Acircumflex;
layers = (
{
hints = (
{
horizontal = 1;
place = "{0, 21}";
target = up;
type = BottomGhost;
},
{
horizontal = 1;
place = "{154, 126}";
type = Stem;
},
{
horizontal = 1;
place = "{779, -20}";
target = down;
type = TopGhost;
},
{
horizontal = 1;
place = "{816, 113}";
type = Stem;
},
{
place = "{10, 133}";
type = Stem;
},
{
place = "{295, 135}";
type = Stem;
}
);
layerId = "6F6D0AFA-D4D5-4829-AF83-4D7A2EC0E6ED";
paths = (
{
nodes = (
"430 0 LINE",
"430 167 LINE SMOOTH",
"430 384 OFFCURVE",
"413 580 OFFCURVE",
"262 779 CURVE",
"175 779 LINE",
"26 580 OFFCURVE",
"10 385 OFFCURVE",
"10 167 CURVE SMOOTH",
"10 0 LINE",
"143 0 LINE",
"143 154 LINE",
"295 154 LINE",
"295 0 LINE"
);
},
{
nodes = (
"143 280 LINE",
"147 392 OFFCURVE",
"170 504 OFFCURVE",
"218 605 CURVE",
"264 508 OFFCURVE",
"289 385 OFFCURVE",
"294 280 CURVE"
);
},
{
nodes = (
"59 815 LINE",
"174 815 LINE",
"221 883 LINE",
"271 816 LINE",
"396 816 LINE",
"323 929 LINE",
"131 929 LINE"
);
}
);
width = 444;
}
);
unicode = 00C2;
},
{
glyphname = Atilde;
layers = (
{
hints = (
{
horizontal = 1;
place = "{0, 21}";
target = up;
type = BottomGhost;
},
{
horizontal = 1;
place = "{154, 126}";
type = Stem;
},
{
horizontal = 1;
place = "{779, -20}";
target = down;
type = TopGhost;
},
{
horizontal = 1;
place = "{805, 79}";
type = Stem;
},
{
horizontal = 1;
place = "{850, 78}";
type = Stem;
},
{
place = "{10, 133}";
type = Stem;
},
{
place = "{295, 135}";
type = Stem;
}
);
layerId = "6F6D0AFA-D4D5-4829-AF83-4D7A2EC0E6ED";
paths = (
{
nodes = (
"430 0 LINE",
"430 167 LINE SMOOTH",
"430 384 OFFCURVE",
"413 580 OFFCURVE",
"262 779 CURVE",
"175 779 LINE",
"26 580 OFFCURVE",
"10 385 OFFCURVE",
"10 167 CURVE SMOOTH",
"10 0 LINE",
"143 0 LINE",
"143 154 LINE",
"295 154 LINE",
"295 0 LINE"
);
},
{
nodes = (
"143 280 LINE",
"147 392 OFFCURVE",
"170 504 OFFCURVE",
"218 605 CURVE",
"264 508 OFFCURVE",
"289 385 OFFCURVE",
"294 280 CURVE"
);
},
{
nodes = (
"352 920 LINE",
"348 914 LINE",
"336 898 OFFCURVE",
"323 888 OFFCURVE",
"308 884 CURVE SMOOTH",
"291 880 OFFCURVE",
"268 887 OFFCURVE",
"241 906 CURVE SMOOTH",
"220 921 OFFCURVE",
"198 928 OFFCURVE",
"175 928 CURVE SMOOTH",
"151 928 OFFCURVE",
"128 921 OFFCURVE",
"107 906 CURVE",
"75 889 OFFCURVE",
"56 861 OFFCURVE",
"53 858 CURVE",
"49 851 LINE",
"98 806 LINE",
"103 803 LINE",
"108 809 LINE",
"118 818 LINE",
"127 829 LINE",
"142 840 LINE",
"151 845 OFFCURVE",
"163 850 OFFCURVE",
"175 850 CURVE SMOOTH",
"184 850 OFFCURVE",
"194 845 OFFCURVE",
"203 840 CURVE",
"237 817 OFFCURVE",
"269 805 OFFCURVE",
"299 805 CURVE SMOOTH",
"310 805 LINE SMOOTH",
"314 805 OFFCURVE",
"318 805 OFFCURVE",
"322 806 CURVE SMOOTH",
"351 813 OFFCURVE",
"377 832 OFFCURVE",
"402 862 CURVE SMOOTH",
"407 868 LINE"
);
}
);
width = 444;
}
);
unicode = 00C3;
},
{
glyphname = Adieresis;
layers = (
{
hints = (
{
horizontal = 1;
place = "{0, 21}";
target = up;
type = BottomGhost;
},
{
horizontal = 1;
place = "{154, 126}";
type = Stem;
},
{
horizontal = 1;
place = "{779, -20}";
target = down;
type = TopGhost;
},
{
horizontal = 1;
place = "{818, 99}";
type = Stem;
},
{
horizontal = 1;
place = "{821, 98}";
type = Stem;
},
{
place = "{10, 133}";
type = Stem;
},
{
place = "{71, 113}";
type = Stem;
},
{
place = "{254, 116}";
type = Stem;
},
{
place = "{295, 135}";
type = Stem;
}
);
layerId = "6F6D0AFA-D4D5-4829-AF83-4D7A2EC0E6ED";
paths = (
{
nodes = (
"430 0 LINE",
"430 167 LINE SMOOTH",
"430 384 OFFCURVE",
"413 580 OFFCURVE",
"262 779 CURVE",
"175 779 LINE",
"26 580 OFFCURVE",
"10 385 OFFCURVE",
"10 167 CURVE SMOOTH",
"10 0 LINE",
"143 0 LINE",
"143 154 LINE",
"295 154 LINE",
"295 0 LINE"
);
},
{
nodes = (
"143 280 LINE",
"147 392 OFFCURVE",
"170 504 OFFCURVE",
"218 605 CURVE",
"264 508 OFFCURVE",
"289 385 OFFCURVE",
"294 280 CURVE"
);
},
{
nodes = (
"71 820 LINE",
"71 819 OFFCURVE",
"77 818 OFFCURVE",
"88 818 CURVE SMOOTH",
"127 818 LINE SMOOTH",
"144 818 OFFCURVE",
"163 819 OFFCURVE",
"185 820 CURVE",
"184 918 LINE",
"71 917 LINE"
);
},
{
nodes = (
"254 822 LINE",
"254 821 OFFCURVE",
"260 821 OFFCURVE",
"272 821 CURVE SMOOTH",
"312 821 LINE SMOOTH",
"329 821 OFFCURVE",
"348 821 OFFCURVE",
"370 822 CURVE",
"370 919 LINE",
"254 919 LINE"
);
}
);
width = 444;
}
);
unicode = 00C4;
},
{
glyphname = Aring;
layers = (
{
hints = (
{
horizontal = 1;
place = "{0, 21}";
target = up;
type = BottomGhost;
},
{
horizontal = 1;
place = "{154, 126}";
type = Stem;
},
{
horizontal = 1;
place = "{779, -20}";
target = down;
type = TopGhost;
},
{
horizontal = 1;
place = "{805, 61}";
type = Stem;
},
{
horizontal = 1;
place = "{918, 66}";
type = Stem;
},
{
place = "{10, 133}";
type = Stem;
},
{
place = "{127, 62}";
type = Stem;
},
{
place = "{245, 61}";
type = Stem;
},
{
place = "{295, 135}";
type = Stem;
}
);
layerId = "6F6D0AFA-D4D5-4829-AF83-4D7A2EC0E6ED";
paths = (
{
nodes = (
"430 0 LINE",
"430 167 LINE SMOOTH",
"430 384 OFFCURVE",
"413 580 OFFCURVE",
"262 779 CURVE",
"175 779 LINE",
"26 580 OFFCURVE",
"10 385 OFFCURVE",
"10 167 CURVE SMOOTH",
"10 0 LINE",
"143 0 LINE",
"143 154 LINE",
"295 154 LINE",
"295 0 LINE"
);
},
{
nodes = (
"143 280 LINE",
"147 392 OFFCURVE",
"170 504 OFFCURVE",
"218 605 CURVE",
"264 508 OFFCURVE",
"289 385 OFFCURVE",
"294 280 CURVE"
);
},
{
nodes = (
"127 846 OFFCURVE",
"166 805 OFFCURVE",
"217 805 CURVE SMOOTH",
"269 805 OFFCURVE",
"306 846 OFFCURVE",
"306 893 CURVE SMOOTH",
"306 944 OFFCURVE",
"269 984 OFFCURVE",
"217 984 CURVE SMOOTH",
"166 984 OFFCURVE",
"127 944 OFFCURVE",
"127 893 CURVE SMOOTH"
);
},
{
nodes = (
"230 918 OFFCURVE",
"245 906 OFFCURVE",
"245 891 CURVE SMOOTH",
"245 878 OFFCURVE",
"230 866 OFFCURVE",
"217 866 CURVE SMOOTH",
"179 866 OFFCURVE",
"179 918 OFFCURVE",
"217 918 CURVE SMOOTH"
);
}
);
width = 445;
}
);
unicode = 00C5;
},
{
glyphname = AE;
layers = (
{
hints = (
{
horizontal = 1;
place = "{0, 127}";
type = Stem;
},
{
horizontal = 1;
place = "{154, 126}";
type = Stem;
},
{
horizontal = 1;
place = "{344, 128}";
type = Stem;
},
{
horizontal = 1;
place = "{653, 126}";
type = Stem;
},
{
horizontal = 1;
place = "{668, 111}";
type = Stem;
},
{
place = "{31, 133}";
type = Stem;
},
{
place = "{308, 135}";
type = Stem;
}
);
layerId = "6F6D0AFA-D4D5-4829-AF83-4D7A2EC0E6ED";
paths = (
{
nodes = (
"688 653 LINE",
"688 779 LINE",
"313 779 LINE",
"224 779 LINE",
"72 590 OFFCURVE",
"31 387 OFFCURVE",
"31 167 CURVE SMOOTH",
"31 0 LINE",
"164 0 LINE",
"164 154 LINE",
"308 154 LINE",
"308 0 LINE",
"688 0 LINE",
"688 127 LINE",
"443 127 LINE",
"443 344 LINE",
"616 344 LINE",
"616 472 LINE",
"443 472 LINE",
"443 653 LINE"
);
},
{
nodes = (
"164 280 LINE",
"172 506 OFFCURVE",
"244 579 OFFCURVE",
"308 668 CURVE",
"308 280 LINE"
);
}
);
width = 716;
}
);
unicode = 00C6;
},
{
glyphname = Ccedilla;
layers = (
{
hints = (
{
horizontal = 1;
place = "{-161, 27}";
type = Stem;
},
{
horizontal = 1;
place = "{0, 132}";
type = Stem;
},
{
horizontal = 1;
place = "{652, 127}";
type = Stem;
},
{
place = "{35, 134}";
type = Stem;
},
{
place = "{322, 133}";
type = Stem;
}
);
layerId = "6F6D0AFA-D4D5-4829-AF83-4D7A2EC0E6ED";
paths = (
{
nodes = (
"322 226 LINE",
"323 215 OFFCURVE",
"324 203 OFFCURVE",
"324 191 CURVE SMOOTH",
"324 168 OFFCURVE",
"321 144 OFFCURVE",
"308 140 CURVE SMOOTH",
"295 135 OFFCURVE",
"277 132 OFFCURVE",
"254 132 CURVE SMOOTH",
"214 132 OFFCURVE",
"174 144 OFFCURVE",
"170 172 CURVE",
"169 208 OFFCURVE",
"169 240 OFFCURVE",
"169 269 CURVE SMOOTH",
"169 349 LINE",
"169 581 LINE SMOOTH",
"169 649 OFFCURVE",
"168 652 OFFCURVE",
"245 652 CURVE SMOOTH",
"321 652 OFFCURVE",
"322 645 OFFCURVE",
"322 575 CURVE",
"455 575 LINE",
"455 719 OFFCURVE",
"403 779 OFFCURVE",
"245 779 CURVE SMOOTH",
"85 779 OFFCURVE",
"35 719 OFFCURVE",
"35 581 CURVE SMOOTH",
"35 198 LINE SMOOTH",
"35 67 OFFCURVE",
"96 0 OFFCURVE",
"211 1 CURVE",
"179 -47 LINE",
"183 -47 OFFCURVE",
"189 -46 OFFCURVE",
"192 -46 CURVE SMOOTH",
"203 -46 OFFCURVE",
"213 -49 OFFCURVE",
"222 -56 CURVE",
"230 -64 OFFCURVE",
"234 -73 OFFCURVE",
"234 -82 CURVE SMOOTH",
"234 -95 OFFCURVE",
"228 -107 OFFCURVE",
"216 -118 CURVE SMOOTH",
"203 -129 OFFCURVE",
"187 -134 OFFCURVE",
"170 -134 CURVE SMOOTH",
"162 -134 OFFCURVE",
"154 -133 OFFCURVE",
"145 -132 CURVE",
"155 -161 LINE",
"212 -165 OFFCURVE",
"259 -169 OFFCURVE",
"296 -137 CURVE SMOOTH",
"317 -120 OFFCURVE",
"328 -91 OFFCURVE",
"328 -70 CURVE SMOOTH",
"328 -53 OFFCURVE",
"322 -38 OFFCURVE",
"311 -25 CURVE SMOOTH",
"300 -13 OFFCURVE",
"284 -5 OFFCURVE",
"263 0 CURVE",
"268 0 LINE SMOOTH",
"433 0 OFFCURVE",
"455 88 OFFCURVE",
"455 242 CURVE",
"322 242 LINE"
);
}
);
width = 486;
}
);
unicode = 00C7;
},
{
glyphname = Egrave;
layers = (
{
hints = (
{
horizontal = 1;
place = "{0, 127}";
type = Stem;
},
{
horizontal = 1;
place = "{344, 128}";
type = Stem;
},
{
horizontal = 1;
place = "{653, 126}";
type = Stem;
},
{
horizontal = 1;
place = "{818, 99}";
type = Stem;
},
{
place = "{35, 134}";
type = Stem;
}
);
layerId = "6F6D0AFA-D4D5-4829-AF83-4D7A2EC0E6ED";
paths = (
{
nodes = (
"414 127 LINE",
"169 127 LINE",
"169 344 LINE",
"342 344 LINE",
"342 472 LINE",
"169 472 LINE",
"169 653 LINE",
"414 653 LINE",
"414 779 LINE",
"35 779 LINE",
"35 0 LINE",
"414 0 LINE"
);
},
{
nodes = (
"142 869 LINE",
"159 845 OFFCURVE",
"179 821 OFFCURVE",
"179 818 CURVE",
"179 817 OFFCURVE",
"207 817 OFFCURVE",
"235 818 CURVE",
"252 818 OFFCURVE",
"271 819 OFFCURVE",
"293 820 CURVE",
"221 917 LINE",
"104 917 LINE"
);
}
);
width = 449;
}
);
unicode = 00C8;
},
{
glyphname = Eacute;
layers = (
{
hints = (
{
horizontal = 1;
place = "{0, 127}";
type = Stem;
},
{
horizontal = 1;
place = "{344, 128}";
type = Stem;
},
{
horizontal = 1;
place = "{653, 126}";
type = Stem;
},
{
horizontal = 1;
place = "{818, 99}";
type = Stem;
},
{
place = "{35, 134}";
type = Stem;
}
);
layerId = "6F6D0AFA-D4D5-4829-AF83-4D7A2EC0E6ED";
paths = (
{
nodes = (
"414 127 LINE",
"169 127 LINE",
"169 344 LINE",
"342 344 LINE",
"342 472 LINE",
"169 472 LINE",
"169 653 LINE",
"414 653 LINE",
"414 779 LINE",
"35 779 LINE",
"35 0 LINE",
"414 0 LINE"
);
},
{
nodes = (
"188 869 LINE SMOOTH",
"172 845 OFFCURVE",
"157 821 OFFCURVE",
"157 818 CURVE",
"157 817 OFFCURVE",
"185 817 OFFCURVE",
"214 818 CURVE",
"231 818 OFFCURVE",
"250 819 OFFCURVE",
"271 820 CURVE",
"336 917 LINE",
"220 917 LINE"
);
}
);
width = 449;
}
);
unicode = 00C9;
},
{
glyphname = Ecircumflex;
layers = (
{
hints = (
{
horizontal = 1;
place = "{0, 127}";
type = Stem;
},
{
horizontal = 1;
place = "{344, 128}";
type = Stem;
},
{
horizontal = 1;
place = "{653, 126}";
type = Stem;
},
{
horizontal = 1;
place = "{821, 109}";
type = Stem;
},
{
place = "{35, 134}";
type = Stem;
}
);
layerId = "6F6D0AFA-D4D5-4829-AF83-4D7A2EC0E6ED";
paths = (
{
nodes = (
"414 127 LINE",
"169 127 LINE",
"169 344 LINE",
"342 344 LINE",
"342 472 LINE",
"169 472 LINE",
"169 653 LINE",
"414 653 LINE",
"414 779 LINE",
"35 779 LINE",
"35 0 LINE",
"414 0 LINE"
);
},
{
nodes = (
"49 821 LINE",
"174 821 LINE",
"221 886 LINE",
"271 821 LINE",
"396 821 LINE",
"324 931 LINE",
"119 930 LINE"
);
}
);
width = 449;
}
);
unicode = 00CA;
},
{
glyphname = Edieresis;
layers = (
{
hints = (
{
horizontal = 1;
place = "{0, 127}";
type = Stem;
},
{
horizontal = 1;
place = "{344, 128}";
type = Stem;
},
{
horizontal = 1;
place = "{653, 126}";
type = Stem;
},
{
horizontal = 1;
place = "{818, 99}";
type = Stem;
},
{
horizontal = 1;
place = "{821, 98}";
type = Stem;
},
{
place = "{35, 134}";
type = Stem;
},
{
place = "{71, 114}";
type = Stem;
},
{
place = "{258, 114}";
type = Stem;
}
);
layerId = "6F6D0AFA-D4D5-4829-AF83-4D7A2EC0E6ED";
paths = (
{
nodes = (
"414 127 LINE",
"169 127 LINE",
"169 344 LINE",
"342 344 LINE",
"342 472 LINE",
"169 472 LINE",
"169 653 LINE",
"414 653 LINE",
"414 779 LINE",
"35 779 LINE",
"35 0 LINE",
"414 0 LINE"
);
},
{
nodes = (
"71 818 LINE",
"71 817 OFFCURVE",
"99 817 OFFCURVE",
"127 818 CURVE",
"144 818 OFFCURVE",
"163 819 OFFCURVE",
"185 820 CURVE",
"186 917 LINE",
"71 917 LINE"
);
},
{
nodes = (
"258 822 LINE",
"258 821 OFFCURVE",
"264 821 OFFCURVE",
"276 821 CURVE SMOOTH",
"314 821 LINE SMOOTH",
"331 821 OFFCURVE",
"351 821 OFFCURVE",
"372 822 CURVE",
"373 919 LINE",
"258 919 LINE"
);
}
);
width = 449;
}
);
unicode = 00CB;
},
{
glyphname = Igrave;
layers = (
{
hints = (
{
horizontal = 1;
place = "{0, 21}";
target = up;
type = BottomGhost;
},
{
horizontal = 1;
place = "{818, 99}";
type = Stem;
},
{
place = "{34, 135}";
type = Stem;
}
);
layerId = "6F6D0AFA-D4D5-4829-AF83-4D7A2EC0E6ED";
paths = (
{
nodes = (
"34 0 LINE",
"169 0 LINE",
"169 776 LINE",
"34 776 LINE"
);
},
{
nodes = (
"26 869 LINE SMOOTH",
"45 845 OFFCURVE",
"64 821 OFFCURVE",
"64 818 CURVE",
"64 817 OFFCURVE",
"91 817 OFFCURVE",
"120 818 CURVE",
"137 818 OFFCURVE",
"156 819 OFFCURVE",
"178 820 CURVE",
"106 917 LINE",
"-11 917 LINE"
);
}
);
width = 203;
}
);
unicode = 00CC;
},
{
glyphname = Iacute;
layers = (
{
hints = (
{
horizontal = 1;
place = "{0, 21}";
target = up;
type = BottomGhost;
},
{
horizontal = 1;
place = "{818, 99}";
type = Stem;
},
{
place = "{34, 135}";
type = Stem;
}
);
layerId = "6F6D0AFA-D4D5-4829-AF83-4D7A2EC0E6ED";
paths = (
{
nodes = (
"34 0 LINE",
"169 0 LINE",
"169 776 LINE",
"34 776 LINE"
);
},
{
nodes = (
"70 869 LINE SMOOTH",
"54 845 OFFCURVE",
"38 821 OFFCURVE",
"38 818 CURVE",
"38 817 OFFCURVE",
"66 817 OFFCURVE",
"95 818 CURVE",
"112 818 OFFCURVE",
"131 819 OFFCURVE",
"152 820 CURVE",
"217 917 LINE",
"101 917 LINE"
);
}
);
width = 203;
}
);
unicode = 00CD;
},
{
glyphname = Icircumflex;
layers = (
{
hints = (
{
horizontal = 1;
place = "{0, 21}";
target = up;
type = BottomGhost;
},
{
horizontal = 1;
place = "{818, 109}";
type = Stem;
},
{
place = "{34, 135}";
type = Stem;
}
);
layerId = "6F6D0AFA-D4D5-4829-AF83-4D7A2EC0E6ED";
paths = (
{
nodes = (
"34 0 LINE",
"169 0 LINE",
"169 776 LINE",
"34 776 LINE"
);
},
{
nodes = (
"-67 814 LINE",
"58 814 LINE",
"104 883 LINE",
"155 818 LINE",
"280 818 LINE",
"208 929 LINE",
"2 926 LINE"
);
}
);
width = 203;
}
);
unicode = 00CE;
},
{
glyphname = Idieresis;
layers = (
{
hints = (
{
horizontal = 1;
place = "{0, 21}";
target = up;
type = BottomGhost;
},
{
horizontal = 1;
place = "{818, 99}";
type = Stem;
},
{
horizontal = 1;
place = "{821, 98}";
type = Stem;
},
{
place = "{-42, 114}";
type = Stem;
},
{
place = "{35, 135}";
type = Stem;
},
{
place = "{134, 115}";
type = Stem;
}
);
layerId = "6F6D0AFA-D4D5-4829-AF83-4D7A2EC0E6ED";
paths = (
{
nodes = (
"35 0 LINE",
"170 0 LINE",
"170 776 LINE",
"35 776 LINE"
);
},
{
nodes = (
"-42 818 LINE",
"-42 817 OFFCURVE",
"-14 817 OFFCURVE",
"14 818 CURVE",
"31 818 OFFCURVE",
"51 819 OFFCURVE",
"72 820 CURVE",
"73 917 LINE",
"-42 917 LINE"
);
},
{
nodes = (
"134 822 LINE",
"134 821 OFFCURVE",
"140 821 OFFCURVE",
"152 821 CURVE SMOOTH",
"191 821 LINE SMOOTH",
"208 821 OFFCURVE",
"227 821 OFFCURVE",
"248 822 CURVE",
"250 919 LINE",
"134 919 LINE"
);
}
);
width = 203;
}
);
unicode = 00CF;
},
{
glyphname = Eth;
layers = (
{
hints = (
{
horizontal = 1;
place = "{0, 127}";
type = Stem;
},
{
horizontal = 1;
place = "{334, 128}";
type = Stem;
},
{
horizontal = 1;
place = "{653, 126}";
type = Stem;
},
{
place = "{58, 134}";
type = Stem;
},
{
place = "{344, 134}";
type = Stem;
}
);
layerId = "6F6D0AFA-D4D5-4829-AF83-4D7A2EC0E6ED";
paths = (
{
nodes = (
"58 779 LINE",
"58 462 LINE",
"22 462 LINE",
"22 334 LINE",
"58 334 LINE",
"58 0 LINE",
"176 0 LINE SMOOTH",
"340 0 OFFCURVE",
"478 18 OFFCURVE",
"478 218 CURVE SMOOTH",
"478 577 LINE SMOOTH",
"478 717 OFFCURVE",
"425 779 OFFCURVE",
"268 779 CURVE SMOOTH"
);
},
{
nodes = (
"344 223 LINE SMOOTH",
"344 131 OFFCURVE",
"301 127 OFFCURVE",
"192 127 CURVE",
"192 334 LINE",
"287 334 LINE",
"287 462 LINE",
"192 462 LINE",
"192 653 LINE",
"217 653 LINE SMOOTH",
"305 653 OFFCURVE",
"344 655 OFFCURVE",
"344 565 CURVE SMOOTH"
);
}
);
width = 504;
}
);
unicode = 00D0;
},
{
glyphname = Ntilde;
layers = (
{
hints = (
{
horizontal = 1;
place = "{0, 21}";
target = up;
type = BottomGhost;
},
{
horizontal = 1;
place = "{779, -20}";
target = down;
type = TopGhost;
},
{
horizontal = 1;
place = "{808, 79}";
type = Stem;
},
{
horizontal = 1;
place = "{852, 78}";
type = Stem;
},
{
place = "{35, 133}";
type = Stem;
},
{
place = "{360, 136}";
type = Stem;
}
);
layerId = "6F6D0AFA-D4D5-4829-AF83-4D7A2EC0E6ED";
paths = (
{
nodes = (
"496 779 LINE",
"360 779 LINE",
"360 337 LINE",
"167 779 LINE",
"35 779 LINE",
"35 0 LINE",
"168 0 LINE",
"168 442 LINE",
"361 0 LINE",
"496 0 LINE"
);
},
{
nodes = (
"395 923 LINE",
"391 917 LINE",
"379 901 OFFCURVE",
"366 891 OFFCURVE",
"352 887 CURVE SMOOTH",
"334 883 OFFCURVE",
"311 890 OFFCURVE",
"284 908 CURVE SMOOTH",
"263 923 OFFCURVE",
"241 930 OFFCURVE",
"218 930 CURVE SMOOTH",
"194 930 OFFCURVE",
"171 923 OFFCURVE",
"150 908 CURVE",
"118 891 OFFCURVE",
"99 864 OFFCURVE",
"96 860 CURVE",
"92 853 LINE",
"142 809 LINE",
"146 805 LINE",
"151 811 LINE",
"161 821 LINE",
"170 832 LINE",
"185 842 LINE",
"194 847 OFFCURVE",
"206 852 OFFCURVE",
"218 852 CURVE SMOOTH",
"229 852 OFFCURVE",
"237 847 OFFCURVE",
"246 842 CURVE",
"281 819 OFFCURVE",
"313 808 OFFCURVE",
"342 808 CURVE SMOOTH",
"353 808 LINE SMOOTH",
"357 808 OFFCURVE",
"361 808 OFFCURVE",
"365 809 CURVE SMOOTH",
"394 816 OFFCURVE",
"420 835 OFFCURVE",
"445 864 CURVE SMOOTH",
"450 870 LINE"
);
}
);
width = 535;
}
);
unicode = 00D1;
},
{
glyphname = Ograve;
layers = (
{
hints = (
{
horizontal = 1;
place = "{0, 130}";
type = Stem;
},
{
horizontal = 1;
place = "{652, 127}";
type = Stem;
},
{
horizontal = 1;
place = "{816, 98}";
type = Stem;
},
{
place = "{30, 134}";
type = Stem;
},
{
place = "{314, 135}";
type = Stem;
}
);
layerId = "6F6D0AFA-D4D5-4829-AF83-4D7A2EC0E6ED";
paths = (
{
nodes = (
"449 581 LINE SMOOTH",
"449 724 OFFCURVE",
"393 779 OFFCURVE",
"238 779 CURVE SMOOTH",
"86 779 OFFCURVE",
"30 724 OFFCURVE",
"30 581 CURVE SMOOTH",
"30 198 LINE SMOOTH",
"30 54 OFFCURVE",
"85 0 OFFCURVE",
"239 0 CURVE SMOOTH",
"430 0 OFFCURVE",
"449 80 OFFCURVE",
"449 236 CURVE SMOOTH"
);
},
{
nodes = (
"162 581 LINE",
"162 638 OFFCURVE",
"165 652 OFFCURVE",
"239 652 CURVE SMOOTH",
"310 652 OFFCURVE",
"314 649 OFFCURVE",
"314 581 CURVE SMOOTH",
"314 236 LINE SMOOTH",
"314 166 OFFCURVE",
"314 130 OFFCURVE",
"241 130 CURVE SMOOTH",
"173 130 OFFCURVE",
"164 149 OFFCURVE",
"164 230 CURVE"
);
},
{
nodes = (
"161 866 LINE",
"178 842 OFFCURVE",
"198 817 OFFCURVE",
"198 816 CURVE",
"198 815 OFFCURVE",
"226 815 OFFCURVE",
"254 816 CURVE",
"271 816 OFFCURVE",
"291 816 OFFCURVE",
"312 817 CURVE",
"240 914 LINE",
"124 914 LINE"
);
}
);
width = 482;
}
);
unicode = 00D2;
},
{
glyphname = Oacute;
layers = (
{
hints = (
{
horizontal = 1;
place = "{0, 130}";
type = Stem;
},
{
horizontal = 1;
place = "{652, 127}";
type = Stem;
},
{
horizontal = 1;
place = "{818, 99}";
type = Stem;
},
{
place = "{30, 134}";
type = Stem;
},
{
place = "{314, 135}";
type = Stem;
}
);
layerId = "6F6D0AFA-D4D5-4829-AF83-4D7A2EC0E6ED";
paths = (
{
nodes = (
"449 581 LINE SMOOTH",
"449 724 OFFCURVE",
"393 779 OFFCURVE",
"238 779 CURVE SMOOTH",
"86 779 OFFCURVE",
"30 724 OFFCURVE",
"30 581 CURVE SMOOTH",
"30 198 LINE SMOOTH",
"30 54 OFFCURVE",
"85 0 OFFCURVE",
"239 0 CURVE SMOOTH",
"430 0 OFFCURVE",
"449 80 OFFCURVE",
"449 236 CURVE SMOOTH"
);
},
{
nodes = (
"162 581 LINE",
"162 638 OFFCURVE",
"165 652 OFFCURVE",
"239 652 CURVE SMOOTH",
"310 652 OFFCURVE",
"314 649 OFFCURVE",
"314 581 CURVE SMOOTH",
"314 236 LINE SMOOTH",
"314 166 OFFCURVE",
"314 130 OFFCURVE",
"241 130 CURVE SMOOTH",
"173 130 OFFCURVE",
"164 149 OFFCURVE",
"164 230 CURVE"
);
},
{
nodes = (
"194 869 LINE SMOOTH",
"178 845 OFFCURVE",
"163 821 OFFCURVE",
"163 818 CURVE",
"163 817 OFFCURVE",
"191 817 OFFCURVE",
"220 818 CURVE",
"237 818 OFFCURVE",
"256 819 OFFCURVE",
"277 820 CURVE",
"342 917 LINE",
"226 917 LINE"
);
}
);
width = 482;
}
);
unicode = 00D3;
},
{
glyphname = Ocircumflex;
layers = (
{
hints = (
{
horizontal = 1;
place = "{0, 130}";
type = Stem;
},
{
horizontal = 1;
place = "{652, 127}";
type = Stem;
},
{
horizontal = 1;
place = "{816, 111}";
type = Stem;
},
{
place = "{30, 134}";
type = Stem;
},
{
place = "{314, 135}";
type = Stem;
}
);
layerId = "6F6D0AFA-D4D5-4829-AF83-4D7A2EC0E6ED";
paths = (
{
nodes = (
"449 581 LINE SMOOTH",
"449 724 OFFCURVE",
"393 779 OFFCURVE",
"238 779 CURVE SMOOTH",
"86 779 OFFCURVE",
"30 724 OFFCURVE",
"30 581 CURVE SMOOTH",
"30 198 LINE SMOOTH",
"30 54 OFFCURVE",
"85 0 OFFCURVE",
"239 0 CURVE SMOOTH",
"430 0 OFFCURVE",
"449 80 OFFCURVE",
"449 236 CURVE SMOOTH"
);
},
{
nodes = (
"162 581 LINE",
"162 638 OFFCURVE",
"165 652 OFFCURVE",
"239 652 CURVE SMOOTH",
"310 652 OFFCURVE",
"314 649 OFFCURVE",
"314 581 CURVE SMOOTH",
"314 236 LINE SMOOTH",
"314 166 OFFCURVE",
"314 130 OFFCURVE",
"241 130 CURVE SMOOTH",
"173 130 OFFCURVE",
"164 149 OFFCURVE",
"164 230 CURVE"
);
},
{
nodes = (
"65 811 LINE",
"190 811 LINE",
"236 883 LINE",
"287 816 LINE",
"412 816 LINE",
"340 929 LINE",
"134 926 LINE"
);
}
);
width = 482;
}
);
unicode = 00D4;
},
{
glyphname = Otilde;
layers = (
{
hints = (
{
horizontal = 1;
place = "{0, 130}";
type = Stem;
},
{
horizontal = 1;
place = "{652, 127}";
type = Stem;
},
{
horizontal = 1;
place = "{805, 79}";
type = Stem;
},
{
horizontal = 1;
place = "{850, 78}";
type = Stem;
},
{
place = "{30, 134}";
type = Stem;
},
{
place = "{314, 135}";
type = Stem;
}
);
layerId = "6F6D0AFA-D4D5-4829-AF83-4D7A2EC0E6ED";
paths = (
{
nodes = (
"449 581 LINE SMOOTH",
"449 724 OFFCURVE",
"393 779 OFFCURVE",
"238 779 CURVE SMOOTH",
"86 779 OFFCURVE",
"30 724 OFFCURVE",
"30 581 CURVE SMOOTH",
"30 198 LINE SMOOTH",
"30 54 OFFCURVE",
"85 0 OFFCURVE",
"239 0 CURVE SMOOTH",
"430 0 OFFCURVE",
"449 80 OFFCURVE",
"449 236 CURVE SMOOTH"
);
},
{
nodes = (
"162 581 LINE",
"162 638 OFFCURVE",
"165 652 OFFCURVE",
"239 652 CURVE SMOOTH",
"310 652 OFFCURVE",
"314 649 OFFCURVE",
"314 581 CURVE SMOOTH",
"314 236 LINE SMOOTH",
"314 166 OFFCURVE",
"314 130 OFFCURVE",
"241 130 CURVE SMOOTH",
"173 130 OFFCURVE",
"164 149 OFFCURVE",
"164 230 CURVE"
);
},
{
nodes = (
"365 920 LINE",
"361 914 LINE",
"349 898 OFFCURVE",
"336 888 OFFCURVE",
"322 884 CURVE SMOOTH",
"304 880 OFFCURVE",
"281 887 OFFCURVE",
"254 906 CURVE SMOOTH",
"233 921 OFFCURVE",
"211 928 OFFCURVE",
"188 928 CURVE SMOOTH",
"164 928 OFFCURVE",
"141 921 OFFCURVE",
"120 906 CURVE",
"88 889 OFFCURVE",
"69 861 OFFCURVE",
"66 858 CURVE",
"62 851 LINE",
"112 806 LINE",
"116 803 LINE",
"121 809 LINE",
"131 818 LINE",
"142 828 LINE",
"145 832 OFFCURVE",
"149 836 OFFCURVE",
"155 840 CURVE SMOOTH",
"164 845 OFFCURVE",
"176 850 OFFCURVE",
"188 850 CURVE SMOOTH",
"199 850 OFFCURVE",
"207 845 OFFCURVE",
"216 840 CURVE",
"251 817 OFFCURVE",
"283 805 OFFCURVE",
"312 805 CURVE SMOOTH",
"324 805 LINE SMOOTH",
"327 805 OFFCURVE",
"331 805 OFFCURVE",
"335 806 CURVE SMOOTH",
"364 813 OFFCURVE",
"390 832 OFFCURVE",
"415 862 CURVE SMOOTH",
"420 868 LINE"
);
}
);
width = 482;
}
);
unicode = 00D5;
},
{
glyphname = Odieresis;
layers = (
{
hints = (
{
horizontal = 1;
place = "{0, 130}";
type = Stem;
},
{
horizontal = 1;
place = "{652, 127}";
type = Stem;
},
{
horizontal = 1;
place = "{818, 99}";
type = Stem;
},
{
horizontal = 1;
place = "{821, 98}";
type = Stem;
},
{
place = "{30, 134}";
type = Stem;
},
{
place = "{94, 114}";
type = Stem;
},
{
place = "{281, 114}";
type = Stem;
},
{
place = "{314, 135}";
type = Stem;
}
);
layerId = "6F6D0AFA-D4D5-4829-AF83-4D7A2EC0E6ED";
paths = (
{
nodes = (
"449 581 LINE SMOOTH",
"449 724 OFFCURVE",
"393 779 OFFCURVE",
"238 779 CURVE SMOOTH",
"86 779 OFFCURVE",
"30 724 OFFCURVE",
"30 581 CURVE SMOOTH",
"30 198 LINE SMOOTH",
"30 54 OFFCURVE",
"85 0 OFFCURVE",
"239 0 CURVE SMOOTH",
"430 0 OFFCURVE",
"449 80 OFFCURVE",
"449 236 CURVE SMOOTH"
);
},
{
nodes = (
"162 581 LINE",
"162 638 OFFCURVE",
"165 652 OFFCURVE",
"239 652 CURVE SMOOTH",
"310 652 OFFCURVE",
"314 649 OFFCURVE",
"314 581 CURVE SMOOTH",
"314 236 LINE SMOOTH",
"314 166 OFFCURVE",
"314 130 OFFCURVE",
"241 130 CURVE SMOOTH",
"173 130 OFFCURVE",
"164 149 OFFCURVE",
"164 230 CURVE"
);
},
{
nodes = (
"94 818 LINE",
"94 817 OFFCURVE",
"121 817 OFFCURVE",
"150 818 CURVE",
"167 818 OFFCURVE",
"186 819 OFFCURVE",
"208 820 CURVE",
"209 917 LINE",
"94 917 LINE"
);
},
{
nodes = (
"281 822 LINE",
"281 821 OFFCURVE",
"287 821 OFFCURVE",
"299 821 CURVE SMOOTH",
"337 821 LINE SMOOTH",
"354 821 OFFCURVE",
"373 821 OFFCURVE",
"395 822 CURVE",
"396 919 LINE",
"281 919 LINE"
);
}
);
width = 482;
}
);
unicode = 00D6;
},
{
glyphname = multiply;
layers = (
{
hints = (
{
horizontal = 1;
place = "{221, 416}";
type = Stem;
},
{
place = "{36, 416}";
type = Stem;
}
);
layerId = "6F6D0AFA-D4D5-4829-AF83-4D7A2EC0E6ED";
paths = (
{
nodes = (
"383 637 LINE",
"244 498 LINE",
"104 637 LINE",
"36 568 LINE",
"175 428 LINE",
"36 289 LINE",
"104 221 LINE",
"244 360 LINE",
"383 221 LINE",
"452 289 LINE",
"313 428 LINE",
"452 568 LINE"
);
}
);
width = 486;
}
);
unicode = 00D7;
},
{
glyphname = Oslash;
layers = (
{
hints = (
{
horizontal = 1;
place = "{0, 130}";
type = Stem;
},
{
horizontal = 1;
place = "{652, 127}";
type = Stem;
},
{
place = "{34, 132}";
type = Stem;
},
{
place = "{318, 134}";
type = Stem;
}
);
layerId = "6F6D0AFA-D4D5-4829-AF83-4D7A2EC0E6ED";
paths = (
{
nodes = (
"437 782 LINE",
"370 810 LINE",
"352 766 LINE",
"323 775 OFFCURVE",
"287 779 OFFCURVE",
"242 779 CURVE SMOOTH",
"89 779 OFFCURVE",
"34 724 OFFCURVE",
"34 581 CURVE SMOOTH",
"34 198 LINE SMOOTH",
"34 137 OFFCURVE",
"45 92 OFFCURVE",
"67 61 CURVE",
"43 0 LINE",
"110 -28 LINE",
"128 17 LINE",
"159 6 OFFCURVE",
"197 0 OFFCURVE",
"242 0 CURVE SMOOTH",
"433 0 OFFCURVE",
"452 80 OFFCURVE",
"452 236 CURVE SMOOTH",
"452 581 LINE SMOOTH",
"452 648 OFFCURVE",
"441 694 OFFCURVE",
"414 726 CURVE"
);
},
{
nodes = (
"166 581 LINE",
"166 638 OFFCURVE",
"169 652 OFFCURVE",
"242 652 CURVE SMOOTH",
"274 652 OFFCURVE",
"292 651 OFFCURVE",
"304 646 CURVE",
"168 311 LINE"
);
},
{
nodes = (
"212 130 OFFCURVE",
"191 136 OFFCURVE",
"181 149 CURVE",
"318 488 LINE",
"318 236 LINE SMOOTH",
"318 166 OFFCURVE",
"316 130 OFFCURVE",
"245 130 CURVE SMOOTH"
);
}
);
width = 482;
}
);
unicode = 00D8;
},
{
glyphname = Ugrave;
layers = (
{
hints = (
{
horizontal = 1;
place = "{0, 128}";
type = Stem;
},
{
horizontal = 1;
place = "{778, -20}";
target = down;
type = TopGhost;
},
{
horizontal = 1;
place = "{817, 99}";
type = Stem;
},
{
place = "{30, 138}";
type = Stem;
},
{
place = "{316, 134}";
type = Stem;
}
);
layerId = "6F6D0AFA-D4D5-4829-AF83-4D7A2EC0E6ED";
paths = (
{
nodes = (
"30 778 LINE",
"30 198 LINE SMOOTH",
"30 57 OFFCURVE",
"82 0 OFFCURVE",
"240 0 CURVE SMOOTH",
"436 0 OFFCURVE",
"450 85 OFFCURVE",
"450 236 CURVE SMOOTH",
"450 778 LINE",
"317 778 LINE",
"317 759 OFFCURVE",
"317 656 OFFCURVE",
"316 467 CURVE",
"316 279 OFFCURVE",
"315 176 OFFCURVE",
"314 157 CURVE",
"311 140 OFFCURVE",
"277 128 OFFCURVE",
"242 128 CURVE SMOOTH",
"210 128 OFFCURVE",
"180 137 OFFCURVE",
"172 150 CURVE",
"173 150 LINE",
"168 161 OFFCURVE",
"168 179 OFFCURVE",
"168 192 CURVE SMOOTH",
"168 198 LINE",
"164 778 LINE"
);
},
{
nodes = (
"172 868 LINE",
"189 844 OFFCURVE",
"209 818 OFFCURVE",
"209 817 CURVE",
"209 816 OFFCURVE",
"237 816 OFFCURVE",
"265 817 CURVE",
"282 817 OFFCURVE",
"301 817 OFFCURVE",
"323 818 CURVE",
"251 916 LINE",
"134 916 LINE"
);
}
);
width = 481;
}
);
unicode = 00D9;
},
{
glyphname = Uacute;
layers = (
{
hints = (
{
horizontal = 1;
place = "{0, 128}";
type = Stem;
},
{
horizontal = 1;
place = "{778, -20}";
target = down;
type = TopGhost;
},
{
horizontal = 1;
place = "{818, 99}";
type = Stem;
},
{
place = "{30, 138}";
type = Stem;
},
{
place = "{316, 134}";
type = Stem;
}
);
layerId = "6F6D0AFA-D4D5-4829-AF83-4D7A2EC0E6ED";
paths = (
{
nodes = (
"30 778 LINE",
"30 198 LINE SMOOTH",
"30 57 OFFCURVE",
"82 0 OFFCURVE",
"240 0 CURVE SMOOTH",
"436 0 OFFCURVE",
"450 85 OFFCURVE",
"450 236 CURVE SMOOTH",
"450 778 LINE",
"317 778 LINE",
"317 759 OFFCURVE",
"317 656 OFFCURVE",
"316 467 CURVE",
"316 279 OFFCURVE",
"315 176 OFFCURVE",
"314 157 CURVE",
"311 140 OFFCURVE",
"277 128 OFFCURVE",
"242 128 CURVE SMOOTH",
"210 128 OFFCURVE",
"180 137 OFFCURVE",
"172 150 CURVE",
"173 150 LINE",
"168 161 OFFCURVE",
"168 179 OFFCURVE",
"168 192 CURVE SMOOTH",
"168 198 LINE",
"164 778 LINE"
);
},
{
nodes = (
"199 869 LINE SMOOTH",
"183 845 OFFCURVE",
"168 821 OFFCURVE",
"168 818 CURVE",
"168 817 OFFCURVE",
"196 817 OFFCURVE",
"224 818 CURVE",
"241 818 OFFCURVE",
"261 819 OFFCURVE",
"282 820 CURVE",
"347 917 LINE",
"230 917 LINE"
);
}
);
width = 481;
}
);
unicode = 00DA;
},
{
glyphname = Ucircumflex;
layers = (
{
hints = (
{
horizontal = 1;
place = "{0, 128}";
type = Stem;
},
{
horizontal = 1;
place = "{778, -20}";
target = down;
type = TopGhost;
},
{
horizontal = 1;
place = "{816, 111}";
type = Stem;
},
{
place = "{30, 138}";
type = Stem;
},
{
place = "{317, 133}";
type = Stem;
}
);
layerId = "6F6D0AFA-D4D5-4829-AF83-4D7A2EC0E6ED";
paths = (
{
nodes = (
"30 778 LINE",
"30 198 LINE SMOOTH",
"30 57 OFFCURVE",
"82 0 OFFCURVE",
"240 0 CURVE SMOOTH",
"436 0 OFFCURVE",
"450 85 OFFCURVE",
"450 236 CURVE SMOOTH",
"450 778 LINE",
"317 778 LINE",
"317 711 LINE",
"318 685 OFFCURVE",
"318 591 OFFCURVE",
"317 428 CURVE SMOOTH",
"316 266 OFFCURVE",
"315 176 OFFCURVE",
"314 157 CURVE",
"311 140 OFFCURVE",
"277 128 OFFCURVE",
"242 128 CURVE SMOOTH",
"210 128 OFFCURVE",
"180 137 OFFCURVE",
"172 150 CURVE",
"173 150 LINE",
"168 161 OFFCURVE",
"168 179 OFFCURVE",
"168 192 CURVE SMOOTH",
"168 198 LINE",
"164 778 LINE"
);
},
{
nodes = (
"67 811 LINE",
"192 811 LINE",
"239 883 LINE",
"289 816 LINE",
"414 816 LINE",
"342 929 LINE",
"137 926 LINE"
);
}
);
width = 481;
}
);
unicode = 00DB;
},
{
glyphname = Udieresis;
layers = (
{
hints = (
{
horizontal = 1;
place = "{0, 128}";
type = Stem;
},
{
horizontal = 1;
place = "{778, -20}";
target = down;
type = TopGhost;
},
{
horizontal = 1;
place = "{817, 99}";
type = Stem;
},
{
horizontal = 1;
place = "{820, 98}";
type = Stem;
},
{
place = "{30, 138}";
type = Stem;
},
{
place = "{268, 114}";
type = Stem;
},
{
place = "{317, 133}";
type = Stem;
}
);
layerId = "6F6D0AFA-D4D5-4829-AF83-4D7A2EC0E6ED";
paths = (
{
nodes = (
"30 778 LINE",
"30 198 LINE SMOOTH",
"30 57 OFFCURVE",
"82 0 OFFCURVE",
"240 0 CURVE SMOOTH",
"436 0 OFFCURVE",
"450 85 OFFCURVE",
"450 236 CURVE SMOOTH",
"450 778 LINE",
"317 778 LINE",
"317 711 LINE",
"318 685 OFFCURVE",
"318 591 OFFCURVE",
"317 428 CURVE SMOOTH",
"316 266 OFFCURVE",
"315 176 OFFCURVE",
"314 157 CURVE",
"311 140 OFFCURVE",
"277 128 OFFCURVE",
"242 128 CURVE SMOOTH",
"210 128 OFFCURVE",
"180 137 OFFCURVE",
"172 150 CURVE",
"173 150 LINE",
"168 161 OFFCURVE",
"168 179 OFFCURVE",
"168 192 CURVE SMOOTH",
"168 198 LINE",
"164 778 LINE"
);
},
{
nodes = (
"84 817 LINE",
"84 816 OFFCURVE",
"112 816 OFFCURVE",
"140 817 CURVE",
"157 817 OFFCURVE",
"177 817 OFFCURVE",
"198 818 CURVE",
"199 916 LINE",
"84 916 LINE"
);
},
{
nodes = (
"268 821 LINE",
"268 820 OFFCURVE",
"274 820 OFFCURVE",
"286 820 CURVE SMOOTH",
"324 820 LINE SMOOTH",
"341 820 OFFCURVE",
"360 820 OFFCURVE",
"382 821 CURVE",
"383 918 LINE",
"268 918 LINE"
);
}
);
width = 481;
}
);
unicode = 00DC;
},
{
glyphname = Yacute;
layers = (
{
hints = (
{
horizontal = 1;
place = "{0, 21}";
target = up;
type = BottomGhost;
},
{
horizontal = 1;
place = "{779, -20}";
target = down;
type = TopGhost;
},
{
horizontal = 1;
place = "{818, 99}";
type = Stem;
},
{
place = "{20, 131}";
type = Stem;
},
{
place = "{162, 134}";
type = Stem;
},
{
place = "{308, 132}";
type = Stem;
}
);
layerId = "6F6D0AFA-D4D5-4829-AF83-4D7A2EC0E6ED";
paths = (
{
nodes = (
"440 779 LINE",
"306 779 LINE",
"306 738 OFFCURVE",
"308 701 OFFCURVE",
"308 672 CURVE SMOOTH",
"308 585 OFFCURVE",
"297 509 OFFCURVE",
"228 437 CURVE",
"164 506 OFFCURVE",
"151 584 OFFCURVE",
"151 664 CURVE SMOOTH",
"151 681 OFFCURVE",
"152 697 OFFCURVE",
"152 714 CURVE SMOOTH",
"152 733 OFFCURVE",
"154 758 OFFCURVE",
"154 779 CURVE",
"20 779 LINE",
"20 688 LINE SMOOTH",
"20 544 OFFCURVE",
"29 436 OFFCURVE",
"162 322 CURVE",
"162 0 LINE",
"296 0 LINE",
"296 322 LINE",
"428 436 OFFCURVE",
"440 544 OFFCURVE",
"440 688 CURVE SMOOTH"
);
},
{
nodes = (
"188 869 LINE SMOOTH",
"172 845 OFFCURVE",
"157 821 OFFCURVE",
"157 818 CURVE",
"157 817 OFFCURVE",
"185 817 OFFCURVE",
"214 818 CURVE",
"231 818 OFFCURVE",
"250 819 OFFCURVE",
"271 820 CURVE",
"336 917 LINE",
"220 917 LINE"
);
}
);
width = 466;
}
);
unicode = 00DD;
},
{
glyphname = Thorn;
layers = (
{
hints = (
{
horizontal = 1;
place = "{0, 21}";
target = up;
type = BottomGhost;
},
{
horizontal = 1;
place = "{83, 129}";
type = Stem;
},
{
horizontal = 1;
place = "{563, 127}";
type = Stem;
},
{
place = "{30, 136}";
type = Stem;
},
{
place = "{314, 135}";
type = Stem;
}
);
layerId = "6F6D0AFA-D4D5-4829-AF83-4D7A2EC0E6ED";
paths = (
{
nodes = (
"211 690 OFFCURVE",
"187 689 OFFCURVE",
"166 685 CURVE",
"166 784 LINE",
"30 784 LINE",
"30 492 LINE",
"30 281 LINE",
"30 0 LINE",
"166 0 LINE",
"166 89 LINE",
"187 85 OFFCURVE",
"211 83 OFFCURVE",
"239 83 CURVE SMOOTH",
"430 83 OFFCURVE",
"449 163 OFFCURVE",
"449 319 CURVE SMOOTH",
"449 492 LINE SMOOTH",
"449 636 OFFCURVE",
"392 690 OFFCURVE",
"239 690 CURVE SMOOTH"
);
},
{
nodes = (
"314 319 LINE SMOOTH",
"314 250 OFFCURVE",
"314 212 OFFCURVE",
"241 212 CURVE SMOOTH",
"185 212 OFFCURVE",
"169 227 OFFCURVE",
"166 272 CURVE",
"166 536 LINE",
"171 557 OFFCURVE",
"190 563 OFFCURVE",
"239 563 CURVE SMOOTH",
"310 563 OFFCURVE",
"314 560 OFFCURVE",
"314 492 CURVE SMOOTH"
);
}
);
width = 470;
}
);
unicode = 00DE;
},
{
glyphname = germandbls;
layers = (
{
hints = (
{
horizontal = 1;
place = "{0, 127}";
type = Stem;
},
{
horizontal = 1;
place = "{347, 128}";
type = Stem;
},
{
horizontal = 1;
place = "{656, 128}";
type = Stem;
},
{
place = "{28, 133}";
type = Stem;
},
{
place = "{317, 134}";
type = Stem;
}
);
layerId = "6F6D0AFA-D4D5-4829-AF83-4D7A2EC0E6ED";
paths = (
{
nodes = (
"437 448 OFFCURVE",
"450 488 OFFCURVE",
"450 536 CURVE SMOOTH",
"450 689 OFFCURVE",
"434 784 OFFCURVE",
"239 784 CURVE SMOOTH",
"79 784 OFFCURVE",
"28 701 OFFCURVE",
"28 557 CURVE SMOOTH",
"28 0 LINE",
"161 0 LINE",
"161 557 LINE",
"163 557 LINE",
"163 625 OFFCURVE",
"164 656 OFFCURVE",
"239 656 CURVE",
"312 653 OFFCURVE",
"316 620 OFFCURVE",
"316 559 CURVE SMOOTH",
"316 513 OFFCURVE",
"319 478 OFFCURVE",
"235 475 CURVE",
"206 475 LINE",
"206 347 LINE",
"240 347 LINE SMOOTH",
"272 347 OFFCURVE",
"247 349 OFFCURVE",
"282 338 CURVE SMOOTH",
"309 330 OFFCURVE",
"317 306 OFFCURVE",
"317 238 CURVE SMOOTH",
"317 217 LINE SMOOTH",
"317 170 OFFCURVE",
"283 131 OFFCURVE",
"202 127 CURVE",
"202 0 LINE",
"398 0 OFFCURVE",
"451 84 OFFCURVE",
"451 238 CURVE SMOOTH",
"451 303 OFFCURVE",
"451 359 OFFCURVE",
"401 412 CURVE"
);
}
);
width = 468;
}
);
unicode = 00DF;
},
{
glyphname = agrave;
layers = (
{
hints = (
{
horizontal = 1;
place = "{0, 21}";
target = up;
type = BottomGhost;
},
{
horizontal = 1;
place = "{154, 126}";
type = Stem;
},
{
horizontal = 1;
place = "{779, -20}";
target = down;
type = TopGhost;
},
{
horizontal = 1;
place = "{818, 99}";
type = Stem;
},
{
horizontal = 1;
place = "{821, 98}";
type = Stem;
},
{
place = "{10, 133}";
type = Stem;
},
{
place = "{71, 113}";
type = Stem;
},
{
place = "{254, 116}";
type = Stem;
},
{
place = "{295, 135}";
type = Stem;
}
);
layerId = "6F6D0AFA-D4D5-4829-AF83-4D7A2EC0E6ED";
paths = (
{
nodes = (
"430 0 LINE",
"430 167 LINE SMOOTH",
"430 384 OFFCURVE",
"413 580 OFFCURVE",
"262 779 CURVE",
"175 779 LINE",
"26 580 OFFCURVE",
"10 385 OFFCURVE",
"10 167 CURVE SMOOTH",
"10 0 LINE",
"143 0 LINE",
"143 154 LINE",
"295 154 LINE",
"295 0 LINE"
);
},
{
nodes = (
"143 280 LINE",
"147 392 OFFCURVE",
"170 504 OFFCURVE",
"218 605 CURVE",
"264 508 OFFCURVE",
"289 385 OFFCURVE",
"294 280 CURVE"
);
},
{
nodes = (
"71 820 LINE",
"71 819 OFFCURVE",
"77 818 OFFCURVE",
"88 818 CURVE SMOOTH",
"127 818 LINE SMOOTH",
"144 818 OFFCURVE",
"163 819 OFFCURVE",
"185 820 CURVE",
"184 918 LINE",
"71 917 LINE"
);
},
{
nodes = (
"254 822 LINE",
"254 821 OFFCURVE",
"260 821 OFFCURVE",
"272 821 CURVE SMOOTH",
"312 821 LINE SMOOTH",
"329 821 OFFCURVE",
"348 821 OFFCURVE",
"370 822 CURVE",
"370 919 LINE",
"254 919 LINE"
);
}
);
width = 444;
}
);
unicode = 00E0;
},
{
glyphname = aacute;
layers = (
{
hints = (
{
horizontal = 1;
place = "{0, 21}";
target = up;
type = BottomGhost;
},
{
horizontal = 1;
place = "{154, 126}";
type = Stem;
},
{
horizontal = 1;
place = "{779, -20}";
target = down;
type = TopGhost;
},
{
horizontal = 1;
place = "{817, 100}";
type = Stem;
},
{
place = "{10, 133}";
type = Stem;
},
{
place = "{295, 135}";
type = Stem;
}
);
layerId = "6F6D0AFA-D4D5-4829-AF83-4D7A2EC0E6ED";
paths = (
{
nodes = (
"430 0 LINE",
"430 167 LINE SMOOTH",
"430 384 OFFCURVE",
"413 580 OFFCURVE",
"262 779 CURVE",
"175 779 LINE",
"26 580 OFFCURVE",
"10 385 OFFCURVE",
"10 167 CURVE SMOOTH",
"10 0 LINE",
"143 0 LINE",
"143 154 LINE",
"295 154 LINE",
"295 0 LINE"
);
},
{
nodes = (
"143 280 LINE",
"147 392 OFFCURVE",
"170 504 OFFCURVE",
"218 605 CURVE",
"264 508 OFFCURVE",
"289 385 OFFCURVE",
"294 280 CURVE"
);
},
{
nodes = (
"188 869 LINE",
"165 827 OFFCURVE",
"139 811 OFFCURVE",
"174 817 CURVE",
"214 817 LINE SMOOTH",
"231 817 OFFCURVE",
"250 817 OFFCURVE",
"271 818 CURVE",
"336 917 LINE",
"220 917 LINE"
);
}
);
width = 444;
}
);
unicode = 00E1;
},
{
glyphname = acircumflex;
layers = (
{
hints = (
{
horizontal = 1;
place = "{0, 21}";
target = up;
type = BottomGhost;
},
{
horizontal = 1;
place = "{154, 126}";
type = Stem;
},
{
horizontal = 1;
place = "{779, -20}";
target = down;
type = TopGhost;
},
{
horizontal = 1;
place = "{816, 113}";
type = Stem;
},
{
place = "{10, 133}";
type = Stem;
},
{
place = "{295, 135}";
type = Stem;
}
);
layerId = "6F6D0AFA-D4D5-4829-AF83-4D7A2EC0E6ED";
paths = (
{
nodes = (
"430 0 LINE",
"430 167 LINE SMOOTH",
"430 384 OFFCURVE",
"413 580 OFFCURVE",
"262 779 CURVE",
"175 779 LINE",
"26 580 OFFCURVE",
"10 385 OFFCURVE",
"10 167 CURVE SMOOTH",
"10 0 LINE",
"143 0 LINE",
"143 154 LINE",
"295 154 LINE",
"295 0 LINE"
);
},
{
nodes = (
"143 280 LINE",
"147 392 OFFCURVE",
"170 504 OFFCURVE",
"218 605 CURVE",
"264 508 OFFCURVE",
"289 385 OFFCURVE",
"294 280 CURVE"
);
},
{
nodes = (
"59 815 LINE",
"174 815 LINE",
"221 883 LINE",
"271 816 LINE",
"396 816 LINE",
"323 929 LINE",
"131 929 LINE"
);
}
);
width = 444;
}
);
unicode = 00E2;
},
{
glyphname = atilde;
layers = (
{
hints = (
{
horizontal = 1;
place = "{0, 21}";
target = up;
type = BottomGhost;
},
{
horizontal = 1;
place = "{154, 126}";
type = Stem;
},
{
horizontal = 1;
place = "{779, -20}";
target = down;
type = TopGhost;
},
{
horizontal = 1;
place = "{805, 79}";
type = Stem;
},
{
horizontal = 1;
place = "{850, 78}";
type = Stem;
},
{
place = "{10, 133}";
type = Stem;
},
{
place = "{295, 135}";
type = Stem;
}
);
layerId = "6F6D0AFA-D4D5-4829-AF83-4D7A2EC0E6ED";
paths = (
{
nodes = (
"430 0 LINE",
"430 167 LINE SMOOTH",
"430 384 OFFCURVE",
"413 580 OFFCURVE",
"262 779 CURVE",
"175 779 LINE",
"26 580 OFFCURVE",
"10 385 OFFCURVE",
"10 167 CURVE SMOOTH",
"10 0 LINE",
"143 0 LINE",
"143 154 LINE",
"295 154 LINE",
"295 0 LINE"
);
},
{
nodes = (
"143 280 LINE",
"147 392 OFFCURVE",
"170 504 OFFCURVE",
"218 605 CURVE",
"264 508 OFFCURVE",
"289 385 OFFCURVE",
"294 280 CURVE"
);
},
{
nodes = (
"352 920 LINE",
"348 914 LINE",
"336 898 OFFCURVE",
"323 888 OFFCURVE",
"308 884 CURVE SMOOTH",
"291 880 OFFCURVE",
"268 887 OFFCURVE",
"241 906 CURVE SMOOTH",
"220 921 OFFCURVE",
"198 928 OFFCURVE",
"175 928 CURVE SMOOTH",
"151 928 OFFCURVE",
"128 921 OFFCURVE",
"107 906 CURVE",
"75 889 OFFCURVE",
"56 861 OFFCURVE",
"53 858 CURVE",
"49 851 LINE",
"98 806 LINE",
"103 803 LINE",
"108 809 LINE",
"118 818 LINE",
"127 829 LINE",
"142 840 LINE",
"151 845 OFFCURVE",
"163 850 OFFCURVE",
"175 850 CURVE SMOOTH",
"184 850 OFFCURVE",
"194 845 OFFCURVE",
"203 840 CURVE",
"237 817 OFFCURVE",
"269 805 OFFCURVE",
"299 805 CURVE SMOOTH",
"310 805 LINE SMOOTH",
"314 805 OFFCURVE",
"318 805 OFFCURVE",
"322 806 CURVE SMOOTH",
"351 813 OFFCURVE",
"377 832 OFFCURVE",
"402 862 CURVE SMOOTH",
"407 868 LINE"
);
}
);
width = 444;
}
);
unicode = 00E3;
},
{
glyphname = adieresis;
layers = (
{
hints = (
{
horizontal = 1;
place = "{0, 21}";
target = up;
type = BottomGhost;
},
{
horizontal = 1;
place = "{154, 126}";
type = Stem;
},
{
horizontal = 1;
place = "{779, -20}";
target = down;
type = TopGhost;
},
{
horizontal = 1;
place = "{818, 99}";
type = Stem;
},
{
place = "{10, 133}";
type = Stem;
},
{
place = "{295, 135}";
type = Stem;
}
);
layerId = "6F6D0AFA-D4D5-4829-AF83-4D7A2EC0E6ED";
paths = (
{
nodes = (
"430 0 LINE",
"430 167 LINE SMOOTH",
"430 384 OFFCURVE",
"413 580 OFFCURVE",
"262 779 CURVE",
"175 779 LINE",
"26 580 OFFCURVE",
"10 385 OFFCURVE",
"10 167 CURVE SMOOTH",
"10 0 LINE",
"143 0 LINE",
"143 154 LINE",
"295 154 LINE",
"295 0 LINE"
);
},
{
nodes = (
"143 280 LINE",
"147 392 OFFCURVE",
"170 504 OFFCURVE",
"218 605 CURVE",
"264 508 OFFCURVE",
"289 385 OFFCURVE",
"294 280 CURVE"
);
},
{
nodes = (
"142 869 LINE",
"159 845 OFFCURVE",
"179 821 OFFCURVE",
"179 818 CURVE",
"179 817 OFFCURVE",
"207 817 OFFCURVE",
"235 818 CURVE",
"252 818 OFFCURVE",
"271 819 OFFCURVE",
"293 820 CURVE",
"221 917 LINE",
"104 917 LINE"
);
}
);
width = 444;
}
);
unicode = 00E4;
},
{
glyphname = aring;
layers = (
{
hints = (
{
horizontal = 1;
place = "{0, 21}";
target = up;
type = BottomGhost;
},
{
horizontal = 1;
place = "{154, 126}";
type = Stem;
},
{
horizontal = 1;
place = "{779, -20}";
target = down;
type = TopGhost;
},
{
horizontal = 1;
place = "{805, 61}";
type = Stem;
},
{
horizontal = 1;
place = "{918, 66}";
type = Stem;
},
{
place = "{10, 133}";
type = Stem;
},
{
place = "{127, 62}";
type = Stem;
},
{
place = "{245, 61}";
type = Stem;
},
{
place = "{295, 135}";
type = Stem;
}
);
layerId = "6F6D0AFA-D4D5-4829-AF83-4D7A2EC0E6ED";
paths = (
{
nodes = (
"430 0 LINE",
"430 167 LINE SMOOTH",
"430 384 OFFCURVE",
"413 580 OFFCURVE",
"262 779 CURVE",
"175 779 LINE",
"26 580 OFFCURVE",
"10 385 OFFCURVE",
"10 167 CURVE SMOOTH",
"10 0 LINE",
"143 0 LINE",
"143 154 LINE",
"295 154 LINE",
"295 0 LINE"
);
},
{
nodes = (
"143 280 LINE",
"147 392 OFFCURVE",
"170 504 OFFCURVE",
"218 605 CURVE",
"264 508 OFFCURVE",
"289 385 OFFCURVE",
"294 280 CURVE"
);
},
{
nodes = (
"127 846 OFFCURVE",
"166 805 OFFCURVE",
"217 805 CURVE SMOOTH",
"269 805 OFFCURVE",
"306 846 OFFCURVE",
"306 893 CURVE SMOOTH",
"306 944 OFFCURVE",
"269 984 OFFCURVE",
"217 984 CURVE SMOOTH",
"166 984 OFFCURVE",
"127 944 OFFCURVE",
"127 893 CURVE SMOOTH"
);
},
{
nodes = (
"230 918 OFFCURVE",
"245 906 OFFCURVE",
"245 891 CURVE SMOOTH",
"245 878 OFFCURVE",
"230 866 OFFCURVE",
"217 866 CURVE SMOOTH",
"179 866 OFFCURVE",
"179 918 OFFCURVE",
"217 918 CURVE SMOOTH"
);
}
);
width = 445;
}
);
unicode = 00E5;
},
{
glyphname = ae;
layers = (
{
hints = (
{
horizontal = 1;
place = "{0, 127}";
type = Stem;
},
{
horizontal = 1;
place = "{154, 126}";
type = Stem;
},
{
horizontal = 1;
place = "{344, 128}";
type = Stem;
},
{
horizontal = 1;
place = "{653, 126}";
type = Stem;
},
{
horizontal = 1;
place = "{668, 111}";
type = Stem;
},
{
place = "{31, 133}";
type = Stem;
},
{
place = "{308, 135}";
type = Stem;
}
);
layerId = "6F6D0AFA-D4D5-4829-AF83-4D7A2EC0E6ED";
paths = (
{
nodes = (
"688 653 LINE",
"688 779 LINE",
"313 779 LINE",
"224 779 LINE",
"72 590 OFFCURVE",
"31 387 OFFCURVE",
"31 167 CURVE SMOOTH",
"31 0 LINE",
"164 0 LINE",
"164 154 LINE",
"308 154 LINE",
"308 0 LINE",
"688 0 LINE",
"688 127 LINE",
"443 127 LINE",
"443 344 LINE",
"616 344 LINE",
"616 472 LINE",
"443 472 LINE",
"443 653 LINE"
);
},
{
nodes = (
"164 280 LINE",
"172 506 OFFCURVE",
"244 579 OFFCURVE",
"308 668 CURVE",
"308 280 LINE"
);
}
);
width = 716;
}
);
unicode = 00E6;
},
{
glyphname = ccedilla;
layers = (
{
hints = (
{
horizontal = 1;
place = "{-161, 27}";
type = Stem;
},
{
horizontal = 1;
place = "{0, 132}";
type = Stem;
},
{
horizontal = 1;
place = "{652, 127}";
type = Stem;
},
{
place = "{35, 134}";
type = Stem;
},
{
place = "{322, 133}";
type = Stem;
}
);
layerId = "6F6D0AFA-D4D5-4829-AF83-4D7A2EC0E6ED";
paths = (
{
nodes = (
"322 226 LINE",
"323 215 OFFCURVE",
"324 203 OFFCURVE",
"324 191 CURVE SMOOTH",
"324 168 OFFCURVE",
"321 144 OFFCURVE",
"308 140 CURVE SMOOTH",
"295 135 OFFCURVE",
"277 132 OFFCURVE",
"254 132 CURVE SMOOTH",
"214 132 OFFCURVE",
"174 144 OFFCURVE",
"170 172 CURVE",
"169 208 OFFCURVE",
"169 240 OFFCURVE",
"169 269 CURVE SMOOTH",
"169 349 LINE",
"169 581 LINE SMOOTH",
"169 649 OFFCURVE",
"168 652 OFFCURVE",
"245 652 CURVE SMOOTH",
"321 652 OFFCURVE",
"322 645 OFFCURVE",
"322 575 CURVE",
"455 575 LINE",
"455 719 OFFCURVE",
"403 779 OFFCURVE",
"245 779 CURVE SMOOTH",
"85 779 OFFCURVE",
"35 719 OFFCURVE",
"35 581 CURVE SMOOTH",
"35 198 LINE SMOOTH",
"35 67 OFFCURVE",
"96 0 OFFCURVE",
"211 1 CURVE",
"179 -47 LINE",
"183 -47 OFFCURVE",
"189 -46 OFFCURVE",
"192 -46 CURVE SMOOTH",
"203 -46 OFFCURVE",
"213 -49 OFFCURVE",
"222 -56 CURVE",
"230 -64 OFFCURVE",
"234 -73 OFFCURVE",
"234 -82 CURVE SMOOTH",
"234 -95 OFFCURVE",
"228 -107 OFFCURVE",
"216 -118 CURVE SMOOTH",
"203 -129 OFFCURVE",
"187 -134 OFFCURVE",
"170 -134 CURVE SMOOTH",
"162 -134 OFFCURVE",
"154 -133 OFFCURVE",
"145 -132 CURVE",
"155 -161 LINE",
"212 -165 OFFCURVE",
"259 -169 OFFCURVE",
"296 -137 CURVE SMOOTH",
"317 -120 OFFCURVE",
"328 -91 OFFCURVE",
"328 -70 CURVE SMOOTH",
"328 -53 OFFCURVE",
"322 -38 OFFCURVE",
"311 -25 CURVE SMOOTH",
"300 -13 OFFCURVE",
"284 -5 OFFCURVE",
"263 0 CURVE",
"268 0 LINE SMOOTH",
"433 0 OFFCURVE",
"455 88 OFFCURVE",
"455 242 CURVE",
"322 242 LINE"
);
}
);
width = 486;
}
);
unicode = 00E7;
},
{
glyphname = egrave;
layers = (
{
hints = (
{
horizontal = 1;
place = "{0, 127}";
type = Stem;
},
{
horizontal = 1;
place = "{344, 128}";
type = Stem;
},
{
horizontal = 1;
place = "{653, 126}";
type = Stem;
},
{
horizontal = 1;
place = "{818, 99}";
type = Stem;
},
{
place = "{35, 134}";
type = Stem;
}
);
layerId = "6F6D0AFA-D4D5-4829-AF83-4D7A2EC0E6ED";
paths = (
{
nodes = (
"414 127 LINE",
"169 127 LINE",
"169 344 LINE",
"342 344 LINE",
"342 472 LINE",
"169 472 LINE",
"169 653 LINE",
"414 653 LINE",
"414 779 LINE",
"35 779 LINE",
"35 0 LINE",
"414 0 LINE"
);
},
{
nodes = (
"142 869 LINE",
"159 845 OFFCURVE",
"179 821 OFFCURVE",
"179 818 CURVE",
"179 817 OFFCURVE",
"207 817 OFFCURVE",
"235 818 CURVE",
"252 818 OFFCURVE",
"271 819 OFFCURVE",
"293 820 CURVE",
"221 917 LINE",
"104 917 LINE"
);
}
);
width = 449;
}
);
unicode = 00E8;
},
{
glyphname = eacute;
layers = (
{
hints = (
{
horizontal = 1;
place = "{0, 127}";
type = Stem;
},
{
horizontal = 1;
place = "{344, 128}";
type = Stem;
},
{
horizontal = 1;
place = "{653, 126}";
type = Stem;
},
{
horizontal = 1;
place = "{818, 99}";
type = Stem;
},
{
place = "{35, 134}";
type = Stem;
}
);
layerId = "6F6D0AFA-D4D5-4829-AF83-4D7A2EC0E6ED";
paths = (
{
nodes = (
"414 127 LINE",
"169 127 LINE",
"169 344 LINE",
"342 344 LINE",
"342 472 LINE",
"169 472 LINE",
"169 653 LINE",
"414 653 LINE",
"414 779 LINE",
"35 779 LINE",
"35 0 LINE",
"414 0 LINE"
);
},
{
nodes = (
"188 869 LINE SMOOTH",
"172 845 OFFCURVE",
"157 821 OFFCURVE",
"157 818 CURVE",
"157 817 OFFCURVE",
"185 817 OFFCURVE",
"214 818 CURVE",
"231 818 OFFCURVE",
"250 819 OFFCURVE",
"271 820 CURVE",
"336 917 LINE",
"220 917 LINE"
);
}
);
width = 449;
}
);
unicode = 00E9;
},
{
glyphname = ecircumflex;
layers = (
{
hints = (
{
horizontal = 1;
place = "{0, 127}";
type = Stem;
},
{
horizontal = 1;
place = "{344, 128}";
type = Stem;
},
{
horizontal = 1;
place = "{653, 126}";
type = Stem;
},
{
horizontal = 1;
place = "{821, 109}";
type = Stem;
},
{
place = "{35, 134}";
type = Stem;
}
);
layerId = "6F6D0AFA-D4D5-4829-AF83-4D7A2EC0E6ED";
paths = (
{
nodes = (
"414 127 LINE",
"169 127 LINE",
"169 344 LINE",
"342 344 LINE",
"342 472 LINE",
"169 472 LINE",
"169 653 LINE",
"414 653 LINE",
"414 779 LINE",
"35 779 LINE",
"35 0 LINE",
"414 0 LINE"
);
},
{
nodes = (
"49 821 LINE",
"174 821 LINE",
"221 886 LINE",
"271 821 LINE",
"396 821 LINE",
"324 931 LINE",
"119 930 LINE"
);
}
);
width = 449;
}
);
unicode = 00EA;
},
{
glyphname = edieresis;
layers = (
{
hints = (
{
horizontal = 1;
place = "{0, 127}";
type = Stem;
},
{
horizontal = 1;
place = "{344, 128}";
type = Stem;
},
{
horizontal = 1;
place = "{653, 126}";
type = Stem;
},
{
horizontal = 1;
place = "{818, 99}";
type = Stem;
},
{
horizontal = 1;
place = "{821, 98}";
type = Stem;
},
{
place = "{35, 134}";
type = Stem;
},
{
place = "{71, 114}";
type = Stem;
},
{
place = "{258, 114}";
type = Stem;
}
);
layerId = "6F6D0AFA-D4D5-4829-AF83-4D7A2EC0E6ED";
paths = (
{
nodes = (
"414 127 LINE",
"169 127 LINE",
"169 344 LINE",
"342 344 LINE",
"342 472 LINE",
"169 472 LINE",
"169 653 LINE",
"414 653 LINE",
"414 779 LINE",
"35 779 LINE",
"35 0 LINE",
"414 0 LINE"
);
},
{
nodes = (
"71 818 LINE",
"71 817 OFFCURVE",
"99 817 OFFCURVE",
"127 818 CURVE",
"144 818 OFFCURVE",
"163 819 OFFCURVE",
"185 820 CURVE",
"186 917 LINE",
"71 917 LINE"
);
},
{
nodes = (
"258 822 LINE",
"258 821 OFFCURVE",
"264 821 OFFCURVE",
"276 821 CURVE SMOOTH",
"314 821 LINE SMOOTH",
"331 821 OFFCURVE",
"351 821 OFFCURVE",
"372 822 CURVE",
"373 919 LINE",
"258 919 LINE"
);
}
);
width = 449;
}
);
unicode = 00EB;
},
{
glyphname = igrave;
layers = (
{
hints = (
{
horizontal = 1;
place = "{0, 21}";
target = up;
type = BottomGhost;
},
{
horizontal = 1;
place = "{818, 99}";
type = Stem;
},
{
place = "{34, 135}";
type = Stem;
}
);
layerId = "6F6D0AFA-D4D5-4829-AF83-4D7A2EC0E6ED";
paths = (
{
nodes = (
"34 0 LINE",
"169 0 LINE",
"169 776 LINE",
"34 776 LINE"
);
},
{
nodes = (
"26 869 LINE SMOOTH",
"45 845 OFFCURVE",
"64 821 OFFCURVE",
"64 818 CURVE",
"64 817 OFFCURVE",
"91 817 OFFCURVE",
"120 818 CURVE",
"137 818 OFFCURVE",
"156 819 OFFCURVE",
"178 820 CURVE",
"106 917 LINE",
"-11 917 LINE"
);
}
);
width = 203;
}
);
unicode = 00EC;
},
{
glyphname = iacute;
layers = (
{
hints = (
{
horizontal = 1;
place = "{0, 21}";
target = up;
type = BottomGhost;
},
{
horizontal = 1;
place = "{818, 99}";
type = Stem;
},
{
place = "{34, 135}";
type = Stem;
}
);
layerId = "6F6D0AFA-D4D5-4829-AF83-4D7A2EC0E6ED";
paths = (
{
nodes = (
"34 0 LINE",
"169 0 LINE",
"169 776 LINE",
"34 776 LINE"
);
},
{
nodes = (
"70 869 LINE SMOOTH",
"54 845 OFFCURVE",
"38 821 OFFCURVE",
"38 818 CURVE",
"38 817 OFFCURVE",
"66 817 OFFCURVE",
"95 818 CURVE",
"112 818 OFFCURVE",
"131 819 OFFCURVE",
"152 820 CURVE",
"217 917 LINE",
"101 917 LINE"
);
}
);
width = 203;
}
);
unicode = 00ED;
},
{
glyphname = icircumflex;
layers = (
{
hints = (
{
horizontal = 1;
place = "{0, 21}";
target = up;
type = BottomGhost;
},
{
horizontal = 1;
place = "{818, 109}";
type = Stem;
},
{
place = "{34, 135}";
type = Stem;
}
);
layerId = "6F6D0AFA-D4D5-4829-AF83-4D7A2EC0E6ED";
paths = (
{
nodes = (
"34 0 LINE",
"169 0 LINE",
"169 776 LINE",
"34 776 LINE"
);
},
{
nodes = (
"-67 814 LINE",
"58 814 LINE",
"104 883 LINE",
"155 818 LINE",
"280 818 LINE",
"208 929 LINE",
"2 926 LINE"
);
}
);
width = 203;
}
);
unicode = 00EE;
},
{
glyphname = idieresis;
layers = (
{
hints = (
{
horizontal = 1;
place = "{0, 21}";
target = up;
type = BottomGhost;
},
{
horizontal = 1;
place = "{818, 99}";
type = Stem;
},
{
horizontal = 1;
place = "{821, 98}";
type = Stem;
},
{
place = "{-42, 114}";
type = Stem;
},
{
place = "{35, 135}";
type = Stem;
},
{
place = "{134, 115}";
type = Stem;
}
);
layerId = "6F6D0AFA-D4D5-4829-AF83-4D7A2EC0E6ED";
paths = (
{
nodes = (
"35 0 LINE",
"170 0 LINE",
"170 776 LINE",
"35 776 LINE"
);
},
{
nodes = (
"-42 818 LINE",
"-42 817 OFFCURVE",
"-14 817 OFFCURVE",
"14 818 CURVE",
"31 818 OFFCURVE",
"51 819 OFFCURVE",
"72 820 CURVE",
"73 917 LINE",
"-42 917 LINE"
);
},
{
nodes = (
"134 822 LINE",
"134 821 OFFCURVE",
"140 821 OFFCURVE",
"152 821 CURVE SMOOTH",
"191 821 LINE SMOOTH",
"208 821 OFFCURVE",
"227 821 OFFCURVE",
"248 822 CURVE",
"250 919 LINE",
"134 919 LINE"
);
}
);
width = 203;
}
);
unicode = 00EF;
},
{
glyphname = eth;
layers = (
{
hints = (
{
horizontal = 1;
place = "{0, 127}";
type = Stem;
},
{
horizontal = 1;
place = "{334, 128}";
type = Stem;
},
{
horizontal = 1;
place = "{653, 126}";
type = Stem;
},
{
place = "{58, 134}";
type = Stem;
},
{
place = "{344, 134}";
type = Stem;
}
);
layerId = "6F6D0AFA-D4D5-4829-AF83-4D7A2EC0E6ED";
paths = (
{
nodes = (
"58 779 LINE",
"58 462 LINE",
"22 462 LINE",
"22 334 LINE",
"58 334 LINE",
"58 0 LINE",
"176 0 LINE SMOOTH",
"340 0 OFFCURVE",
"478 18 OFFCURVE",
"478 218 CURVE SMOOTH",
"478 577 LINE SMOOTH",
"478 717 OFFCURVE",
"425 779 OFFCURVE",
"268 779 CURVE SMOOTH"
);
},
{
nodes = (
"344 223 LINE SMOOTH",
"344 131 OFFCURVE",
"301 127 OFFCURVE",
"192 127 CURVE",
"192 334 LINE",
"287 334 LINE",
"287 462 LINE",
"192 462 LINE",
"192 653 LINE",
"217 653 LINE SMOOTH",
"305 653 OFFCURVE",
"344 655 OFFCURVE",
"344 565 CURVE SMOOTH"
);
}
);
width = 504;
}
);
unicode = 00F0;
},
{
glyphname = ntilde;
layers = (
{
hints = (
{
horizontal = 1;
place = "{0, 21}";
target = up;
type = BottomGhost;
},
{
horizontal = 1;
place = "{779, -20}";
target = down;
type = TopGhost;
},
{
horizontal = 1;
place = "{808, 79}";
type = Stem;
},
{
horizontal = 1;
place = "{852, 78}";
type = Stem;
},
{
place = "{35, 133}";
type = Stem;
},
{
place = "{360, 136}";
type = Stem;
}
);
layerId = "6F6D0AFA-D4D5-4829-AF83-4D7A2EC0E6ED";
paths = (
{
nodes = (
"496 779 LINE",
"360 779 LINE",
"360 337 LINE",
"167 779 LINE",
"35 779 LINE",
"35 0 LINE",
"168 0 LINE",
"168 442 LINE",
"361 0 LINE",
"496 0 LINE"
);
},
{
nodes = (
"395 923 LINE",
"391 917 LINE",
"379 901 OFFCURVE",
"366 891 OFFCURVE",
"352 887 CURVE SMOOTH",
"334 883 OFFCURVE",
"311 890 OFFCURVE",
"284 908 CURVE SMOOTH",
"263 923 OFFCURVE",
"241 930 OFFCURVE",
"218 930 CURVE SMOOTH",
"194 930 OFFCURVE",
"171 923 OFFCURVE",
"150 908 CURVE",
"118 891 OFFCURVE",
"99 864 OFFCURVE",
"96 860 CURVE",
"92 853 LINE",
"142 809 LINE",
"146 805 LINE",
"151 811 LINE",
"161 821 LINE",
"170 832 LINE",
"185 842 LINE",
"194 847 OFFCURVE",
"206 852 OFFCURVE",
"218 852 CURVE SMOOTH",
"229 852 OFFCURVE",
"237 847 OFFCURVE",
"246 842 CURVE",
"281 819 OFFCURVE",
"313 808 OFFCURVE",
"342 808 CURVE SMOOTH",
"353 808 LINE SMOOTH",
"357 808 OFFCURVE",
"361 808 OFFCURVE",
"365 809 CURVE SMOOTH",
"394 816 OFFCURVE",
"420 835 OFFCURVE",
"445 864 CURVE SMOOTH",
"450 870 LINE"
);
}
);
width = 535;
}
);
unicode = 00F1;
},
{
glyphname = ograve;
layers = (
{
hints = (
{
horizontal = 1;
place = "{0, 130}";
type = Stem;
},
{
horizontal = 1;
place = "{652, 127}";
type = Stem;
},
{
horizontal = 1;
place = "{816, 98}";
type = Stem;
},
{
place = "{30, 134}";
type = Stem;
},
{
place = "{314, 135}";
type = Stem;
}
);
layerId = "6F6D0AFA-D4D5-4829-AF83-4D7A2EC0E6ED";
paths = (
{
nodes = (
"449 581 LINE SMOOTH",
"449 724 OFFCURVE",
"393 779 OFFCURVE",
"238 779 CURVE SMOOTH",
"86 779 OFFCURVE",
"30 724 OFFCURVE",
"30 581 CURVE SMOOTH",
"30 198 LINE SMOOTH",
"30 54 OFFCURVE",
"85 0 OFFCURVE",
"239 0 CURVE SMOOTH",
"430 0 OFFCURVE",
"449 80 OFFCURVE",
"449 236 CURVE SMOOTH"
);
},
{
nodes = (
"162 581 LINE",
"162 638 OFFCURVE",
"165 652 OFFCURVE",
"239 652 CURVE SMOOTH",
"310 652 OFFCURVE",
"314 649 OFFCURVE",
"314 581 CURVE SMOOTH",
"314 236 LINE SMOOTH",
"314 166 OFFCURVE",
"314 130 OFFCURVE",
"241 130 CURVE SMOOTH",
"173 130 OFFCURVE",
"164 149 OFFCURVE",
"164 230 CURVE"
);
},
{
nodes = (
"161 866 LINE",
"178 842 OFFCURVE",
"198 817 OFFCURVE",
"198 816 CURVE",
"198 815 OFFCURVE",
"226 815 OFFCURVE",
"254 816 CURVE",
"271 816 OFFCURVE",
"291 816 OFFCURVE",
"312 817 CURVE",
"240 914 LINE",
"124 914 LINE"
);
}
);
width = 482;
}
);
unicode = 00F2;
},
{
glyphname = oacute;
layers = (
{
hints = (
{
horizontal = 1;
place = "{0, 130}";
type = Stem;
},
{
horizontal = 1;
place = "{652, 127}";
type = Stem;
},
{
horizontal = 1;
place = "{818, 99}";
type = Stem;
},
{
place = "{30, 134}";
type = Stem;
},
{
place = "{314, 135}";
type = Stem;
}
);
layerId = "6F6D0AFA-D4D5-4829-AF83-4D7A2EC0E6ED";
paths = (
{
nodes = (
"449 581 LINE SMOOTH",
"449 724 OFFCURVE",
"393 779 OFFCURVE",
"238 779 CURVE SMOOTH",
"86 779 OFFCURVE",
"30 724 OFFCURVE",
"30 581 CURVE SMOOTH",
"30 198 LINE SMOOTH",
"30 54 OFFCURVE",
"85 0 OFFCURVE",
"239 0 CURVE SMOOTH",
"430 0 OFFCURVE",
"449 80 OFFCURVE",
"449 236 CURVE SMOOTH"
);
},
{
nodes = (
"162 581 LINE",
"162 638 OFFCURVE",
"165 652 OFFCURVE",
"239 652 CURVE SMOOTH",
"310 652 OFFCURVE",
"314 649 OFFCURVE",
"314 581 CURVE SMOOTH",
"314 236 LINE SMOOTH",
"314 166 OFFCURVE",
"314 130 OFFCURVE",
"241 130 CURVE SMOOTH",
"173 130 OFFCURVE",
"164 149 OFFCURVE",
"164 230 CURVE"
);
},
{
nodes = (
"194 869 LINE SMOOTH",
"178 845 OFFCURVE",
"163 821 OFFCURVE",
"163 818 CURVE",
"163 817 OFFCURVE",
"191 817 OFFCURVE",
"220 818 CURVE",
"237 818 OFFCURVE",
"256 819 OFFCURVE",
"277 820 CURVE",
"342 917 LINE",
"226 917 LINE"
);
}
);
width = 482;
}
);
unicode = 00F3;
},
{
glyphname = ocircumflex;
layers = (
{
hints = (
{
horizontal = 1;
place = "{0, 130}";
type = Stem;
},
{
horizontal = 1;
place = "{652, 127}";
type = Stem;
},
{
horizontal = 1;
place = "{816, 111}";
type = Stem;
},
{
place = "{30, 134}";
type = Stem;
},
{
place = "{314, 135}";
type = Stem;
}
);
layerId = "6F6D0AFA-D4D5-4829-AF83-4D7A2EC0E6ED";
paths = (
{
nodes = (
"449 581 LINE SMOOTH",
"449 724 OFFCURVE",
"393 779 OFFCURVE",
"238 779 CURVE SMOOTH",
"86 779 OFFCURVE",
"30 724 OFFCURVE",
"30 581 CURVE SMOOTH",
"30 198 LINE SMOOTH",
"30 54 OFFCURVE",
"85 0 OFFCURVE",
"239 0 CURVE SMOOTH",
"430 0 OFFCURVE",
"449 80 OFFCURVE",
"449 236 CURVE SMOOTH"
);
},
{
nodes = (
"162 581 LINE",
"162 638 OFFCURVE",
"165 652 OFFCURVE",
"239 652 CURVE SMOOTH",
"310 652 OFFCURVE",
"314 649 OFFCURVE",
"314 581 CURVE SMOOTH",
"314 236 LINE SMOOTH",
"314 166 OFFCURVE",
"314 130 OFFCURVE",
"241 130 CURVE SMOOTH",
"173 130 OFFCURVE",
"164 149 OFFCURVE",
"164 230 CURVE"
);
},
{
nodes = (
"65 811 LINE",
"190 811 LINE",
"236 883 LINE",
"287 816 LINE",
"412 816 LINE",
"340 929 LINE",
"134 926 LINE"
);
}
);
width = 482;
}
);
unicode = 00F4;
},
{
glyphname = otilde;
layers = (
{
hints = (
{
horizontal = 1;
place = "{0, 130}";
type = Stem;
},
{
horizontal = 1;
place = "{652, 127}";
type = Stem;
},
{
horizontal = 1;
place = "{805, 79}";
type = Stem;
},
{
horizontal = 1;
place = "{850, 78}";
type = Stem;
},
{
place = "{30, 134}";
type = Stem;
},
{
place = "{314, 135}";
type = Stem;
}
);
layerId = "6F6D0AFA-D4D5-4829-AF83-4D7A2EC0E6ED";
paths = (
{
nodes = (
"449 581 LINE SMOOTH",
"449 724 OFFCURVE",
"393 779 OFFCURVE",
"238 779 CURVE SMOOTH",
"86 779 OFFCURVE",
"30 724 OFFCURVE",
"30 581 CURVE SMOOTH",
"30 198 LINE SMOOTH",
"30 54 OFFCURVE",
"85 0 OFFCURVE",
"239 0 CURVE SMOOTH",
"430 0 OFFCURVE",
"449 80 OFFCURVE",
"449 236 CURVE SMOOTH"
);
},
{
nodes = (
"162 581 LINE",
"162 638 OFFCURVE",
"165 652 OFFCURVE",
"239 652 CURVE SMOOTH",
"310 652 OFFCURVE",
"314 649 OFFCURVE",
"314 581 CURVE SMOOTH",
"314 236 LINE SMOOTH",
"314 166 OFFCURVE",
"314 130 OFFCURVE",
"241 130 CURVE SMOOTH",
"173 130 OFFCURVE",
"164 149 OFFCURVE",
"164 230 CURVE"
);
},
{
nodes = (
"365 920 LINE",
"361 914 LINE",
"349 898 OFFCURVE",
"336 888 OFFCURVE",
"322 884 CURVE SMOOTH",
"304 880 OFFCURVE",
"281 887 OFFCURVE",
"254 906 CURVE SMOOTH",
"233 921 OFFCURVE",
"211 928 OFFCURVE",
"188 928 CURVE SMOOTH",
"164 928 OFFCURVE",
"141 921 OFFCURVE",
"120 906 CURVE",
"88 889 OFFCURVE",
"69 861 OFFCURVE",
"66 858 CURVE",
"62 851 LINE",
"112 806 LINE",
"116 803 LINE",
"121 809 LINE",
"131 818 LINE",
"142 828 LINE",
"145 832 OFFCURVE",
"149 836 OFFCURVE",
"155 840 CURVE SMOOTH",
"164 845 OFFCURVE",
"176 850 OFFCURVE",
"188 850 CURVE SMOOTH",
"199 850 OFFCURVE",
"207 845 OFFCURVE",
"216 840 CURVE",
"251 817 OFFCURVE",
"283 805 OFFCURVE",
"312 805 CURVE SMOOTH",
"324 805 LINE SMOOTH",
"327 805 OFFCURVE",
"331 805 OFFCURVE",
"335 806 CURVE SMOOTH",
"364 813 OFFCURVE",
"390 832 OFFCURVE",
"415 862 CURVE SMOOTH",
"420 868 LINE"
);
}
);
width = 482;
}
);
unicode = 00F5;
},
{
glyphname = odieresis;
layers = (
{
hints = (
{
horizontal = 1;
place = "{0, 130}";
type = Stem;
},
{
horizontal = 1;
place = "{652, 127}";
type = Stem;
},
{
horizontal = 1;
place = "{818, 99}";
type = Stem;
},
{
horizontal = 1;
place = "{821, 98}";
type = Stem;
},
{
place = "{30, 134}";
type = Stem;
},
{
place = "{94, 114}";
type = Stem;
},
{
place = "{281, 114}";
type = Stem;
},
{
place = "{314, 135}";
type = Stem;
}
);
layerId = "6F6D0AFA-D4D5-4829-AF83-4D7A2EC0E6ED";
paths = (
{
nodes = (
"449 581 LINE SMOOTH",
"449 724 OFFCURVE",
"393 779 OFFCURVE",
"238 779 CURVE SMOOTH",
"86 779 OFFCURVE",
"30 724 OFFCURVE",
"30 581 CURVE SMOOTH",
"30 198 LINE SMOOTH",
"30 54 OFFCURVE",
"85 0 OFFCURVE",
"239 0 CURVE SMOOTH",
"430 0 OFFCURVE",
"449 80 OFFCURVE",
"449 236 CURVE SMOOTH"
);
},
{
nodes = (
"162 581 LINE",
"162 638 OFFCURVE",
"165 652 OFFCURVE",
"239 652 CURVE SMOOTH",
"310 652 OFFCURVE",
"314 649 OFFCURVE",
"314 581 CURVE SMOOTH",
"314 236 LINE SMOOTH",
"314 166 OFFCURVE",
"314 130 OFFCURVE",
"241 130 CURVE SMOOTH",
"173 130 OFFCURVE",
"164 149 OFFCURVE",
"164 230 CURVE"
);
},
{
nodes = (
"94 818 LINE",
"94 817 OFFCURVE",
"121 817 OFFCURVE",
"150 818 CURVE",
"167 818 OFFCURVE",
"186 819 OFFCURVE",
"208 820 CURVE",
"209 917 LINE",
"94 917 LINE"
);
},
{
nodes = (
"281 822 LINE",
"281 821 OFFCURVE",
"287 821 OFFCURVE",
"299 821 CURVE SMOOTH",
"337 821 LINE SMOOTH",
"354 821 OFFCURVE",
"373 821 OFFCURVE",
"395 822 CURVE",
"396 919 LINE",
"281 919 LINE"
);
}
);
width = 482;
}
);
unicode = 00F6;
},
{
glyphname = divide;
layers = (
{
hints = (
{
horizontal = 1;
place = "{152, 62}";
type = Stem;
},
{
horizontal = 1;
place = "{265, 66}";
type = Stem;
},
{
horizontal = 1;
place = "{367, 97}";
type = Stem;
},
{
horizontal = 1;
place = "{496, 61}";
type = Stem;
},
{
horizontal = 1;
place = "{608, 66}";
type = Stem;
},
{
place = "{118, 62}";
type = Stem;
},
{
place = "{235, 61}";
type = Stem;
}
);
layerId = "6F6D0AFA-D4D5-4829-AF83-4D7A2EC0E6ED";
paths = (
{
nodes = (
"385 464 LINE",
"29 464 LINE",
"29 367 LINE",
"385 367 LINE"
);
},
{
nodes = (
"118 536 OFFCURVE",
"156 496 OFFCURVE",
"207 496 CURVE SMOOTH",
"259 496 OFFCURVE",
"296 536 OFFCURVE",
"296 583 CURVE SMOOTH",
"296 635 OFFCURVE",
"259 674 OFFCURVE",
"207 674 CURVE SMOOTH",
"156 674 OFFCURVE",
"118 635 OFFCURVE",
"118 583 CURVE SMOOTH"
);
},
{
nodes = (
"220 608 OFFCURVE",
"235 597 OFFCURVE",
"235 582 CURVE SMOOTH",
"235 567 OFFCURVE",
"220 557 OFFCURVE",
"208 557 CURVE SMOOTH",
"170 557 OFFCURVE",
"170 608 OFFCURVE",
"208 608 CURVE SMOOTH"
);
},
{
nodes = (
"116 193 OFFCURVE",
"155 152 OFFCURVE",
"206 152 CURVE SMOOTH",
"258 152 OFFCURVE",
"295 193 OFFCURVE",
"295 240 CURVE SMOOTH",
"295 291 OFFCURVE",
"258 331 OFFCURVE",
"206 331 CURVE SMOOTH",
"155 331 OFFCURVE",
"116 291 OFFCURVE",
"116 240 CURVE SMOOTH"
);
},
{
nodes = (
"219 265 OFFCURVE",
"234 254 OFFCURVE",
"234 239 CURVE SMOOTH",
"234 224 OFFCURVE",
"219 214 OFFCURVE",
"206 214 CURVE SMOOTH",
"169 214 OFFCURVE",
"169 265 OFFCURVE",
"206 265 CURVE SMOOTH"
);
}
);
width = 413;
}
);
unicode = 00F7;
},
{
glyphname = oslash;
layers = (
{
hints = (
{
horizontal = 1;
place = "{0, 130}";
type = Stem;
},
{
horizontal = 1;
place = "{652, 127}";
type = Stem;
},
{
place = "{34, 132}";
type = Stem;
},
{
place = "{318, 134}";
type = Stem;
}
);
layerId = "6F6D0AFA-D4D5-4829-AF83-4D7A2EC0E6ED";
paths = (
{
nodes = (
"437 782 LINE",
"370 810 LINE",
"352 766 LINE",
"323 775 OFFCURVE",
"287 779 OFFCURVE",
"242 779 CURVE SMOOTH",
"89 779 OFFCURVE",
"34 724 OFFCURVE",
"34 581 CURVE SMOOTH",
"34 198 LINE SMOOTH",
"34 137 OFFCURVE",
"45 92 OFFCURVE",
"67 61 CURVE",
"43 0 LINE",
"110 -28 LINE",
"128 17 LINE",
"159 6 OFFCURVE",
"197 0 OFFCURVE",
"242 0 CURVE SMOOTH",
"433 0 OFFCURVE",
"452 80 OFFCURVE",
"452 236 CURVE SMOOTH",
"452 581 LINE SMOOTH",
"452 648 OFFCURVE",
"441 694 OFFCURVE",
"414 726 CURVE"
);
},
{
nodes = (
"166 581 LINE",
"166 638 OFFCURVE",
"169 652 OFFCURVE",
"242 652 CURVE SMOOTH",
"274 652 OFFCURVE",
"292 651 OFFCURVE",
"304 646 CURVE",
"168 311 LINE"
);
},
{
nodes = (
"212 130 OFFCURVE",
"191 136 OFFCURVE",
"181 149 CURVE",
"318 488 LINE",
"318 236 LINE SMOOTH",
"318 166 OFFCURVE",
"316 130 OFFCURVE",
"245 130 CURVE SMOOTH"
);
}
);
width = 482;
}
);
unicode = 00F8;
},
{
glyphname = ugrave;
layers = (
{
hints = (
{
horizontal = 1;
place = "{0, 128}";
type = Stem;
},
{
horizontal = 1;
place = "{778, -20}";
target = down;
type = TopGhost;
},
{
horizontal = 1;
place = "{818, 99}";
type = Stem;
},
{
place = "{30, 138}";
type = Stem;
},
{
place = "{316, 134}";
type = Stem;
}
);
layerId = "6F6D0AFA-D4D5-4829-AF83-4D7A2EC0E6ED";
paths = (
{
nodes = (
"30 778 LINE",
"30 198 LINE SMOOTH",
"30 57 OFFCURVE",
"82 0 OFFCURVE",
"240 0 CURVE SMOOTH",
"436 0 OFFCURVE",
"450 85 OFFCURVE",
"450 236 CURVE SMOOTH",
"450 778 LINE",
"317 778 LINE",
"317 759 OFFCURVE",
"317 656 OFFCURVE",
"316 467 CURVE",
"316 279 OFFCURVE",
"315 176 OFFCURVE",
"314 157 CURVE",
"311 140 OFFCURVE",
"277 128 OFFCURVE",
"242 128 CURVE SMOOTH",
"210 128 OFFCURVE",
"180 137 OFFCURVE",
"172 150 CURVE",
"173 150 LINE",
"168 161 OFFCURVE",
"168 179 OFFCURVE",
"168 192 CURVE SMOOTH",
"168 198 LINE",
"164 778 LINE"
);
},
{
nodes = (
"91 869 LINE SMOOTH",
"75 845 OFFCURVE",
"60 821 OFFCURVE",
"60 818 CURVE",
"60 817 OFFCURVE",
"88 817 OFFCURVE",
"116 818 CURVE",
"133 818 OFFCURVE",
"153 819 OFFCURVE",
"174 820 CURVE",
"239 917 LINE",
"122 917 LINE"
);
},
{
nodes = (
"288 869 LINE SMOOTH",
"272 845 OFFCURVE",
"257 821 OFFCURVE",
"257 818 CURVE",
"257 817 OFFCURVE",
"285 817 OFFCURVE",
"313 818 CURVE",
"330 818 OFFCURVE",
"349 819 OFFCURVE",
"371 820 CURVE",
"436 917 LINE",
"319 917 LINE"
);
}
);
width = 481;
}
);
unicode = 00F9;
},
{
glyphname = uacute;
layers = (
{
hints = (
{
horizontal = 1;
place = "{0, 128}";
type = Stem;
},
{
horizontal = 1;
place = "{778, -20}";
target = down;
type = TopGhost;
},
{
horizontal = 1;
place = "{818, 99}";
type = Stem;
},
{
place = "{30, 138}";
type = Stem;
},
{
place = "{316, 134}";
type = Stem;
}
);
layerId = "6F6D0AFA-D4D5-4829-AF83-4D7A2EC0E6ED";
paths = (
{
nodes = (
"30 778 LINE",
"30 198 LINE SMOOTH",
"30 57 OFFCURVE",
"82 0 OFFCURVE",
"240 0 CURVE SMOOTH",
"436 0 OFFCURVE",
"450 85 OFFCURVE",
"450 236 CURVE SMOOTH",
"450 778 LINE",
"317 778 LINE",
"317 759 OFFCURVE",
"317 656 OFFCURVE",
"316 467 CURVE",
"316 279 OFFCURVE",
"315 176 OFFCURVE",
"314 157 CURVE",
"311 140 OFFCURVE",
"277 128 OFFCURVE",
"242 128 CURVE SMOOTH",
"210 128 OFFCURVE",
"180 137 OFFCURVE",
"172 150 CURVE",
"173 150 LINE",
"168 161 OFFCURVE",
"168 179 OFFCURVE",
"168 192 CURVE SMOOTH",
"168 198 LINE",
"164 778 LINE"
);
},
{
nodes = (
"199 869 LINE SMOOTH",
"183 845 OFFCURVE",
"168 821 OFFCURVE",
"168 818 CURVE",
"168 817 OFFCURVE",
"196 817 OFFCURVE",
"224 818 CURVE",
"241 818 OFFCURVE",
"261 819 OFFCURVE",
"282 820 CURVE",
"347 917 LINE",
"230 917 LINE"
);
}
);
width = 481;
}
);
unicode = 00FA;
},
{
glyphname = ucircumflex;
layers = (
{
hints = (
{
horizontal = 1;
place = "{0, 128}";
type = Stem;
},
{
horizontal = 1;
place = "{778, -20}";
target = down;
type = TopGhost;
},
{
horizontal = 1;
place = "{816, 111}";
type = Stem;
},
{
place = "{30, 138}";
type = Stem;
},
{
place = "{317, 133}";
type = Stem;
}
);
layerId = "6F6D0AFA-D4D5-4829-AF83-4D7A2EC0E6ED";
paths = (
{
nodes = (
"30 778 LINE",
"30 198 LINE SMOOTH",
"30 57 OFFCURVE",
"82 0 OFFCURVE",
"240 0 CURVE SMOOTH",
"436 0 OFFCURVE",
"450 85 OFFCURVE",
"450 236 CURVE SMOOTH",
"450 778 LINE",
"317 778 LINE",
"317 711 LINE",
"318 685 OFFCURVE",
"318 591 OFFCURVE",
"317 428 CURVE SMOOTH",
"316 266 OFFCURVE",
"315 176 OFFCURVE",
"314 157 CURVE",
"311 140 OFFCURVE",
"277 128 OFFCURVE",
"242 128 CURVE SMOOTH",
"210 128 OFFCURVE",
"180 137 OFFCURVE",
"172 150 CURVE",
"173 150 LINE",
"168 161 OFFCURVE",
"168 179 OFFCURVE",
"168 192 CURVE SMOOTH",
"168 198 LINE",
"164 778 LINE"
);
},
{
nodes = (
"67 811 LINE",
"192 811 LINE",
"239 883 LINE",
"289 816 LINE",
"414 816 LINE",
"342 929 LINE",
"137 926 LINE"
);
}
);
width = 481;
}
);
unicode = 00FB;
},
{
glyphname = udieresis;
layers = (
{
hints = (
{
horizontal = 1;
place = "{0, 128}";
type = Stem;
},
{
horizontal = 1;
place = "{778, -20}";
target = down;
type = TopGhost;
},
{
horizontal = 1;
place = "{817, 99}";
type = Stem;
},
{
horizontal = 1;
place = "{820, 98}";
type = Stem;
},
{
place = "{30, 138}";
type = Stem;
},
{
place = "{268, 114}";
type = Stem;
},
{
place = "{317, 133}";
type = Stem;
}
);
layerId = "6F6D0AFA-D4D5-4829-AF83-4D7A2EC0E6ED";
paths = (
{
nodes = (
"30 778 LINE",
"30 198 LINE SMOOTH",
"30 57 OFFCURVE",
"82 0 OFFCURVE",
"240 0 CURVE SMOOTH",
"436 0 OFFCURVE",
"450 85 OFFCURVE",
"450 236 CURVE SMOOTH",
"450 778 LINE",
"317 778 LINE",
"317 711 LINE",
"318 685 OFFCURVE",
"318 591 OFFCURVE",
"317 428 CURVE SMOOTH",
"316 266 OFFCURVE",
"315 176 OFFCURVE",
"314 157 CURVE",
"311 140 OFFCURVE",
"277 128 OFFCURVE",
"242 128 CURVE SMOOTH",
"210 128 OFFCURVE",
"180 137 OFFCURVE",
"172 150 CURVE",
"173 150 LINE",
"168 161 OFFCURVE",
"168 179 OFFCURVE",
"168 192 CURVE SMOOTH",
"168 198 LINE",
"164 778 LINE"
);
},
{
nodes = (
"84 817 LINE",
"84 816 OFFCURVE",
"112 816 OFFCURVE",
"140 817 CURVE",
"157 817 OFFCURVE",
"177 817 OFFCURVE",
"198 818 CURVE",
"199 916 LINE",
"84 916 LINE"
);
},
{
nodes = (
"268 821 LINE",
"268 820 OFFCURVE",
"274 820 OFFCURVE",
"286 820 CURVE SMOOTH",
"324 820 LINE SMOOTH",
"341 820 OFFCURVE",
"360 820 OFFCURVE",
"382 821 CURVE",
"383 918 LINE",
"268 918 LINE"
);
}
);
width = 481;
}
);
unicode = 00FC;
},
{
glyphname = yacute;
layers = (
{
hints = (
{
horizontal = 1;
place = "{0, 21}";
target = up;
type = BottomGhost;
},
{
horizontal = 1;
place = "{779, -20}";
target = down;
type = TopGhost;
},
{
horizontal = 1;
place = "{818, 99}";
type = Stem;
},
{
place = "{20, 131}";
type = Stem;
},
{
place = "{162, 134}";
type = Stem;
},
{
place = "{308, 132}";
type = Stem;
}
);
layerId = "6F6D0AFA-D4D5-4829-AF83-4D7A2EC0E6ED";
paths = (
{
nodes = (
"440 779 LINE",
"306 779 LINE",
"306 738 OFFCURVE",
"308 701 OFFCURVE",
"308 672 CURVE SMOOTH",
"308 585 OFFCURVE",
"297 509 OFFCURVE",
"228 437 CURVE",
"164 506 OFFCURVE",
"151 584 OFFCURVE",
"151 664 CURVE SMOOTH",
"151 681 OFFCURVE",
"152 697 OFFCURVE",
"152 714 CURVE SMOOTH",
"152 733 OFFCURVE",
"154 758 OFFCURVE",
"154 779 CURVE",
"20 779 LINE",
"20 688 LINE SMOOTH",
"20 544 OFFCURVE",
"29 436 OFFCURVE",
"162 322 CURVE",
"162 0 LINE",
"296 0 LINE",
"296 322 LINE",
"428 436 OFFCURVE",
"440 544 OFFCURVE",
"440 688 CURVE SMOOTH"
);
},
{
nodes = (
"188 869 LINE SMOOTH",
"172 845 OFFCURVE",
"157 821 OFFCURVE",
"157 818 CURVE",
"157 817 OFFCURVE",
"185 817 OFFCURVE",
"214 818 CURVE",
"231 818 OFFCURVE",
"250 819 OFFCURVE",
"271 820 CURVE",
"336 917 LINE",
"220 917 LINE"
);
}
);
width = 466;
}
);
unicode = 00FD;
},
{
glyphname = thorn;
layers = (
{
hints = (
{
horizontal = 1;
place = "{0, 21}";
target = up;
type = BottomGhost;
},
{
horizontal = 1;
place = "{83, 129}";
type = Stem;
},
{
horizontal = 1;
place = "{563, 127}";
type = Stem;
},
{
place = "{30, 136}";
type = Stem;
},
{
place = "{314, 135}";
type = Stem;
}
);
layerId = "6F6D0AFA-D4D5-4829-AF83-4D7A2EC0E6ED";
paths = (
{
nodes = (
"211 690 OFFCURVE",
"187 689 OFFCURVE",
"166 685 CURVE",
"166 784 LINE",
"30 784 LINE",
"30 492 LINE",
"30 281 LINE",
"30 0 LINE",
"166 0 LINE",
"166 89 LINE",
"187 85 OFFCURVE",
"211 83 OFFCURVE",
"239 83 CURVE SMOOTH",
"430 83 OFFCURVE",
"449 163 OFFCURVE",
"449 319 CURVE SMOOTH",
"449 492 LINE SMOOTH",
"449 636 OFFCURVE",
"392 690 OFFCURVE",
"239 690 CURVE SMOOTH"
);
},
{
nodes = (
"314 319 LINE SMOOTH",
"314 250 OFFCURVE",
"314 212 OFFCURVE",
"241 212 CURVE SMOOTH",
"185 212 OFFCURVE",
"169 227 OFFCURVE",
"166 272 CURVE",
"166 536 LINE",
"171 557 OFFCURVE",
"190 563 OFFCURVE",
"239 563 CURVE SMOOTH",
"310 563 OFFCURVE",
"314 560 OFFCURVE",
"314 492 CURVE SMOOTH"
);
}
);
width = 470;
}
);
unicode = 00FE;
},
{
glyphname = ydieresis;
layers = (
{
hints = (
{
horizontal = 1;
place = "{0, 21}";
target = up;
type = BottomGhost;
},
{
horizontal = 1;
place = "{779, -20}";
target = down;
type = TopGhost;
},
{
horizontal = 1;
place = "{818, 99}";
type = Stem;
},
{
horizontal = 1;
place = "{821, 98}";
type = Stem;
},
{
place = "{20, 131}";
type = Stem;
},
{
place = "{78, 114}";
type = Stem;
},
{
place = "{162, 134}";
type = Stem;
},
{
place = "{262, 114}";
type = Stem;
},
{
place = "{308, 132}";
type = Stem;
}
);
layerId = "6F6D0AFA-D4D5-4829-AF83-4D7A2EC0E6ED";
paths = (
{
nodes = (
"440 779 LINE",
"306 779 LINE",
"306 738 OFFCURVE",
"308 701 OFFCURVE",
"308 672 CURVE SMOOTH",
"308 585 OFFCURVE",
"297 509 OFFCURVE",
"228 437 CURVE",
"164 506 OFFCURVE",
"151 584 OFFCURVE",
"151 664 CURVE SMOOTH",
"151 681 OFFCURVE",
"152 697 OFFCURVE",
"152 714 CURVE SMOOTH",
"152 733 OFFCURVE",
"154 758 OFFCURVE",
"154 779 CURVE",
"20 779 LINE",
"20 688 LINE SMOOTH",
"20 544 OFFCURVE",
"29 436 OFFCURVE",
"162 322 CURVE",
"162 0 LINE",
"296 0 LINE",
"296 322 LINE",
"428 436 OFFCURVE",
"440 544 OFFCURVE",
"440 688 CURVE SMOOTH"
);
},
{
nodes = (
"78 818 LINE",
"78 817 OFFCURVE",
"106 817 OFFCURVE",
"134 818 CURVE",
"151 818 OFFCURVE",
"171 819 OFFCURVE",
"192 820 CURVE",
"193 917 LINE",
"78 917 LINE"
);
},
{
nodes = (
"262 822 LINE",
"262 821 OFFCURVE",
"268 821 OFFCURVE",
"280 821 CURVE SMOOTH",
"318 821 LINE SMOOTH",
"335 821 OFFCURVE",
"354 821 OFFCURVE",
"376 822 CURVE",
"377 919 LINE",
"262 919 LINE"
);
}
);
width = 466;
}
);
unicode = 00FF;
},
{
glyphname = Amacron;
layers = (
{
hints = (
{
horizontal = 1;
place = "{0, 21}";
target = up;
type = BottomGhost;
},
{
horizontal = 1;
place = "{154, 126}";
type = Stem;
},
{
horizontal = 1;
place = "{779, -20}";
target = down;
type = TopGhost;
},
{
horizontal = 1;
place = "{821, 98}";
type = Stem;
},
{
place = "{10, 133}";
type = Stem;
},
{
place = "{98, 245}";
type = Stem;
},
{
place = "{295, 135}";
type = Stem;
}
);
layerId = "6F6D0AFA-D4D5-4829-AF83-4D7A2EC0E6ED";
paths = (
{
nodes = (
"430 0 LINE",
"430 167 LINE SMOOTH",
"430 384 OFFCURVE",
"413 580 OFFCURVE",
"262 779 CURVE",
"175 779 LINE",
"26 580 OFFCURVE",
"10 385 OFFCURVE",
"10 167 CURVE SMOOTH",
"10 0 LINE",
"143 0 LINE",
"143 154 LINE",
"295 154 LINE",
"295 0 LINE"
);
},
{
nodes = (
"143 280 LINE",
"147 392 OFFCURVE",
"170 504 OFFCURVE",
"218 605 CURVE",
"264 508 OFFCURVE",
"289 385 OFFCURVE",
"294 280 CURVE"
);
},
{
nodes = (
"98 822 LINE",
"109 822 LINE",
"116 821 OFFCURVE",
"126 821 OFFCURVE",
"137 821 CURVE SMOOTH",
"175 821 LINE",
"221 821 LINE SMOOTH",
"257 821 OFFCURVE",
"298 821 OFFCURVE",
"343 822 CURVE",
"344 919 LINE",
"98 919 LINE"
);
}
);
width = 444;
}
);
unicode = 0100;
},
{
glyphname = amacron;
layers = (
{
hints = (
{
horizontal = 1;
place = "{0, 21}";
target = up;
type = BottomGhost;
},
{
horizontal = 1;
place = "{154, 126}";
type = Stem;
},
{
horizontal = 1;
place = "{779, -20}";
target = down;
type = TopGhost;
},
{
horizontal = 1;
place = "{821, 98}";
type = Stem;
},
{
place = "{10, 133}";
type = Stem;
},
{
place = "{98, 245}";
type = Stem;
},
{
place = "{295, 135}";
type = Stem;
}
);
layerId = "6F6D0AFA-D4D5-4829-AF83-4D7A2EC0E6ED";
paths = (
{
nodes = (
"430 0 LINE",
"430 167 LINE SMOOTH",
"430 384 OFFCURVE",
"413 580 OFFCURVE",
"262 779 CURVE",
"175 779 LINE",
"26 580 OFFCURVE",
"10 385 OFFCURVE",
"10 167 CURVE SMOOTH",
"10 0 LINE",
"143 0 LINE",
"143 154 LINE",
"295 154 LINE",
"295 0 LINE"
);
},
{
nodes = (
"143 280 LINE",
"147 392 OFFCURVE",
"170 504 OFFCURVE",
"218 605 CURVE",
"264 508 OFFCURVE",
"289 385 OFFCURVE",
"294 280 CURVE"
);
},
{
nodes = (
"98 822 LINE",
"109 822 LINE",
"116 821 OFFCURVE",
"126 821 OFFCURVE",
"137 821 CURVE SMOOTH",
"175 821 LINE",
"221 821 LINE SMOOTH",
"257 821 OFFCURVE",
"298 821 OFFCURVE",
"343 822 CURVE",
"344 919 LINE",
"98 919 LINE"
);
}
);
width = 444;
}
);
unicode = 0101;
},
{
glyphname = Abreve;
layers = (
{
hints = (
{
horizontal = 1;
place = "{0, 21}";
target = up;
type = BottomGhost;
},
{
horizontal = 1;
place = "{154, 126}";
type = Stem;
},
{
horizontal = 1;
place = "{779, -20}";
target = down;
type = TopGhost;
},
{
horizontal = 1;
place = "{810, 109}";
type = Stem;
},
{
place = "{10, 133}";
type = Stem;
},
{
place = "{295, 135}";
type = Stem;
}
);
layerId = "6F6D0AFA-D4D5-4829-AF83-4D7A2EC0E6ED";
paths = (
{
nodes = (
"430 0 LINE",
"430 167 LINE SMOOTH",
"430 384 OFFCURVE",
"413 580 OFFCURVE",
"262 779 CURVE",
"175 779 LINE",
"26 580 OFFCURVE",
"10 385 OFFCURVE",
"10 167 CURVE SMOOTH",
"10 0 LINE",
"143 0 LINE",
"143 154 LINE",
"295 154 LINE",
"295 0 LINE"
);
},
{
nodes = (
"143 280 LINE",
"147 392 OFFCURVE",
"170 504 OFFCURVE",
"218 605 CURVE",
"264 508 OFFCURVE",
"289 385 OFFCURVE",
"294 280 CURVE"
);
},
{
nodes = (
"392 924 LINE",
"268 924 LINE",
"221 852 LINE",
"170 919 LINE",
"46 919 LINE",
"118 809 LINE",
"323 811 LINE"
);
}
);
width = 444;
}
);
unicode = 0102;
},
{
glyphname = abreve;
layers = (
{
hints = (
{
horizontal = 1;
place = "{0, 21}";
target = up;
type = BottomGhost;
},
{
horizontal = 1;
place = "{154, 126}";
type = Stem;
},
{
horizontal = 1;
place = "{779, -20}";
target = down;
type = TopGhost;
},
{
horizontal = 1;
place = "{810, 109}";
type = Stem;
},
{
place = "{10, 133}";
type = Stem;
},
{
place = "{295, 135}";
type = Stem;
}
);
layerId = "6F6D0AFA-D4D5-4829-AF83-4D7A2EC0E6ED";
paths = (
{
nodes = (
"430 0 LINE",
"430 167 LINE SMOOTH",
"430 384 OFFCURVE",
"413 580 OFFCURVE",
"262 779 CURVE",
"175 779 LINE",
"26 580 OFFCURVE",
"10 385 OFFCURVE",
"10 167 CURVE SMOOTH",
"10 0 LINE",
"143 0 LINE",
"143 154 LINE",
"295 154 LINE",
"295 0 LINE"
);
},
{
nodes = (
"143 280 LINE",
"147 392 OFFCURVE",
"170 504 OFFCURVE",
"218 605 CURVE",
"264 508 OFFCURVE",
"289 385 OFFCURVE",
"294 280 CURVE"
);
},
{
nodes = (
"392 924 LINE",
"268 924 LINE",
"221 852 LINE",
"170 919 LINE",
"46 919 LINE",
"118 809 LINE",
"323 811 LINE"
);
}
);
width = 444;
}
);
unicode = 0103;
},
{
glyphname = Aogonek;
layers = (
{
hints = (
{
horizontal = 1;
place = "{-160, 27}";
type = Stem;
},
{
horizontal = 1;
place = "{0, 21}";
target = up;
type = BottomGhost;
},
{
horizontal = 1;
place = "{154, 126}";
type = Stem;
},
{
horizontal = 1;
place = "{779, -20}";
target = down;
type = TopGhost;
},
{
place = "{11, 133}";
type = Stem;
},
{
place = "{293, 79}";
type = Stem;
},
{
place = "{296, 135}";
type = Stem;
}
);
layerId = "6F6D0AFA-D4D5-4829-AF83-4D7A2EC0E6ED";
paths = (
{
nodes = (
"411 -133 OFFCURVE",
"399 -127 OFFCURVE",
"388 -116 CURVE SMOOTH",
"377 -106 OFFCURVE",
"372 -94 OFFCURVE",
"372 -80 CURVE SMOOTH",
"372 -71 OFFCURVE",
"375 -63 OFFCURVE",
"382 -55 CURVE SMOOTH",
"389 -48 OFFCURVE",
"397 -44 OFFCURVE",
"408 -44 CURVE SMOOTH",
"411 -44 OFFCURVE",
"414 -46 OFFCURVE",
"419 -46 CURVE",
"392 0 LINE",
"431 0 LINE",
"431 167 LINE SMOOTH",
"431 384 OFFCURVE",
"414 580 OFFCURVE",
"263 779 CURVE",
"176 779 LINE",
"27 579 OFFCURVE",
"11 385 OFFCURVE",
"11 167 CURVE SMOOTH",
"11 0 LINE",
"144 0 LINE",
"144 154 LINE",
"296 154 LINE",
"296 0 LINE",
"343 0 LINE",
"328 -5 OFFCURVE",
"316 -13 OFFCURVE",
"307 -24 CURVE SMOOTH",
"298 -36 OFFCURVE",
"293 -51 OFFCURVE",
"293 -68 CURVE SMOOTH",
"293 -91 OFFCURVE",
"302 -117 OFFCURVE",
"319 -136 CURVE",
"351 -168 OFFCURVE",
"390 -164 OFFCURVE",
"439 -160 CURVE",
"446 -131 LINE",
"438 -132 OFFCURVE",
"433 -133 OFFCURVE",
"426 -133 CURVE SMOOTH"
);
},
{
nodes = (
"144 280 LINE",
"149 392 OFFCURVE",
"172 504 OFFCURVE",
"220 605 CURVE",
"264 509 OFFCURVE",
"288 387 OFFCURVE",
"295 280 CURVE"
);
}
);
width = 444;
}
);
unicode = 0104;
},
{
glyphname = aogonek;
layers = (
{
hints = (
{
horizontal = 1;
place = "{-160, 27}";
type = Stem;
},
{
horizontal = 1;
place = "{0, 21}";
target = up;
type = BottomGhost;
},
{
horizontal = 1;
place = "{154, 126}";
type = Stem;
},
{
horizontal = 1;
place = "{779, -20}";
target = down;
type = TopGhost;
},
{
place = "{11, 133}";
type = Stem;
},
{
place = "{293, 79}";
type = Stem;
},
{
place = "{296, 135}";
type = Stem;
}
);
layerId = "6F6D0AFA-D4D5-4829-AF83-4D7A2EC0E6ED";
paths = (
{
nodes = (
"411 -133 OFFCURVE",
"399 -127 OFFCURVE",
"388 -116 CURVE SMOOTH",
"377 -106 OFFCURVE",
"372 -94 OFFCURVE",
"372 -80 CURVE SMOOTH",
"372 -71 OFFCURVE",
"375 -63 OFFCURVE",
"382 -55 CURVE SMOOTH",
"389 -48 OFFCURVE",
"397 -44 OFFCURVE",
"408 -44 CURVE SMOOTH",
"411 -44 OFFCURVE",
"414 -46 OFFCURVE",
"419 -46 CURVE",
"392 0 LINE",
"431 0 LINE",
"431 167 LINE SMOOTH",
"431 384 OFFCURVE",
"414 580 OFFCURVE",
"263 779 CURVE",
"176 779 LINE",
"27 579 OFFCURVE",
"11 385 OFFCURVE",
"11 167 CURVE SMOOTH",
"11 0 LINE",
"144 0 LINE",
"144 154 LINE",
"296 154 LINE",
"296 0 LINE",
"343 0 LINE",
"328 -5 OFFCURVE",
"316 -13 OFFCURVE",
"307 -24 CURVE SMOOTH",
"298 -36 OFFCURVE",
"293 -51 OFFCURVE",
"293 -68 CURVE SMOOTH",
"293 -91 OFFCURVE",
"302 -117 OFFCURVE",
"319 -136 CURVE",
"351 -168 OFFCURVE",
"390 -164 OFFCURVE",
"439 -160 CURVE",
"446 -131 LINE",
"438 -132 OFFCURVE",
"433 -133 OFFCURVE",
"426 -133 CURVE SMOOTH"
);
},
{
nodes = (
"144 280 LINE",
"149 392 OFFCURVE",
"172 504 OFFCURVE",
"220 605 CURVE",
"264 509 OFFCURVE",
"288 387 OFFCURVE",
"295 280 CURVE"
);
}
);
width = 444;
}
);
unicode = 0105;
},
{
glyphname = Cacute;
layers = (
{
hints = (
{
horizontal = 1;
place = "{0, 132}";
type = Stem;
},
{
horizontal = 1;
place = "{652, 127}";
type = Stem;
},
{
horizontal = 1;
place = "{818, 99}";
type = Stem;
},
{
place = "{32, 135}";
type = Stem;
},
{
place = "{319, 133}";
type = Stem;
}
);
layerId = "6F6D0AFA-D4D5-4829-AF83-4D7A2EC0E6ED";
paths = (
{
nodes = (
"319 242 LINE",
"319 226 LINE",
"320 215 OFFCURVE",
"322 203 OFFCURVE",
"322 191 CURVE SMOOTH",
"322 168 OFFCURVE",
"319 144 OFFCURVE",
"306 140 CURVE SMOOTH",
"291 135 OFFCURVE",
"273 132 OFFCURVE",
"252 132 CURVE SMOOTH",
"212 132 OFFCURVE",
"171 144 OFFCURVE",
"168 172 CURVE",
"167 208 OFFCURVE",
"167 240 OFFCURVE",
"167 269 CURVE SMOOTH",
"167 349 LINE",
"167 581 LINE SMOOTH",
"167 649 OFFCURVE",
"165 652 OFFCURVE",
"242 652 CURVE SMOOTH",
"319 652 OFFCURVE",
"319 645 OFFCURVE",
"319 575 CURVE",
"452 575 LINE",
"452 719 OFFCURVE",
"402 779 OFFCURVE",
"242 779 CURVE SMOOTH",
"84 779 OFFCURVE",
"32 720 OFFCURVE",
"32 581 CURVE SMOOTH",
"32 198 LINE SMOOTH",
"32 57 OFFCURVE",
"84 0 OFFCURVE",
"242 0 CURVE SMOOTH",
"440 0 OFFCURVE",
"452 88 OFFCURVE",
"452 242 CURVE"
);
},
{
nodes = (
"199 869 LINE SMOOTH",
"183 845 OFFCURVE",
"168 821 OFFCURVE",
"168 818 CURVE",
"168 817 OFFCURVE",
"196 817 OFFCURVE",
"224 818 CURVE",
"241 818 OFFCURVE",
"261 819 OFFCURVE",
"282 820 CURVE",
"347 917 LINE",
"230 917 LINE"
);
}
);
width = 487;
}
);
unicode = 0106;
},
{
glyphname = cacute;
layers = (
{
hints = (
{
horizontal = 1;
place = "{0, 132}";
type = Stem;
},
{
horizontal = 1;
place = "{652, 127}";
type = Stem;
},
{
horizontal = 1;
place = "{818, 99}";
type = Stem;
},
{
place = "{32, 135}";
type = Stem;
},
{
place = "{319, 133}";
type = Stem;
}
);
layerId = "6F6D0AFA-D4D5-4829-AF83-4D7A2EC0E6ED";
paths = (
{
nodes = (
"319 242 LINE",
"319 226 LINE",
"320 215 OFFCURVE",
"322 203 OFFCURVE",
"322 191 CURVE SMOOTH",
"322 168 OFFCURVE",
"319 144 OFFCURVE",
"306 140 CURVE SMOOTH",
"291 135 OFFCURVE",
"273 132 OFFCURVE",
"252 132 CURVE SMOOTH",
"212 132 OFFCURVE",
"171 144 OFFCURVE",
"168 172 CURVE",
"167 208 OFFCURVE",
"167 240 OFFCURVE",
"167 269 CURVE SMOOTH",
"167 349 LINE",
"167 581 LINE SMOOTH",
"167 649 OFFCURVE",
"165 652 OFFCURVE",
"242 652 CURVE SMOOTH",
"319 652 OFFCURVE",
"319 645 OFFCURVE",
"319 575 CURVE",
"452 575 LINE",
"452 719 OFFCURVE",
"402 779 OFFCURVE",
"242 779 CURVE SMOOTH",
"84 779 OFFCURVE",
"32 720 OFFCURVE",
"32 581 CURVE SMOOTH",
"32 198 LINE SMOOTH",
"32 57 OFFCURVE",
"84 0 OFFCURVE",
"242 0 CURVE SMOOTH",
"440 0 OFFCURVE",
"452 88 OFFCURVE",
"452 242 CURVE"
);
},
{
nodes = (
"199 869 LINE SMOOTH",
"183 845 OFFCURVE",
"168 821 OFFCURVE",
"168 818 CURVE",
"168 817 OFFCURVE",
"196 817 OFFCURVE",
"224 818 CURVE",
"241 818 OFFCURVE",
"261 819 OFFCURVE",
"282 820 CURVE",
"347 917 LINE",
"230 917 LINE"
);
}
);
width = 487;
}
);
unicode = 0107;
},
{
glyphname = Ccircumflex;
layers = (
{
hints = (
{
horizontal = 1;
place = "{0, 132}";
type = Stem;
},
{
horizontal = 1;
place = "{652, 127}";
type = Stem;
},
{
horizontal = 1;
place = "{816, 113}";
type = Stem;
},
{
place = "{32, 135}";
type = Stem;
},
{
place = "{319, 133}";
type = Stem;
}
);
layerId = "6F6D0AFA-D4D5-4829-AF83-4D7A2EC0E6ED";
paths = (
{
nodes = (
"319 242 LINE",
"319 226 LINE",
"320 215 OFFCURVE",
"322 203 OFFCURVE",
"322 191 CURVE SMOOTH",
"322 168 OFFCURVE",
"319 144 OFFCURVE",
"306 140 CURVE SMOOTH",
"291 135 OFFCURVE",
"273 132 OFFCURVE",
"252 132 CURVE SMOOTH",
"212 132 OFFCURVE",
"171 144 OFFCURVE",
"168 172 CURVE",
"167 208 OFFCURVE",
"167 240 OFFCURVE",
"167 269 CURVE SMOOTH",
"167 349 LINE",
"167 581 LINE SMOOTH",
"167 649 OFFCURVE",
"165 652 OFFCURVE",
"242 652 CURVE SMOOTH",
"319 652 OFFCURVE",
"319 645 OFFCURVE",
"319 575 CURVE",
"452 575 LINE",
"452 719 OFFCURVE",
"402 779 OFFCURVE",
"242 779 CURVE SMOOTH",
"84 779 OFFCURVE",
"32 720 OFFCURVE",
"32 581 CURVE SMOOTH",
"32 198 LINE SMOOTH",
"32 57 OFFCURVE",
"84 0 OFFCURVE",
"242 0 CURVE SMOOTH",
"440 0 OFFCURVE",
"452 88 OFFCURVE",
"452 242 CURVE"
);
},
{
nodes = (
"67 815 LINE",
"182 815 LINE",
"232 883 LINE",
"280 816 LINE",
"401 816 LINE",
"328 929 LINE",
"139 929 LINE"
);
}
);
width = 487;
}
);
unicode = 0108;
},
{
glyphname = ccircumflex;
layers = (
{
hints = (
{
horizontal = 1;
place = "{0, 132}";
type = Stem;
},
{
horizontal = 1;
place = "{652, 127}";
type = Stem;
},
{
horizontal = 1;
place = "{816, 113}";
type = Stem;
},
{
place = "{32, 135}";
type = Stem;
},
{
place = "{319, 133}";
type = Stem;
}
);
layerId = "6F6D0AFA-D4D5-4829-AF83-4D7A2EC0E6ED";
paths = (
{
nodes = (
"319 242 LINE",
"319 226 LINE",
"320 215 OFFCURVE",
"322 203 OFFCURVE",
"322 191 CURVE SMOOTH",
"322 168 OFFCURVE",
"319 144 OFFCURVE",
"306 140 CURVE SMOOTH",
"291 135 OFFCURVE",
"273 132 OFFCURVE",
"252 132 CURVE SMOOTH",
"212 132 OFFCURVE",
"171 144 OFFCURVE",
"168 172 CURVE",
"167 208 OFFCURVE",
"167 240 OFFCURVE",
"167 269 CURVE SMOOTH",
"167 349 LINE",
"167 581 LINE SMOOTH",
"167 649 OFFCURVE",
"165 652 OFFCURVE",
"242 652 CURVE SMOOTH",
"319 652 OFFCURVE",
"319 645 OFFCURVE",
"319 575 CURVE",
"452 575 LINE",
"452 719 OFFCURVE",
"402 779 OFFCURVE",
"242 779 CURVE SMOOTH",
"84 779 OFFCURVE",
"32 720 OFFCURVE",
"32 581 CURVE SMOOTH",
"32 198 LINE SMOOTH",
"32 57 OFFCURVE",
"84 0 OFFCURVE",
"242 0 CURVE SMOOTH",
"440 0 OFFCURVE",
"452 88 OFFCURVE",
"452 242 CURVE"
);
},
{
nodes = (
"67 815 LINE",
"182 815 LINE",
"232 883 LINE",
"280 816 LINE",
"401 816 LINE",
"328 929 LINE",
"139 929 LINE"
);
}
);
width = 487;
}
);
unicode = 0109;
},
{
glyphname = Cdotaccent;
layers = (
{
hints = (
{
horizontal = 1;
place = "{0, 132}";
type = Stem;
},
{
horizontal = 1;
place = "{652, 127}";
type = Stem;
},
{
horizontal = 1;
place = "{815, 128}";
type = Stem;
},
{
place = "{32, 135}";
type = Stem;
},
{
place = "{173, 134}";
type = Stem;
},
{
place = "{319, 133}";
type = Stem;
}
);
layerId = "6F6D0AFA-D4D5-4829-AF83-4D7A2EC0E6ED";
paths = (
{
nodes = (
"319 242 LINE",
"319 226 LINE",
"320 215 OFFCURVE",
"322 203 OFFCURVE",
"322 191 CURVE SMOOTH",
"322 168 OFFCURVE",
"319 144 OFFCURVE",
"306 140 CURVE SMOOTH",
"291 135 OFFCURVE",
"273 132 OFFCURVE",
"252 132 CURVE SMOOTH",
"212 132 OFFCURVE",
"171 144 OFFCURVE",
"168 172 CURVE",
"167 208 OFFCURVE",
"167 240 OFFCURVE",
"167 269 CURVE SMOOTH",
"167 349 LINE",
"167 581 LINE SMOOTH",
"167 649 OFFCURVE",
"165 652 OFFCURVE",
"242 652 CURVE SMOOTH",
"319 652 OFFCURVE",
"319 645 OFFCURVE",
"319 575 CURVE",
"452 575 LINE",
"452 719 OFFCURVE",
"402 779 OFFCURVE",
"242 779 CURVE SMOOTH",
"84 779 OFFCURVE",
"32 720 OFFCURVE",
"32 581 CURVE SMOOTH",
"32 198 LINE SMOOTH",
"32 57 OFFCURVE",
"84 0 OFFCURVE",
"242 0 CURVE SMOOTH",
"440 0 OFFCURVE",
"452 88 OFFCURVE",
"452 242 CURVE"
);
},
{
nodes = (
"191 943 OFFCURVE",
"173 923 OFFCURVE",
"173 878 CURVE SMOOTH",
"173 835 OFFCURVE",
"192 815 OFFCURVE",
"240 815 CURVE SMOOTH",
"285 815 OFFCURVE",
"307 836 OFFCURVE",
"307 878 CURVE SMOOTH",
"307 925 OFFCURVE",
"288 943 OFFCURVE",
"240 943 CURVE SMOOTH"
);
}
);
width = 487;
}
);
unicode = 010A;
},
{
glyphname = cdotaccent;
layers = (
{
hints = (
{
horizontal = 1;
place = "{0, 132}";
type = Stem;
},
{
horizontal = 1;
place = "{652, 127}";
type = Stem;
},
{
horizontal = 1;
place = "{815, 128}";
type = Stem;
},
{
place = "{32, 135}";
type = Stem;
},
{
place = "{173, 134}";
type = Stem;
},
{
place = "{319, 133}";
type = Stem;
}
);
layerId = "6F6D0AFA-D4D5-4829-AF83-4D7A2EC0E6ED";
paths = (
{
nodes = (
"319 242 LINE",
"319 226 LINE",
"320 215 OFFCURVE",
"322 203 OFFCURVE",
"322 191 CURVE SMOOTH",
"322 168 OFFCURVE",
"319 144 OFFCURVE",
"306 140 CURVE SMOOTH",
"291 135 OFFCURVE",
"273 132 OFFCURVE",
"252 132 CURVE SMOOTH",
"212 132 OFFCURVE",
"171 144 OFFCURVE",
"168 172 CURVE",
"167 208 OFFCURVE",
"167 240 OFFCURVE",
"167 269 CURVE SMOOTH",
"167 349 LINE",
"167 581 LINE SMOOTH",
"167 649 OFFCURVE",
"165 652 OFFCURVE",
"242 652 CURVE SMOOTH",
"319 652 OFFCURVE",
"319 645 OFFCURVE",
"319 575 CURVE",
"452 575 LINE",
"452 719 OFFCURVE",
"402 779 OFFCURVE",
"242 779 CURVE SMOOTH",
"84 779 OFFCURVE",
"32 720 OFFCURVE",
"32 581 CURVE SMOOTH",
"32 198 LINE SMOOTH",
"32 57 OFFCURVE",
"84 0 OFFCURVE",
"242 0 CURVE SMOOTH",
"440 0 OFFCURVE",
"452 88 OFFCURVE",
"452 242 CURVE"
);
},
{
nodes = (
"191 943 OFFCURVE",
"173 923 OFFCURVE",
"173 878 CURVE SMOOTH",
"173 835 OFFCURVE",
"192 815 OFFCURVE",
"240 815 CURVE SMOOTH",
"285 815 OFFCURVE",
"307 836 OFFCURVE",
"307 878 CURVE SMOOTH",
"307 925 OFFCURVE",
"288 943 OFFCURVE",
"240 943 CURVE SMOOTH"
);
}
);
width = 487;
}
);
unicode = 010B;
},
{
glyphname = Ccaron;
layers = (
{
hints = (
{
horizontal = 1;
place = "{0, 132}";
type = Stem;
},
{
horizontal = 1;
place = "{652, 127}";
type = Stem;
},
{
horizontal = 1;
place = "{804, 109}";
type = Stem;
},
{
place = "{32, 135}";
type = Stem;
},
{
place = "{319, 133}";
type = Stem;
}
);
layerId = "6F6D0AFA-D4D5-4829-AF83-4D7A2EC0E6ED";
paths = (
{
nodes = (
"319 242 LINE",
"319 226 LINE",
"320 215 OFFCURVE",
"322 203 OFFCURVE",
"322 191 CURVE SMOOTH",
"322 168 OFFCURVE",
"319 144 OFFCURVE",
"306 140 CURVE SMOOTH",
"291 135 OFFCURVE",
"273 132 OFFCURVE",
"252 132 CURVE SMOOTH",
"212 132 OFFCURVE",
"171 144 OFFCURVE",
"168 172 CURVE",
"167 208 OFFCURVE",
"167 240 OFFCURVE",
"167 269 CURVE SMOOTH",
"167 349 LINE",
"167 581 LINE SMOOTH",
"167 649 OFFCURVE",
"165 652 OFFCURVE",
"242 652 CURVE SMOOTH",
"319 652 OFFCURVE",
"319 645 OFFCURVE",
"319 575 CURVE",
"452 575 LINE",
"452 719 OFFCURVE",
"402 779 OFFCURVE",
"242 779 CURVE SMOOTH",
"84 779 OFFCURVE",
"32 720 OFFCURVE",
"32 581 CURVE SMOOTH",
"32 198 LINE SMOOTH",
"32 57 OFFCURVE",
"84 0 OFFCURVE",
"242 0 CURVE SMOOTH",
"440 0 OFFCURVE",
"452 88 OFFCURVE",
"452 242 CURVE"
);
},
{
nodes = (
"409 918 LINE",
"284 918 LINE",
"238 846 LINE",
"187 913 LINE",
"62 913 LINE",
"134 803 LINE",
"340 805 LINE"
);
}
);
width = 487;
}
);
unicode = 010C;
},
{
glyphname = ccaron;
layers = (
{
hints = (
{
horizontal = 1;
place = "{0, 132}";
type = Stem;
},
{
horizontal = 1;
place = "{652, 127}";
type = Stem;
},
{
horizontal = 1;
place = "{804, 109}";
type = Stem;
},
{
place = "{32, 135}";
type = Stem;
},
{
place = "{319, 133}";
type = Stem;
}
);
layerId = "6F6D0AFA-D4D5-4829-AF83-4D7A2EC0E6ED";
paths = (
{
nodes = (
"319 242 LINE",
"319 226 LINE",
"320 215 OFFCURVE",
"322 203 OFFCURVE",
"322 191 CURVE SMOOTH",
"322 168 OFFCURVE",
"319 144 OFFCURVE",
"306 140 CURVE SMOOTH",
"291 135 OFFCURVE",
"273 132 OFFCURVE",
"252 132 CURVE SMOOTH",
"212 132 OFFCURVE",
"171 144 OFFCURVE",
"168 172 CURVE",
"167 208 OFFCURVE",
"167 240 OFFCURVE",
"167 269 CURVE SMOOTH",
"167 349 LINE",
"167 581 LINE SMOOTH",
"167 649 OFFCURVE",
"165 652 OFFCURVE",
"242 652 CURVE SMOOTH",
"319 652 OFFCURVE",
"319 645 OFFCURVE",
"319 575 CURVE",
"452 575 LINE",
"452 719 OFFCURVE",
"402 779 OFFCURVE",
"242 779 CURVE SMOOTH",
"84 779 OFFCURVE",
"32 720 OFFCURVE",
"32 581 CURVE SMOOTH",
"32 198 LINE SMOOTH",
"32 57 OFFCURVE",
"84 0 OFFCURVE",
"242 0 CURVE SMOOTH",
"440 0 OFFCURVE",
"452 88 OFFCURVE",
"452 242 CURVE"
);
},
{
nodes = (
"409 918 LINE",
"284 918 LINE",
"238 846 LINE",
"187 913 LINE",
"62 913 LINE",
"134 803 LINE",
"340 805 LINE"
);
}
);
width = 487;
}
);
unicode = 010D;
},
{
glyphname = Dcaron;
layers = (
{
hints = (
{
horizontal = 1;
place = "{0, 127}";
type = Stem;
},
{
horizontal = 1;
place = "{653, 126}";
type = Stem;
},
{
horizontal = 1;
place = "{811, 109}";
type = Stem;
},
{
place = "{34, 134}";
type = Stem;
},
{
place = "{320, 134}";
type = Stem;
}
);
layerId = "6F6D0AFA-D4D5-4829-AF83-4D7A2EC0E6ED";
paths = (
{
nodes = (
"34 0 LINE",
"152 0 LINE SMOOTH",
"316 0 OFFCURVE",
"454 18 OFFCURVE",
"454 218 CURVE SMOOTH",
"454 577 LINE SMOOTH",
"454 717 OFFCURVE",
"401 779 OFFCURVE",
"244 779 CURVE SMOOTH",
"34 779 LINE"
);
},
{
nodes = (
"168 653 LINE",
"193 653 LINE SMOOTH",
"281 653 OFFCURVE",
"320 655 OFFCURVE",
"320 565 CURVE SMOOTH",
"320 223 LINE SMOOTH",
"320 131 OFFCURVE",
"277 127 OFFCURVE",
"168 127 CURVE"
);
},
{
nodes = (
"390 925 LINE",
"265 925 LINE",
"218 853 LINE",
"168 920 LINE",
"43 920 LINE",
"115 810 LINE",
"320 812 LINE"
);
}
);
width = 487;
}
);
unicode = 010E;
},
{
glyphname = dcaron;
layers = (
{
hints = (
{
horizontal = 1;
place = "{0, 127}";
type = Stem;
},
{
horizontal = 1;
place = "{653, 126}";
type = Stem;
},
{
horizontal = 1;
place = "{811, 109}";
type = Stem;
},
{
place = "{34, 134}";
type = Stem;
},
{
place = "{320, 134}";
type = Stem;
}
);
layerId = "6F6D0AFA-D4D5-4829-AF83-4D7A2EC0E6ED";
paths = (
{
nodes = (
"34 0 LINE",
"152 0 LINE SMOOTH",
"316 0 OFFCURVE",
"454 18 OFFCURVE",
"454 218 CURVE SMOOTH",
"454 577 LINE SMOOTH",
"454 717 OFFCURVE",
"401 779 OFFCURVE",
"244 779 CURVE SMOOTH",
"34 779 LINE"
);
},
{
nodes = (
"168 653 LINE",
"193 653 LINE SMOOTH",
"281 653 OFFCURVE",
"320 655 OFFCURVE",
"320 565 CURVE SMOOTH",
"320 223 LINE SMOOTH",
"320 131 OFFCURVE",
"277 127 OFFCURVE",
"168 127 CURVE"
);
},
{
nodes = (
"390 925 LINE",
"265 925 LINE",
"218 853 LINE",
"168 920 LINE",
"43 920 LINE",
"115 810 LINE",
"320 812 LINE"
);
}
);
width = 487;
}
);
unicode = 010F;
},
{
glyphname = Dcroat;
layers = (
{
hints = (
{
horizontal = 1;
place = "{0, 127}";
type = Stem;
},
{
horizontal = 1;
place = "{334, 128}";
type = Stem;
},
{
horizontal = 1;
place = "{653, 126}";
type = Stem;
},
{
place = "{58, 134}";
type = Stem;
},
{
place = "{344, 134}";
type = Stem;
}
);
layerId = "6F6D0AFA-D4D5-4829-AF83-4D7A2EC0E6ED";
paths = (
{
nodes = (
"58 779 LINE",
"58 462 LINE",
"22 462 LINE",
"22 334 LINE",
"58 334 LINE",
"58 0 LINE",
"176 0 LINE SMOOTH",
"340 0 OFFCURVE",
"478 18 OFFCURVE",
"478 218 CURVE SMOOTH",
"478 577 LINE SMOOTH",
"478 717 OFFCURVE",
"425 779 OFFCURVE",
"268 779 CURVE SMOOTH"
);
},
{
nodes = (
"344 223 LINE SMOOTH",
"344 131 OFFCURVE",
"301 127 OFFCURVE",
"192 127 CURVE",
"192 334 LINE",
"287 334 LINE",
"287 462 LINE",
"192 462 LINE",
"192 653 LINE",
"217 653 LINE SMOOTH",
"305 653 OFFCURVE",
"344 655 OFFCURVE",
"344 565 CURVE SMOOTH"
);
}
);
width = 504;
}
);
unicode = 0110;
},
